<?xml version="1.0" encoding="utf-8"?>
<!-- Generator: Adobe Illustrator 22.1.0, SVG Export Plug-In . SVG Version: 6.00 Build 0)  -->
<svg version="1.1" id="Layer_1" xmlns="http://www.w3.org/2000/svg" xmlns:xlink="http://www.w3.org/1999/xlink" x="0px" y="0px"
	 viewBox="0 0 182 179" style="enable-background:new 0 0 182 179;" xml:space="preserve">
<style type="text/css">
	.st0{fill:#1D1D1B;}
	.st1{clip-path:url(#SVGID_2_);fill:#1D1D1B;}
	.st2{clip-path:url(#SVGID_4_);fill:#1D1D1B;}
</style>
<path class="st0" d="M27,97.7l-10.1,24.9h-0.2L6.5,97.7H0v32.9h4.4v-27h0.1l10.9,27h2.9l10.8-27h0.1v27h4.4V97.7H27z M53.3,103.4
	L53.3,103.4l6.1,15.1H47.2L53.3,103.4z M51.5,97.7l-14.2,32.9h5.1l3.2-8.1h15.3l3.2,8.1h5.1L55.5,97.7H51.5z M96.9,97.7v27h-0.1
	l-17.7-27h-5.7v32.9h4.4v-27h0.1l17.9,27h5.5V97.7H96.9z M121.3,103.4L121.3,103.4l6.1,15.1h-12.2L121.3,103.4z M119.6,97.7
	l-14.2,32.9h5.1l3.2-8.1H129l3.2,8.1h5.1l-13.8-32.9H119.6z M141.5,130.5h4.4V97.7h-4.4V130.5z M165.9,103.4L165.9,103.4l6.1,15.1
	h-12.2L165.9,103.4z M164.2,97.7L150,130.5h5.1l3.2-8.1h15.3l3.2,8.1h5.1l-13.8-32.9H164.2z"/>
<g>
	<defs>
		<rect id="SVGID_1_" y="0.5" width="182" height="178.5"/>
	</defs>
	<clipPath id="SVGID_2_">
		<use xlink:href="#SVGID_1_"  style="overflow:visible;"/>
	</clipPath>
	<path class="st1" d="M170.5,71.7h2.9c1,0,1.9,0.1,2.8,0.4c0.9,0.3,1.6,0.7,2.3,1.2c0.6,0.5,1.1,1.2,1.5,2.1c0.4,0.8,0.6,1.8,0.6,3
		c0,1.2-0.2,2.2-0.6,3c-0.4,0.8-0.9,1.5-1.5,2.1c-0.6,0.5-1.4,1-2.3,1.2c-0.9,0.3-1.8,0.4-2.8,0.4h-2.9V71.7z M169.1,86.5h4.7
		c1.3,0,2.4-0.2,3.3-0.5c0.9-0.3,1.7-0.8,2.3-1.3c0.6-0.5,1.1-1.1,1.4-1.8c0.3-0.6,0.6-1.3,0.8-1.9c0.2-0.6,0.3-1.1,0.3-1.6
		c0-0.5,0.1-0.8,0.1-1s0-0.5-0.1-1c0-0.5-0.1-1-0.3-1.6c-0.2-0.6-0.4-1.2-0.8-1.9c-0.3-0.6-0.8-1.2-1.4-1.8c-0.6-0.5-1.4-1-2.3-1.3
		c-0.9-0.3-2-0.5-3.3-0.5h-4.7V86.5z M152.7,86.5h1.4V72.3h0l9.2,14.2h1.8V70.3h-1.4v14.2h0l-9.2-14.2h-1.8V86.5z M147.2,86.5h1.4
		V70.3h-1.4V86.5z M131.9,86.5h1.4v-7.7h8.4v7.7h1.4V70.3h-1.4v7.1h-8.4v-7.1h-1.4V86.5z M119.2,86.5h9.5v-1.4h-8.1v-6.3h7.3v-1.4
		h-7.3v-5.8h7.8v-1.4h-9.2V86.5z M107.3,78.7h3.4c0.4,0,0.9,0.1,1.3,0.2c0.4,0.1,0.8,0.3,1.2,0.6c0.3,0.3,0.6,0.6,0.8,1
		c0.2,0.4,0.3,0.9,0.3,1.5c0,0.3,0,0.6-0.1,1c-0.1,0.4-0.3,0.7-0.5,1c-0.3,0.3-0.7,0.6-1.2,0.8c-0.5,0.2-1.2,0.3-2,0.3h-3.2V78.7z
		 M107.3,71.7h3.1c0.4,0,0.9,0,1.3,0.1c0.4,0.1,0.7,0.2,1,0.5c0.3,0.2,0.5,0.5,0.7,0.9s0.3,0.8,0.3,1.4c0,0.3,0,0.5-0.1,0.9
		s-0.3,0.6-0.5,0.9c-0.3,0.3-0.6,0.5-1.1,0.7c-0.5,0.2-1,0.3-1.8,0.3h-2.9V71.7z M105.8,86.5h4.8c0.5,0,1.1-0.1,1.6-0.2
		c0.6-0.1,1.1-0.3,1.6-0.7c0.5-0.3,0.9-0.8,1.3-1.4c0.3-0.6,0.5-1.3,0.5-2.3c0-0.6-0.1-1.1-0.2-1.6c-0.2-0.5-0.4-0.9-0.7-1.2
		c-0.3-0.3-0.7-0.6-1.1-0.8c-0.4-0.2-0.9-0.3-1.4-0.4v0c0.9-0.2,1.6-0.6,2-1.2c0.5-0.6,0.7-1.3,0.7-2.1c0-0.9-0.1-1.6-0.4-2.2
		c-0.3-0.6-0.7-1-1.1-1.3c-0.5-0.3-1-0.5-1.6-0.6c-0.6-0.1-1.2-0.1-1.7-0.1h-4.3V86.5z M87.7,86.5h9.5v-1.4h-8.1v-6.3h7.3v-1.4h-7.3
		v-5.8h7.8v-1.4h-9.2V86.5z M84,83c-0.3,0.4-0.6,0.8-0.9,1.1c-0.4,0.3-0.7,0.6-1.1,0.8c-0.4,0.2-0.8,0.4-1.2,0.5
		c-0.4,0.1-0.8,0.1-1.2,0.1c-1,0-1.9-0.2-2.6-0.5c-0.8-0.4-1.5-0.9-2-1.5s-1-1.4-1.3-2.3c-0.3-0.9-0.4-1.8-0.4-2.8
		c0-1,0.1-1.9,0.4-2.8c0.3-0.9,0.7-1.6,1.3-2.3c0.6-0.6,1.2-1.1,2-1.5c0.8-0.4,1.7-0.5,2.6-0.5c0.8,0,1.5,0.2,2.2,0.5
		c0.7,0.4,1.3,0.9,1.8,1.7l1.1-1c-0.7-0.9-1.4-1.6-2.3-2c-0.9-0.4-1.8-0.6-2.9-0.6c-1.1,0-2.2,0.2-3.2,0.6c-1,0.4-1.8,1-2.5,1.8
		c-0.7,0.8-1.2,1.6-1.6,2.7c-0.4,1-0.6,2.2-0.6,3.4s0.2,2.4,0.6,3.4c0.4,1,0.9,1.9,1.6,2.7c0.7,0.8,1.5,1.3,2.5,1.8s2,0.6,3.2,0.6
		c1.1,0,2.1-0.2,3.1-0.7c1-0.5,1.8-1.2,2.5-2.3L84,83z M66.8,80.8h-6.9l3.5-8.9L66.8,80.8z M56.2,86.5h1.5l1.7-4.3h8l1.6,4.3h1.6
		l-6.3-16.2h-1.4L56.2,86.5z M47.5,86.5h1.4v-7.7H56v-1.4h-7.1v-5.8h7.6v-1.4h-9V86.5z M29.4,86.5h9.5v-1.4h-8.1v-6.3h7.3v-1.4h-7.3
		v-5.8h7.8v-1.4h-9.2V86.5z M14,86.5h1.4v-7.7h8.4v7.7h1.4V70.3h-1.4v7.1h-8.4v-7.1H14V86.5z M5.1,86.5h1.4V71.7h5.1v-1.4H0v1.4h5.1
		V86.5z"/>
	<path class="st1" d="M179.5,20.5c0.3,0.3,0.6,0.4,1,0.4s0.7-0.1,1-0.4c0.3-0.3,0.4-0.6,0.4-1c0-0.4-0.1-0.7-0.4-1
		c-0.3-0.3-0.6-0.4-1-0.4s-0.7,0.1-1,0.4c-0.3,0.3-0.4,0.6-0.4,1C179,19.9,179.2,20.2,179.5,20.5 M181.4,0.5h-1.8v14.9h1.8V0.5z
		 M168.4,20.5c0.3,0.3,0.6,0.4,1,0.4c0.4,0,0.7-0.1,1-0.4c0.3-0.3,0.4-0.6,0.4-1c0-0.4-0.1-0.7-0.4-1c-0.3-0.3-0.6-0.4-1-0.4
		c-0.4,0-0.7,0.1-1,0.4c-0.3,0.3-0.4,0.6-0.4,1C168,19.9,168.1,20.2,168.4,20.5 M170.3,0.5h-1.8v14.9h1.8V0.5z M157.4,20.5
		c0.3,0.3,0.6,0.4,1,0.4s0.7-0.1,1-0.4c0.3-0.3,0.4-0.6,0.4-1c0-0.4-0.1-0.7-0.4-1c-0.3-0.3-0.6-0.4-1-0.4s-0.7,0.1-1,0.4
		c-0.3,0.3-0.4,0.6-0.4,1C157,19.9,157.1,20.2,157.4,20.5 M159.3,0.5h-1.8v14.9h1.8V0.5z M138.1,20.7h13.4V19h-11.4v-7.9h10.3V9.4
		h-10.3V2.2H151V0.5h-12.9V20.7z M120.4,20.7h2v-9.6h3.7l5.9,9.6h2.2l-6.1-9.7c0.6-0.1,1.2-0.2,1.8-0.4c0.6-0.2,1.2-0.5,1.7-0.9
		c0.5-0.4,1-0.9,1.3-1.5c0.3-0.6,0.5-1.4,0.5-2.4c0-0.9-0.1-1.6-0.4-2.2c-0.3-0.6-0.7-1.1-1.1-1.5c-0.5-0.4-1-0.7-1.6-0.9
		c-0.6-0.2-1.1-0.4-1.7-0.5c-0.6-0.1-1.1-0.2-1.6-0.2c-0.5,0-0.9,0-1.1,0h-5.5V20.7z M122.4,2.2h4.2c1,0,1.9,0.1,2.5,0.4
		c0.6,0.2,1.1,0.6,1.5,0.9c0.4,0.4,0.6,0.8,0.7,1.2c0.1,0.4,0.2,0.8,0.2,1.1c0,0.3-0.1,0.7-0.2,1.1c-0.1,0.4-0.4,0.8-0.7,1.2
		c-0.4,0.4-0.9,0.7-1.5,0.9c-0.6,0.2-1.5,0.4-2.5,0.4h-4.2V2.2z M102.7,20.7h13.4V19h-11.4v-7.9H115V9.4h-10.3V2.2h10.9V0.5h-12.9
		V20.7z M81.2,20.7h2v-9.6H95v9.6h2V0.5h-2v8.9H83.2V0.5h-2V20.7z M68.8,20.7h2V2.2h7.2V0.5H61.5v1.7h7.2V20.7z M43.9,20.7h2V12
		l7.8-11.5h-2.2l-6.5,9.6l-6.4-9.6h-2.4L43.9,12V20.7z M21.5,20.7h13.4V19H23.5v-7.9h10.3V9.4H23.5V2.2h10.9V0.5H21.5V20.7z M0,20.7
		h2v-9.6h11.8v9.6h2V0.5h-2v8.9H2V0.5H0V20.7z"/>
</g>
<path class="st0" d="M0,58.3h2.3V34.2H0V58.3z M10.6,34.2L8,42h2.5l2.3-7.8H10.6z M39.9,34.2l-9.1,20.2l-9.1-20.2h-3.5v24.1h2.3
	V37.1h0.1l9.7,21.2h1l9.5-21.2h0.1v21.2h2.3V34.2H39.9z"/>
<g>
	<defs>
		<rect id="SVGID_3_" y="0.5" width="182" height="178.5"/>
	</defs>
	<clipPath id="SVGID_4_">
		<use xlink:href="#SVGID_3_"  style="overflow:visible;"/>
	</clipPath>
	<path class="st2" d="M165,59.1h6.3V47.4L182,31.7h-7.5l-6.4,10.3L162,31.7h-7.8L165,47.4V59.1z M139.6,36.8h4.1
		c0.6,0,1.1,0,1.7,0.1c0.6,0.1,1.1,0.2,1.6,0.4c0.5,0.2,0.8,0.5,1.1,1c0.3,0.4,0.4,1,0.4,1.7c0,0.8-0.2,1.3-0.5,1.7
		c-0.3,0.4-0.8,0.7-1.3,0.9c-0.5,0.2-1.1,0.3-1.7,0.3c-0.6,0-1.2,0.1-1.8,0.1h-3.7V36.8z M133.3,59.1h6.3v-11h3.1l6,11h7.6
		l-7.3-11.6c2-0.4,3.6-1.2,4.6-2.6c1-1.4,1.6-3,1.6-5c0-1.6-0.3-2.9-0.9-4c-0.6-1.1-1.4-1.9-2.3-2.6c-1-0.6-2.1-1.1-3.4-1.4
		c-1.3-0.3-2.7-0.4-4.1-0.4h-11.1V59.1z M113.4,36.8h4.1c0.6,0,1.1,0,1.7,0.1c0.6,0.1,1.1,0.2,1.6,0.4s0.8,0.5,1.1,1
		c0.3,0.4,0.4,1,0.4,1.7c0,0.8-0.2,1.3-0.5,1.7c-0.3,0.4-0.8,0.7-1.3,0.9c-0.5,0.2-1.1,0.3-1.7,0.3c-0.6,0-1.2,0.1-1.8,0.1h-3.7
		V36.8z M107.1,59.1h6.3v-11h3.1l6,11h7.6l-7.3-11.6c2-0.4,3.6-1.2,4.6-2.6c1-1.4,1.6-3,1.6-5c0-1.6-0.3-2.9-0.9-4
		c-0.6-1.1-1.4-1.9-2.3-2.6c-1-0.6-2.1-1.1-3.4-1.4c-1.3-0.3-2.7-0.4-4.1-0.4h-11.1V59.1z M81.9,59.1H102v-5.6H88.2V48h12.4v-5.6
		H88.2v-5.1h13.1v-5.6H81.9V59.1z M64,59.1h6.3V37h8.2v-5.4H55.8V37H64V59.1z"/>
	<path class="st2" d="M150.8,178.1h4.9v-29.5h0.1l19.9,29.5h6.2v-35.9H177v29.5h-0.1l-19.7-29.5h-6.4V178.1z M129.2,158v4.6h7.9v10
		c-1.1,0.6-2.4,1.1-3.9,1.4s-3.2,0.5-4.9,0.5c-2,0-3.8-0.4-5.5-1.1c-1.7-0.7-3.2-1.7-4.4-3c-1.2-1.3-2.2-2.8-2.9-4.5
		c-0.7-1.7-1.1-3.6-1.1-5.7c0-2,0.3-3.8,1-5.6s1.6-3.3,2.7-4.5c1.2-1.3,2.6-2.3,4.3-3.1c1.7-0.8,3.5-1.1,5.6-1.1
		c1.8,0,3.6,0.3,5.2,0.8c1.7,0.6,3.2,1.5,4.7,3l3.4-3.7c-1.4-1.5-3.2-2.6-5.3-3.4c-2.1-0.8-4.8-1.2-8.1-1.2c-2.7,0-5.2,0.5-7.5,1.4
		c-2.3,1-4.3,2.3-5.9,4c-1.6,1.7-2.9,3.7-3.8,6c-0.9,2.3-1.4,4.8-1.4,7.5c0,2.5,0.4,4.9,1.3,7.2c0.9,2.3,2.1,4.3,3.7,6
		c1.6,1.7,3.6,3.1,6,4.1c2.4,1,5.1,1.5,8.1,1.5c1.1,0,2.2-0.1,3.5-0.2c1.2-0.1,2.4-0.3,3.6-0.6c1.2-0.3,2.4-0.6,3.5-1
		c1.1-0.4,2.1-0.9,3-1.4V158H129.2z M97.4,178.1h4.9v-35.9h-4.9V178.1z M66.3,174c1.2,1.7,2.9,2.9,4.9,3.8c2.1,0.8,4.2,1.2,6.5,1.2
		c1.7,0,3.3-0.3,4.9-0.8c1.5-0.5,2.8-1.2,3.9-2.2c1.1-0.9,2-2.1,2.7-3.5c0.7-1.4,1-2.9,1-4.7c0-2.2-0.4-3.9-1.3-5.1
		c-0.9-1.2-2-2.2-3.3-2.9c-1.3-0.7-2.7-1.3-4.3-1.7c-1.5-0.4-3-0.9-4.3-1.4c-1.3-0.5-2.4-1.2-3.3-2c-0.9-0.8-1.3-2-1.3-3.5
		c0-0.5,0.1-1.1,0.3-1.8c0.2-0.6,0.6-1.2,1.1-1.8c0.5-0.6,1.3-1,2.2-1.4c0.9-0.4,2-0.5,3.4-0.5c1.4,0,2.7,0.3,3.8,0.9
		c1.1,0.6,2,1.3,2.6,2.3l3.9-3.6c-1.3-1.7-2.9-2.8-4.7-3.3c-1.8-0.5-3.7-0.8-5.6-0.8c-2.2,0-4,0.3-5.5,1c-1.5,0.7-2.8,1.5-3.8,2.5
		c-1,1-1.7,2.1-2.2,3.2c-0.5,1.2-0.7,2.3-0.7,3.3c0,2.3,0.4,4.2,1.3,5.6c0.9,1.4,2,2.5,3.3,3.3c1.3,0.8,2.7,1.4,4.3,1.9
		c1.5,0.5,3,0.9,4.3,1.4c1.3,0.5,2.4,1.1,3.3,1.8c0.9,0.7,1.3,1.8,1.3,3.2c0,1-0.2,1.8-0.7,2.6c-0.4,0.7-1,1.4-1.7,1.9
		c-0.7,0.5-1.5,0.9-2.3,1.1s-1.7,0.4-2.5,0.4c-1.5,0-2.9-0.3-4.2-0.9c-1.4-0.6-2.5-1.6-3.4-2.9L66.3,174z M38.3,178.1h24v-4.6H43.2
		V162h17v-4.6h-17v-10.7h18.3v-4.6H38.3V178.1z M4.9,146.8h7.3c2.9,0,5.3,0.5,7.1,1.4c1.8,1,3.2,2.1,4.3,3.5c1,1.4,1.7,2.8,2.1,4.4
		s0.6,2.9,0.6,4c0,2.2-0.4,4.2-1.2,5.9c-0.8,1.7-1.9,3.1-3.3,4.2c-1.4,1.1-3,2-4.8,2.5c-1.8,0.6-3.8,0.8-5.8,0.8H4.9V146.8z
		 M0,178.1h11.7c3.2,0,6-0.5,8.5-1.5c2.4-1,4.5-2.4,6.1-4c1.7-1.7,2.9-3.6,3.7-5.7c0.8-2.1,1.3-4.4,1.3-6.7c0-1.1-0.1-2.3-0.4-3.7
		c-0.2-1.3-0.6-2.6-1.2-4c-0.5-1.3-1.3-2.6-2.2-3.9c-0.9-1.2-2.1-2.4-3.5-3.3c-1.4-1-3.1-1.7-5-2.3c-1.9-0.6-4.1-0.9-6.7-0.9H0
		V178.1z"/>
</g>
</svg>
