<?xml version="1.0" encoding="utf-8"?>
<!-- Generator: Adobe Illustrator 22.1.0, SVG Export Plug-In . SVG Version: 6.00 Build 0)  -->
<svg version="1.1" id="Layer_1" xmlns="http://www.w3.org/2000/svg" xmlns:xlink="http://www.w3.org/1999/xlink" x="0px" y="0px"
	 viewBox="0 0 350 424" style="enable-background:new 0 0 350 424;" xml:space="preserve">
<style type="text/css">
	.st0{clip-path:url(#SVGID_2_);fill:none;stroke:#1D1D1B;}
	.st1{fill:none;stroke:#1D1D1B;}
	.st2{clip-path:url(#SVGID_4_);fill:none;stroke:#1D1D1B;}
	.st3{clip-path:url(#SVGID_6_);fill:none;stroke:#1D1D1B;}
	.st4{clip-path:url(#SVGID_8_);fill:none;stroke:#1D1D1B;}
	.st5{clip-path:url(#SVGID_10_);fill:none;stroke:#1D1D1B;}
	.st6{clip-path:url(#SVGID_12_);fill:none;stroke:#1D1D1B;}
	.st7{clip-path:url(#SVGID_14_);fill:none;stroke:#1D1D1B;}
</style>
<g>
	<defs>
		<rect id="SVGID_1_" y="0.6" width="349.7" height="423.4"/>
	</defs>
	<clipPath id="SVGID_2_">
		<use xlink:href="#SVGID_1_"  style="overflow:visible;"/>
	</clipPath>
	<path class="st0" d="M46.1,274.8l-2.6-24.8l15.1-24.4l7.5-30.6l6.2-31.6l4.3-38.9l13.1-48.7l20.6-29.4c0,0,27.5-23.6,29.6-25.2
		c2.1-1.5,33-15.8,33-15.8l35-4.4l41.5,9.1L287,24.7l30,27l20.7,37.4l11.4,34.9l-1.3,36l-11,34.2L322.4,222l-24.2,26l-27.6,16.6
		l-51.3,24.9l-34.8,25.5l-19,18.6l-23.1,8.8l-6.9,14.1l-8.2,3.2l-6.2,4.6l1.9,4.4l-6.7,5.3l-1.1,7.2l-2.4,6.3l-6.4,0.5l-2.6,5.2
		l2.6,4.8l-5.5,2.1l-5.5,2.1l-3.5,6.5l-9.2,7.5l-13.9,1.3l-24.2,6L5.5,396.9l0.7-22.4l-5.6-21.9l3.7-2.4l3.3,2.3l2.9-7l-2.1-5.5
		l3.3-4.7l7.2,1.1l1.3-6.1l-4.9-4.4l8.2-3.2l3.1-8.8l-2.9-3l2.1-4.5l5.8,3.1l2.5-9.2l0.7-9.5L46.1,274.8z"/>
</g>
<polyline class="st1" points="141.6,343.6 121.4,329 121.3,328.8 118.5,324.5 113,323.9 88.4,305 75,290 46.2,274.5 "/>
<line class="st1" x1="73.3" y1="250" x2="46.8" y2="273.9"/>
<line class="st1" x1="95.5" y1="275.4" x2="73.7" y2="250.3"/>
<line class="st1" x1="46.4" y1="273.6" x2="95.2" y2="275.9"/>
<line class="st1" x1="87.9" y1="304.6" x2="95.7" y2="275.8"/>
<line class="st1" x1="107.9" y1="289.1" x2="95.1" y2="275.9"/>
<line class="st1" x1="88.4" y1="305" x2="107.5" y2="289.5"/>
<line class="st1" x1="126.3" y1="294.2" x2="107.1" y2="288.9"/>
<line class="st1" x1="88.4" y1="304.9" x2="126.6" y2="293.9"/>
<line class="st1" x1="107.4" y1="320.1" x2="126.6" y2="293.9"/>
<line class="st1" x1="143.8" y1="341.8" x2="126.7" y2="294"/>
<line class="st1" x1="153.4" y1="298.2" x2="126.5" y2="293.7"/>
<line class="st1" x1="143.4" y1="341" x2="153.6" y2="298.4"/>
<line class="st1" x1="165" y1="334.3" x2="153.5" y2="298.5"/>
<line class="st1" x1="107.7" y1="289.6" x2="129.3" y2="271.9"/>
<line class="st1" x1="154.2" y1="298.6" x2="129" y2="271.9"/>
<line class="st1" x1="43.4" y1="253" x2="91" y2="247.6"/>
<line class="st1" x1="58.7" y1="225.3" x2="90.4" y2="246.8"/>
<line class="st1" x1="59" y1="225.1" x2="90.8" y2="206.5"/>
<line class="st1" x1="90.2" y1="247" x2="91" y2="206.4"/>
<line class="st1" x1="90.2" y1="247.2" x2="150.3" y2="265.6"/>
<line class="st1" x1="153.9" y1="298.9" x2="150.7" y2="265.4"/>
<line class="st1" x1="114.9" y1="254.8" x2="129.2" y2="271.8"/>
<line class="st1" x1="114.8" y1="254.7" x2="95.8" y2="275.7"/>
<line class="st1" x1="90.6" y1="247.3" x2="95.5" y2="275.9"/>
<line class="st1" x1="129.6" y1="272.3" x2="95.8" y2="276.2"/>
<line class="st1" x1="164.4" y1="333.7" x2="164.2" y2="290.1"/>
<line class="st1" x1="164.1" y1="289.5" x2="150.6" y2="265"/>
<line class="st1" x1="150.7" y1="265.2" x2="131.5" y2="219.8"/>
<line class="st1" x1="132.6" y1="222.2" x2="123.8" y2="195.2"/>
<line class="st1" x1="123.5" y1="195" x2="109.9" y2="190.8"/>
<line class="st1" x1="109.9" y1="190.4" x2="65.6" y2="195.6"/>
<line class="st1" x1="65.5" y1="195.8" x2="132.6" y2="223.1"/>
<line class="st1" x1="133" y1="222.8" x2="91.1" y2="247.6"/>
<line class="st1" x1="159.9" y1="213" x2="137.6" y2="234.1"/>
<line class="st1" x1="137.5" y1="234.1" x2="172.4" y2="233.3"/>
<line class="st1" x1="160.4" y1="213.3" x2="186.4" y2="258"/>
<line class="st1" x1="186.8" y1="257.9" x2="224.3" y2="259.5"/>
<line class="st1" x1="224" y1="259.2" x2="219.7" y2="289.7"/>
<line class="st1" x1="220" y1="290.1" x2="186.3" y2="258.2"/>
<line class="st1" x1="186.5" y1="258.2" x2="163.7" y2="289.3"/>
<line class="st1" x1="163.7" y1="289.4" x2="184.2" y2="315"/>
<line class="st1" x1="184" y1="315.3" x2="175.3" y2="274"/>
<line class="st1" x1="175.3" y1="273.8" x2="219.9" y2="290.2"/>
<line class="st1" x1="137.8" y1="234.3" x2="186.4" y2="258.7"/>
<line class="st1" x1="132.7" y1="222.3" x2="160.2" y2="212.6"/>
<line class="st1" x1="122.3" y1="194.4" x2="160" y2="213"/>
<line class="st1" x1="109.5" y1="190.3" x2="107.4" y2="212.3"/>
<line class="st1" x1="123.3" y1="195.3" x2="107.5" y2="213.1"/>
<line class="st1" x1="160.1" y1="212.9" x2="197.8" y2="229.2"/>
<line class="st1" x1="198.2" y1="228.9" x2="186" y2="257.4"/>
<line class="st1" x1="198.1" y1="228.9" x2="211.6" y2="248.9"/>
<line class="st1" x1="211.7" y1="249.2" x2="244" y2="277.1"/>
<line class="st1" x1="109.4" y1="190.5" x2="137.2" y2="185.8"/>
<line class="st1" x1="137.8" y1="185.7" x2="165.3" y2="175.5"/>
<line class="st1" x1="165.2" y1="175.8" x2="188.7" y2="166.3"/>
<line class="st1" x1="189" y1="166.2" x2="185.3" y2="210.7"/>
<line class="st1" x1="185.2" y1="211" x2="198.4" y2="228.5"/>
<line class="st1" x1="164.8" y1="175.2" x2="185.8" y2="211.2"/>
<line class="st1" x1="165.8" y1="175.8" x2="186.9" y2="190.6"/>
<line class="st1" x1="137.3" y1="185.8" x2="148.2" y2="207.2"/>
<line class="st1" x1="148" y1="207.4" x2="165.4" y2="175.5"/>
<line class="st1" x1="71.7" y1="164.1" x2="136.9" y2="135"/>
<line class="st1" x1="137.4" y1="135.1" x2="137.8" y2="185.5"/>
<line class="st1" x1="95.7" y1="152.6" x2="137.4" y2="186.2"/>
<line class="st1" x1="94.7" y1="154.1" x2="66.5" y2="194.4"/>
<line class="st1" x1="76.8" y1="124.5" x2="137.3" y2="135.1"/>
<line class="st1" x1="136.9" y1="135.1" x2="155.9" y2="153.3"/>
<line class="st1" x1="155.6" y1="153.8" x2="138.6" y2="184.8"/>
<line class="st1" x1="155.7" y1="153.7" x2="189.1" y2="166.4"/>
<line class="st1" x1="189.2" y1="166.5" x2="221.2" y2="203.5"/>
<line class="st1" x1="220.9" y1="204" x2="186.1" y2="211"/>
<line class="st1" x1="221.3" y1="204.2" x2="211.5" y2="248.9"/>
<line class="st1" x1="216.1" y1="227" x2="270.6" y2="263.5"/>
<line class="st1" x1="216.5" y1="226.5" x2="244.5" y2="277.5"/>
<line class="st1" x1="216.5" y1="226.6" x2="252.3" y2="218"/>
<line class="st1" x1="252.7" y1="217.8" x2="324.1" y2="220.4"/>
<line class="st1" x1="252.9" y1="219.2" x2="297.5" y2="248.7"/>
<line class="st1" x1="252.9" y1="219.3" x2="271.3" y2="264.4"/>
<line class="st1" x1="220.8" y1="203.5" x2="252.9" y2="219.3"/>
<line class="st1" x1="238.9" y1="190.4" x2="220.8" y2="203.8"/>
<line class="st1" x1="239.3" y1="190.7" x2="252.8" y2="217.7"/>
<line class="st1" x1="252.4" y1="218.5" x2="296.8" y2="191.1"/>
<line class="st1" x1="239.4" y1="190.5" x2="296.8" y2="191.2"/>
<line class="st1" x1="297.2" y1="191.4" x2="324.4" y2="220"/>
<line class="st1" x1="297" y1="191.1" x2="335.7" y2="193.5"/>
<line class="st1" x1="239.4" y1="111.1" x2="337" y2="194.3"/>
<line class="st1" x1="240.7" y1="111.4" x2="220.8" y2="203.4"/>
<line class="st1" x1="230.8" y1="157.4" x2="291.2" y2="154.6"/>
<line class="st1" x1="291.3" y1="154.7" x2="296.9" y2="190.6"/>
<line class="st1" x1="230.8" y1="157.3" x2="296.9" y2="191.7"/>
<line class="st1" x1="241.1" y1="111.7" x2="257.5" y2="156.3"/>
<line class="st1" x1="260.3" y1="172" x2="221.2" y2="204.4"/>
<line class="st1" x1="90.3" y1="74.2" x2="129.7" y2="74"/>
<line class="st1" x1="130.1" y1="73.8" x2="76.6" y2="125.6"/>
<line class="st1" x1="109.1" y1="47.3" x2="167.2" y2="120.1"/>
<line class="st1" x1="103.5" y1="99.4" x2="167.2" y2="120.3"/>
<line class="st1" x1="103.6" y1="99.5" x2="147.3" y2="95.8"/>
<line class="st1" x1="109.4" y1="46.8" x2="201.7" y2="95.7"/>
<line class="st1" x1="109.4" y1="46.8" x2="178.4" y2="48.3"/>
<line class="st1" x1="141.3" y1="21.9" x2="178.7" y2="48"/>
<line class="st1" x1="160.2" y1="74.5" x2="167.4" y2="119.7"/>
<line class="st1" x1="201.9" y1="95.3" x2="167.5" y2="119.9"/>
<line class="st1" x1="178.4" y1="47.9" x2="201" y2="94.3"/>
<line class="st1" x1="173.7" y1="5.2" x2="178.7" y2="48.4"/>
<line class="st1" x1="173.8" y1="4.9" x2="216" y2="62.8"/>
<line class="st1" x1="215.7" y1="63.2" x2="178.1" y2="47.9"/>
<line class="st1" x1="215.9" y1="63.3" x2="201.2" y2="95"/>
<line class="st1" x1="142.9" y1="112.3" x2="155.3" y2="153.4"/>
<line class="st1" x1="167.1" y1="119.6" x2="213.6" y2="122.9"/>
<line class="st1" x1="213.8" y1="123" x2="155.6" y2="153.6"/>
<line class="st1" x1="225" y1="80.9" x2="213.3" y2="122.7"/>
<line class="st1" x1="201.6" y1="95.3" x2="224.6" y2="81.1"/>
<line class="st1" x1="213.7" y1="123" x2="272.3" y2="94.1"/>
<line class="st1" x1="225.5" y1="80.6" x2="272.6" y2="94.4"/>
<line class="st1" x1="272.8" y1="94.3" x2="309.1" y2="103"/>
<g>
	<defs>
		<rect id="SVGID_3_" y="0.6" width="349.7" height="423.4"/>
	</defs>
	<clipPath id="SVGID_4_">
		<use xlink:href="#SVGID_3_"  style="overflow:visible;"/>
	</clipPath>
	<line class="st2" x1="309.6" y1="102.6" x2="348.8" y2="127"/>
	<line class="st2" x1="348.5" y1="127.3" x2="329.3" y2="134.4"/>
</g>
<line class="st1" x1="328.7" y1="134.4" x2="293.3" y2="144.3"/>
<line class="st1" x1="292.8" y1="144.3" x2="309.4" y2="103.1"/>
<line class="st1" x1="292.9" y1="144.2" x2="274" y2="140.3"/>
<line class="st1" x1="271.1" y1="93.8" x2="272.6" y2="139.3"/>
<line class="st1" x1="272.8" y1="94.6" x2="293.3" y2="143.7"/>
<line class="st1" x1="328.9" y1="134.6" x2="347.4" y2="160.9"/>
<line class="st1" x1="346.2" y1="162" x2="305.5" y2="167.5"/>
<line class="st1" x1="293.3" y1="144.5" x2="306.8" y2="167"/>
<line class="st1" x1="328.4" y1="134.1" x2="306.6" y2="167.4"/>
<line class="st1" x1="184.1" y1="139.1" x2="225.3" y2="180.2"/>
<line class="st1" x1="239.6" y1="110.6" x2="204.6" y2="158.3"/>
<line class="st1" x1="188.7" y1="165.9" x2="225" y2="180.7"/>
<g>
	<defs>
		<rect id="SVGID_5_" y="0.6" width="349.7" height="423.4"/>
	</defs>
	<clipPath id="SVGID_6_">
		<use xlink:href="#SVGID_5_"  style="overflow:visible;"/>
	</clipPath>
	<line class="st3" x1="208.1" y1="1.4" x2="248.4" y2="68.7"/>
</g>
<line class="st1" x1="241.6" y1="85.5" x2="282.3" y2="61.3"/>
<line class="st1" x1="282.9" y1="61.3" x2="317.3" y2="51.5"/>
<line class="st1" x1="308.9" y1="102.6" x2="250.6" y2="11.2"/>
<line class="st1" x1="250.6" y1="10.7" x2="224.9" y2="28.9"/>
<line class="st1" x1="250.9" y1="10.9" x2="248.3" y2="81.2"/>
<line class="st1" x1="225" y1="80.8" x2="248.9" y2="67.9"/>
<line class="st1" x1="218.7" y1="56.1" x2="247.3" y2="68.2"/>
<line class="st1" x1="219" y1="56.8" x2="215.8" y2="62.9"/>
<line class="st1" x1="287.5" y1="24.5" x2="282.5" y2="61.1"/>
<line class="st1" x1="282.6" y1="61.1" x2="338.7" y2="90.1"/>
<line class="st1" x1="338.2" y1="89.8" x2="309.1" y2="102.8"/>
<g>
	<defs>
		<rect id="SVGID_7_" y="0.6" width="349.7" height="423.4"/>
	</defs>
	<clipPath id="SVGID_8_">
		<use xlink:href="#SVGID_7_"  style="overflow:visible;"/>
	</clipPath>
	<line class="st4" x1="6.7" y1="374.1" x2="44.7" y2="423.5"/>
</g>
<line class="st1" x1="5.2" y1="397.3" x2="69.5" y2="417.6"/>
<line class="st1" x1="7.5" y1="353.7" x2="6.2" y2="374.4"/>
<line class="st1" x1="7.3" y1="353.3" x2="69.9" y2="417.2"/>
<line class="st1" x1="6.6" y1="374.1" x2="92" y2="408.7"/>
<line class="st1" x1="6.9" y1="373.7" x2="68.1" y2="417.2"/>
<line class="st1" x1="40.6" y1="397.9" x2="7.3" y2="353.3"/>
<line class="st1" x1="7.4" y1="353.1" x2="95.8" y2="402.1"/>
<line class="st1" x1="18.4" y1="336.5" x2="44.4" y2="391.2"/>
<line class="st1" x1="10.2" y1="345.9" x2="104" y2="393.3"/>
<line class="st1" x1="40.7" y1="398.1" x2="93.5" y2="308.7"/>
<line class="st1" x1="45.8" y1="275.3" x2="104.1" y2="392.8"/>
<line class="st1" x1="20.2" y1="330.5" x2="121.1" y2="362.8"/>
<line class="st1" x1="31.7" y1="309.8" x2="96" y2="401.5"/>
<line class="st1" x1="20" y1="330.8" x2="140.6" y2="343.7"/>
<line class="st1" x1="93.3" y1="308.9" x2="61.9" y2="307"/>
<line class="st1" x1="31.9" y1="308.2" x2="68.4" y2="320.5"/>
<line class="st1" x1="93.6" y1="308.9" x2="108.4" y2="340"/>
<line class="st1" x1="141.4" y1="343.8" x2="98.5" y2="355.4"/>
<line class="st1" x1="107.9" y1="340.2" x2="98.5" y2="355"/>
<line class="st1" x1="120.1" y1="363.4" x2="95.5" y2="374.3"/>
<line class="st1" x1="113.3" y1="386.9" x2="83.6" y2="350.9"/>
<line class="st1" x1="84.5" y1="351.7" x2="82.1" y2="382.9"/>
<line class="st1" x1="34.8" y1="290.1" x2="68.2" y2="320.2"/>
<line class="st1" x1="61.6" y1="307.3" x2="84.4" y2="323.3"/>
<line class="st1" x1="77.3" y1="336.6" x2="100.4" y2="322.6"/>
<line class="st1" x1="108" y1="340.3" x2="118.6" y2="324.6"/>
<line class="st1" x1="119.9" y1="363.4" x2="127.4" y2="359.8"/>
<line class="st1" x1="120.3" y1="364" x2="126.3" y2="347.9"/>
<line class="st1" x1="135.6" y1="356.4" x2="125.9" y2="347.6"/>
<line class="st1" x1="116.4" y1="373.9" x2="100.9" y2="372"/>
<line class="st1" x1="120.8" y1="363.6" x2="116.4" y2="373.8"/>
<line class="st1" x1="106" y1="387.6" x2="100.6" y2="372.1"/>
<line class="st1" x1="106.1" y1="388" x2="98.6" y2="382"/>
<line class="st1" x1="96" y1="402.1" x2="103.6" y2="392.5"/>
<line class="st1" x1="83.3" y1="416.4" x2="59.2" y2="395.8"/>
<line class="st1" x1="68.7" y1="417.7" x2="79.3" y2="403.6"/>
<line class="st1" x1="82.5" y1="415.9" x2="79.5" y2="404.3"/>
<line class="st1" x1="59.4" y1="395.3" x2="53" y2="399.2"/>
<line class="st1" x1="69.2" y1="416.7" x2="59.5" y2="395.5"/>
<line class="st1" x1="53.3" y1="378.9" x2="60.1" y2="395.7"/>
<line class="st1" x1="95.5" y1="401.9" x2="59.2" y2="395.5"/>
<line class="st1" x1="58" y1="370.4" x2="95.5" y2="401.7"/>
<line class="st1" x1="81.9" y1="381.8" x2="52.7" y2="377.9"/>
<line class="st1" x1="57" y1="369.7" x2="32.4" y2="367.1"/>
<line class="st1" x1="52.6" y1="377.7" x2="9.8" y2="346.4"/>
<line class="st1" x1="12.3" y1="336.1" x2="11" y2="346.5"/>
<line class="st1" x1="8.8" y1="340.5" x2="18.3" y2="336.8"/>
<line class="st1" x1="18.8" y1="337.2" x2="10.9" y2="346.4"/>
<g>
	<defs>
		<rect id="SVGID_9_" y="0.6" width="349.7" height="423.4"/>
	</defs>
	<clipPath id="SVGID_10_">
		<use xlink:href="#SVGID_9_"  style="overflow:visible;"/>
	</clipPath>
	<line class="st5" x1="7" y1="353.6" x2="0.2" y2="352.6"/>
</g>
<line class="st1" x1="7.1" y1="374.1" x2="16.5" y2="365.7"/>
<line class="st1" x1="6.1" y1="398" x2="16.6" y2="386.7"/>
<line class="st1" x1="40.6" y1="398.1" x2="30.6" y2="405.8"/>
<g>
	<defs>
		<rect id="SVGID_11_" y="0.6" width="349.7" height="423.4"/>
	</defs>
	<clipPath id="SVGID_12_">
		<use xlink:href="#SVGID_11_"  style="overflow:visible;"/>
	</clipPath>
	<line class="st6" x1="44.6" y1="423.5" x2="50" y2="412"/>
</g>
<line class="st1" x1="31.3" y1="406.3" x2="25.5" y2="410.6"/>
<line class="st1" x1="39.8" y1="398.1" x2="19" y2="390.2"/>
<line class="st1" x1="49.9" y1="411.8" x2="39.9" y2="398.1"/>
<line class="st1" x1="60" y1="395.7" x2="67.5" y2="386.6"/>
<line class="st1" x1="26.9" y1="353.7" x2="54.1" y2="341.1"/>
<line class="st1" x1="19.8" y1="330.9" x2="26.7" y2="353"/>
<line class="st1" x1="19.2" y1="336.4" x2="53.9" y2="341.5"/>
<line class="st1" x1="53.8" y1="342.2" x2="57.4" y2="369.8"/>
<line class="st1" x1="40.8" y1="361.3" x2="53.4" y2="341.5"/>
<line class="st1" x1="84.1" y1="351.4" x2="65.1" y2="356.4"/>
<line class="st1" x1="67.6" y1="320.4" x2="48.8" y2="334.1"/>
<line class="st1" x1="23.1" y1="322.5" x2="48.2" y2="334"/>
<line class="st1" x1="31.7" y1="309.7" x2="35.4" y2="328"/>
<line class="st1" x1="31.3" y1="310.5" x2="26.8" y2="314.2"/>
<line class="st1" x1="30.8" y1="311.1" x2="23.8" y2="323.1"/>
<line class="st1" x1="74.7" y1="289.6" x2="61.8" y2="307.4"/>
<line class="st1" x1="67.9" y1="320.5" x2="40.4" y2="321.6"/>
<line class="st1" x1="46.7" y1="276" x2="45.5" y2="299.2"/>
<line class="st1" x1="32.4" y1="308.3" x2="46.1" y2="299.8"/>
<line class="st1" x1="93.3" y1="308.7" x2="72.9" y2="315.7"/>
<line class="st1" x1="83.9" y1="323.5" x2="67" y2="319.6"/>
<line class="st1" x1="100.2" y1="323.8" x2="83.7" y2="350.4"/>
<line class="st1" x1="107.6" y1="340.4" x2="82.7" y2="351.2"/>
<line class="st1" x1="100.1" y1="323.2" x2="118.5" y2="324.3"/>
<g>
	<defs>
		<rect id="SVGID_13_" y="0.6" width="349.7" height="423.4"/>
	</defs>
	<clipPath id="SVGID_14_">
		<use xlink:href="#SVGID_13_"  style="overflow:visible;"/>
	</clipPath>
	<line class="st7" x1="208" y1="1.4" x2="218.6" y2="56.7"/>
</g>
<line class="st1" x1="174" y1="5.3" x2="218.7" y2="56.7"/>
</svg>
