<?xml version="1.0" encoding="utf-8"?>
<!-- Generator: Adobe Illustrator 22.1.0, SVG Export Plug-In . SVG Version: 6.00 Build 0)  -->
<svg version="1.1" id="Layer_1" xmlns="http://www.w3.org/2000/svg" xmlns:xlink="http://www.w3.org/1999/xlink" x="0px" y="0px"
	 viewBox="0 0 182 133" style="enable-background:new 0 0 182 133;" xml:space="preserve">
<style type="text/css">
	.st0{clip-path:url(#SVGID_2_);fill:#1D1D1B;}
</style>
<g>
	<defs>
		<rect id="SVGID_1_" y="0.6" width="182" height="132.4"/>
	</defs>
	<clipPath id="SVGID_2_">
		<use xlink:href="#SVGID_1_"  style="overflow:visible;"/>
	</clipPath>
	<path class="st0" d="M173.2,81c0.4,0.4,1,0.7,1.6,0.7c0.6,0,1.1-0.2,1.6-0.7c0.4-0.4,0.7-1,0.7-1.6c0-0.6-0.2-1.1-0.7-1.6
		c-0.4-0.4-1-0.7-1.6-0.7c-0.6,0-1.1,0.2-1.6,0.7c-0.4,0.4-0.7,1-0.7,1.6C172.6,80,172.8,80.5,173.2,81 M176.5,74.7v-1.5
		c0-0.5,0-0.9,0.1-1.2c0-0.3,0.1-0.6,0.3-0.9c0.1-0.3,0.3-0.5,0.5-0.7c0.2-0.2,0.5-0.5,0.9-0.9l0.3-0.3l2-2.1
		c0.5-0.6,0.8-1.2,1.1-1.8s0.4-1.4,0.4-2.3c0-1-0.2-1.9-0.5-2.7c-0.4-0.8-0.8-1.4-1.4-2c-0.6-0.5-1.3-0.9-2.2-1.2
		c-0.8-0.3-1.7-0.4-2.7-0.4c-2,0-3.7,0.6-5,1.7c-1.4,1.1-2.2,2.7-2.5,4.6l3.5,0.3c0.1-1.1,0.5-2.1,1.2-2.8c0.7-0.7,1.6-1.1,2.7-1.1
		c0.5,0,1,0.1,1.4,0.3c0.4,0.2,0.8,0.4,1.1,0.7c0.3,0.3,0.6,0.7,0.8,1.1c0.2,0.4,0.3,0.9,0.3,1.4c0,0.5-0.1,1-0.3,1.4
		c-0.2,0.4-0.4,0.8-0.7,1.2c-0.3,0.4-0.6,0.7-1,1.1c-0.4,0.4-0.7,0.7-1.1,1c-0.5,0.4-0.8,0.8-1.1,1.1c-0.3,0.3-0.6,0.6-0.7,1
		c-0.2,0.3-0.3,0.7-0.4,1.1c-0.1,0.4-0.1,0.9-0.1,1.5v2.1H176.5z M148.3,78.7c0.8,1.1,1.9,2,3.3,2.5c1.4,0.5,2.8,0.8,4.4,0.8
		c1.2,0,2.2-0.2,3.3-0.5c1-0.3,1.9-0.8,2.7-1.5c0.7-0.6,1.3-1.4,1.8-2.3c0.4-0.9,0.7-2,0.7-3.1c0-1.5-0.3-2.6-0.9-3.4
		s-1.3-1.5-2.2-2c-0.9-0.5-1.8-0.9-2.9-1.1c-1-0.3-2-0.6-2.9-0.9c-0.9-0.3-1.6-0.8-2.2-1.3c-0.6-0.5-0.9-1.3-0.9-2.3
		c0-0.4,0.1-0.8,0.2-1.2c0.1-0.4,0.4-0.8,0.8-1.2c0.4-0.4,0.8-0.7,1.4-0.9c0.6-0.2,1.4-0.4,2.3-0.4c1,0,1.8,0.2,2.6,0.6
		c0.7,0.4,1.3,0.9,1.7,1.5l2.7-2.4c-0.9-1.1-2-1.8-3.2-2.2c-1.2-0.4-2.5-0.5-3.8-0.5c-1.5,0-2.7,0.2-3.7,0.7c-1,0.4-1.9,1-2.5,1.7
		c-0.7,0.7-1.1,1.4-1.4,2.2c-0.3,0.8-0.5,1.5-0.5,2.2c0,1.6,0.3,2.8,0.9,3.7c0.6,0.9,1.3,1.7,2.2,2.2c0.9,0.5,1.8,1,2.9,1.3
		c1,0.3,2,0.6,2.9,1c0.9,0.3,1.6,0.7,2.2,1.2c0.6,0.5,0.9,1.2,0.9,2.1c0,0.7-0.1,1.2-0.4,1.7c-0.3,0.5-0.7,0.9-1.1,1.3
		c-0.5,0.3-1,0.6-1.5,0.8c-0.6,0.2-1.1,0.3-1.7,0.3c-1,0-1.9-0.2-2.8-0.6c-0.9-0.4-1.7-1.1-2.3-2L148.3,78.7z M135.7,81.4h3.3v-21
		h7.8v-3.1H128v3.1h7.8V81.4z M126.2,60.5c-1-1.3-2.2-2.2-3.8-2.8c-1.5-0.6-3.1-0.9-4.7-0.9c-1.9,0-3.6,0.3-5.1,1
		c-1.5,0.6-2.9,1.5-4,2.7c-1.1,1.1-2,2.5-2.6,4.1c-0.6,1.6-0.9,3.3-0.9,5.2c0,1.5,0.3,3,0.9,4.5c0.6,1.5,1.4,2.8,2.5,4
		c1.1,1.2,2.4,2.1,3.9,2.9c1.5,0.7,3.3,1.1,5.2,1.1c1.4,0,2.6-0.2,3.7-0.5c1.1-0.4,2-0.8,2.7-1.2c0.7-0.5,1.3-0.9,1.8-1.4
		c0.5-0.5,0.8-0.8,1-1.1l-2.8-2.1c-0.7,1-1.6,1.8-2.7,2.4c-1,0.6-2.3,0.9-3.6,0.9c-1.4,0-2.7-0.2-3.8-0.7c-1.1-0.5-2.1-1.2-2.8-2
		c-0.8-0.9-1.4-1.9-1.8-3c-0.4-1.1-0.6-2.3-0.6-3.6c0-1.4,0.2-2.6,0.6-3.8c0.4-1.2,1-2.2,1.8-3.1s1.7-1.6,2.8-2.1
		c1.1-0.5,2.3-0.8,3.7-0.8c1.1,0,2.2,0.2,3.2,0.7c1,0.5,1.9,1.2,2.6,2L126.2,60.5z M85.9,81.4h16.2v-3.1H89.2v-7.7h11.4v-3.1H89.2
		v-7.2h12.3v-3.1H85.9V81.4z M77,73.5c0,0.7,0,1.4-0.1,2c-0.1,0.7-0.3,1.2-0.5,1.8c-0.3,0.5-0.7,0.9-1.1,1.2c-0.5,0.3-1.1,0.5-2,0.5
		c-0.9,0-1.6-0.3-2.2-0.8c-0.6-0.5-0.9-1.2-1.1-2.1l-3.2,0.7c0.3,1.8,1.1,3.1,2.2,4s2.6,1.3,4.3,1.3c0.7,0,1.4-0.1,2.2-0.3
		s1.6-0.6,2.3-1.2c0.7-0.6,1.3-1.3,1.8-2.3c0.5-1,0.7-2.2,0.7-3.7V57.3H77V73.5z M48.5,78.2c-1.1-0.5-2.1-1.2-2.9-2.1
		c-0.8-0.9-1.4-1.9-1.8-3c-0.4-1.2-0.6-2.4-0.6-3.7c0-1.3,0.2-2.6,0.6-3.7c0.4-1.2,1-2.2,1.8-3c0.8-0.9,1.7-1.5,2.9-2.1
		c1.1-0.5,2.4-0.8,3.7-0.8c1.4,0,2.6,0.3,3.7,0.8c1.1,0.5,2.1,1.2,2.9,2.1c0.8,0.9,1.4,1.9,1.8,3c0.4,1.2,0.6,2.4,0.6,3.7
		c0,1.3-0.2,2.6-0.6,3.7c-0.4,1.2-1,2.2-1.8,3C58,77,57.1,77.7,56,78.2S53.6,79,52.2,79C50.8,79,49.6,78.7,48.5,78.2 M57.3,81.1
		c1.5-0.6,2.9-1.5,4-2.7c1.1-1.1,2-2.5,2.6-4c0.6-1.5,0.9-3.2,0.9-5c0-1.8-0.3-3.5-0.9-5c-0.6-1.5-1.5-2.9-2.6-4
		c-1.1-1.1-2.4-2-4-2.7c-1.5-0.6-3.2-1-5.1-1s-3.5,0.3-5.1,1c-1.5,0.6-2.9,1.5-4,2.7c-1.1,1.1-2,2.5-2.6,4c-0.6,1.5-0.9,3.2-0.9,5
		c0,1.8,0.3,3.5,0.9,5c0.6,1.5,1.5,2.9,2.6,4c1.1,1.1,2.4,2,4,2.7c1.5,0.6,3.2,1,5.1,1S55.8,81.7,57.3,81.1 M23.6,60.2h4.3
		c0.6,0,1.3,0.1,1.9,0.2c0.6,0.1,1.2,0.3,1.7,0.6c0.5,0.3,0.9,0.7,1.2,1.2c0.3,0.5,0.4,1.2,0.4,2s-0.1,1.5-0.4,2
		c-0.3,0.5-0.7,0.9-1.2,1.2c-0.5,0.3-1,0.5-1.7,0.6c-0.6,0.1-1.3,0.2-1.9,0.2h-4.3V60.2z M20.4,81.4h3.3V70.8h3.6l6.1,10.6h4.1
		l-6.8-11c0.9-0.1,1.7-0.3,2.5-0.7c0.7-0.4,1.4-0.9,1.9-1.5c0.5-0.6,0.9-1.2,1.2-1.9c0.3-0.7,0.4-1.5,0.4-2.2c0-0.7-0.1-1.5-0.3-2.3
		c-0.2-0.8-0.6-1.5-1.2-2.2c-0.6-0.6-1.4-1.2-2.4-1.6s-2.3-0.6-3.8-0.6h-8.5V81.4z M3.4,60.2h4.3c0.6,0,1.3,0.1,1.9,0.2
		c0.6,0.1,1.2,0.3,1.7,0.6c0.5,0.3,0.9,0.7,1.2,1.2c0.3,0.5,0.4,1.2,0.4,2s-0.1,1.5-0.4,2c-0.3,0.5-0.7,0.9-1.2,1.2
		c-0.5,0.3-1,0.5-1.7,0.6C9,67.9,8.4,68,7.7,68H3.4V60.2z M0.2,81.4h3.3V70.8h5.2c1.5,0,2.8-0.2,3.8-0.6c1-0.4,1.8-1,2.4-1.6
		c0.6-0.6,1-1.4,1.2-2.2c0.2-0.8,0.3-1.6,0.3-2.3s-0.1-1.5-0.3-2.3c-0.2-0.8-0.6-1.5-1.2-2.2c-0.6-0.6-1.4-1.2-2.4-1.6
		s-2.3-0.6-3.8-0.6H0.2V81.4z"/>
	<path class="st0" d="M176.4,47.9c0.2,0.2,0.5,0.3,0.8,0.3c0.3,0,0.6-0.1,0.8-0.3c0.2-0.2,0.3-0.5,0.3-0.8c0-0.3-0.1-0.6-0.3-0.8
		c-0.2-0.2-0.5-0.3-0.8-0.3c-0.3,0-0.6,0.1-0.8,0.3c-0.2,0.2-0.3,0.5-0.3,0.8C176.1,47.4,176.2,47.7,176.4,47.9 M176.5,43.5h1.5
		v-1.6c0-0.6,0.1-1.1,0.3-1.5c0.2-0.4,0.4-0.8,0.7-1.1c0.3-0.3,0.6-0.6,1-0.9c0.3-0.3,0.7-0.6,1-1c0.3-0.4,0.5-0.8,0.7-1.3
		c0.2-0.5,0.3-1.1,0.3-1.8c0-0.7-0.1-1.3-0.3-1.8c-0.2-0.5-0.6-1-1-1.3c-0.4-0.4-0.9-0.6-1.5-0.8c-0.6-0.2-1.2-0.3-1.8-0.3
		c-1.2,0-2.3,0.4-3.2,1.1c-0.9,0.7-1.4,1.7-1.7,3l1.6,0.2c0.2-0.9,0.6-1.6,1.1-2.1c0.6-0.5,1.3-0.8,2.2-0.8c0.9,0,1.6,0.3,2.1,0.8
		c0.5,0.6,0.8,1.3,0.8,2.2c0,0.5-0.1,1-0.3,1.4c-0.2,0.4-0.4,0.8-0.7,1.1c-0.3,0.3-0.6,0.7-0.9,1c-0.3,0.3-0.6,0.6-0.9,0.9
		s-0.5,0.7-0.7,1.1c-0.2,0.4-0.3,0.9-0.3,1.4V43.5z M158.9,45.9c0.7,1,1.5,1.6,2.5,2.1c1,0.4,2,0.6,3.2,0.6c0.7,0,1.4-0.1,2.1-0.3
		c0.7-0.2,1.2-0.5,1.8-1c0.5-0.4,0.9-0.9,1.2-1.6c0.3-0.6,0.4-1.3,0.4-2.1c0-1.1-0.2-2-0.7-2.6c-0.4-0.6-1-1.1-1.7-1.5
		c-0.7-0.3-1.4-0.6-2.2-0.8c-0.8-0.2-1.5-0.4-2.2-0.7c-0.7-0.3-1.2-0.6-1.7-1.1c-0.4-0.5-0.7-1.1-0.7-2c0-0.6,0.1-1.1,0.3-1.5
		c0.2-0.4,0.5-0.8,0.9-1c0.4-0.3,0.8-0.5,1.3-0.6c0.5-0.1,1-0.2,1.5-0.2c0.8,0,1.4,0.1,2,0.4c0.6,0.3,1,0.7,1.5,1.3l1.4-1
		c-0.6-0.8-1.3-1.4-2.1-1.7c-0.8-0.3-1.7-0.5-2.7-0.5c-0.7,0-1.5,0.1-2.1,0.3c-0.7,0.2-1.3,0.5-1.8,0.9s-0.9,0.9-1.2,1.5
		c-0.3,0.6-0.5,1.3-0.5,2.1c0,0.8,0.1,1.5,0.4,2.1c0.3,0.6,0.6,1,1,1.4s0.9,0.7,1.5,0.9c0.5,0.2,1.1,0.4,1.7,0.6
		c0.6,0.2,1.1,0.4,1.7,0.5c0.5,0.2,1,0.4,1.5,0.7c0.4,0.3,0.8,0.6,1,1c0.3,0.4,0.4,0.9,0.4,1.5c0,0.5-0.1,1-0.3,1.4
		c-0.2,0.4-0.5,0.8-0.8,1.1c-0.4,0.3-0.8,0.5-1.3,0.7c-0.5,0.2-1,0.2-1.5,0.2c-0.9,0-1.7-0.2-2.4-0.5c-0.7-0.4-1.2-0.9-1.7-1.7
		L158.9,45.9z M140.7,48.1h1.6V32.7h0.1l10.7,15.4h2.1V30.5h-1.6v15.4h0l-10.7-15.4h-2.1V48.1z M120.9,36.2c0.3-0.9,0.8-1.8,1.5-2.5
		c0.6-0.7,1.4-1.2,2.3-1.6c0.9-0.4,2-0.6,3.1-0.6s2.2,0.2,3.1,0.6c0.9,0.4,1.7,0.9,2.3,1.6c0.6,0.7,1.1,1.5,1.5,2.5
		c0.3,0.9,0.5,2,0.5,3.1s-0.2,2.1-0.5,3.1c-0.3,0.9-0.8,1.8-1.5,2.5c-0.6,0.7-1.4,1.2-2.3,1.6c-0.9,0.4-2,0.6-3.1,0.6
		s-2.2-0.2-3.1-0.6c-0.9-0.4-1.7-0.9-2.3-1.6c-0.6-0.7-1.1-1.5-1.5-2.5c-0.3-0.9-0.5-2-0.5-3.1S120.6,37.2,120.9,36.2 M119.4,43
		c0.4,1.1,1.1,2.1,1.9,2.9c0.8,0.8,1.8,1.5,2.9,1.9c1.1,0.5,2.3,0.7,3.7,0.7c1.3,0,2.6-0.2,3.7-0.7c1.1-0.5,2.1-1.1,2.9-1.9
		c0.8-0.8,1.4-1.8,1.9-2.9c0.4-1.1,0.7-2.4,0.7-3.7c0-1.3-0.2-2.6-0.7-3.7c-0.4-1.1-1.1-2.1-1.9-2.9c-0.8-0.8-1.8-1.5-2.9-1.9
		c-1.1-0.5-2.3-0.7-3.7-0.7c-1.3,0-2.6,0.2-3.7,0.7c-1.1,0.5-2.1,1.1-2.9,1.9c-0.8,0.8-1.4,1.8-1.9,2.9c-0.4,1.1-0.7,2.4-0.7,3.7
		C118.8,40.6,119,41.9,119.4,43 M113.5,48.1h1.6V30.5h-1.6V48.1z M103.1,48.1h1.6V32h6v-1.5H97.1V32h6V48.1z M84.3,45.9
		c0.7,1,1.5,1.6,2.5,2.1c1,0.4,2,0.6,3.2,0.6c0.7,0,1.4-0.1,2.1-0.3c0.7-0.2,1.2-0.5,1.8-1c0.5-0.4,0.9-0.9,1.2-1.6
		c0.3-0.6,0.4-1.3,0.4-2.1c0-1.1-0.2-2-0.7-2.6c-0.4-0.6-1-1.1-1.7-1.5c-0.7-0.3-1.4-0.6-2.2-0.8c-0.8-0.2-1.5-0.4-2.2-0.7
		c-0.7-0.3-1.2-0.6-1.7-1.1c-0.4-0.5-0.7-1.1-0.7-2c0-0.6,0.1-1.1,0.3-1.5c0.2-0.4,0.5-0.8,0.9-1c0.4-0.3,0.8-0.5,1.3-0.6
		c0.5-0.1,1-0.2,1.5-0.2c0.8,0,1.4,0.1,2,0.4s1,0.7,1.5,1.3l1.4-1c-0.6-0.8-1.3-1.4-2.1-1.7c-0.8-0.3-1.7-0.5-2.7-0.5
		c-0.7,0-1.5,0.1-2.1,0.3c-0.7,0.2-1.3,0.5-1.8,0.9c-0.5,0.4-0.9,0.9-1.2,1.5c-0.3,0.6-0.5,1.3-0.5,2.1c0,0.8,0.1,1.5,0.4,2.1
		c0.3,0.6,0.6,1,1,1.4c0.4,0.4,0.9,0.7,1.5,0.9c0.5,0.2,1.1,0.4,1.7,0.6c0.6,0.2,1.1,0.4,1.7,0.5c0.5,0.2,1,0.4,1.5,0.7
		c0.4,0.3,0.8,0.6,1,1c0.3,0.4,0.4,0.9,0.4,1.5c0,0.5-0.1,1-0.3,1.4c-0.2,0.4-0.5,0.8-0.8,1.1c-0.4,0.3-0.8,0.5-1.3,0.7
		c-0.5,0.2-1,0.2-1.5,0.2c-0.9,0-1.7-0.2-2.3-0.5c-0.7-0.4-1.2-0.9-1.7-1.7L84.3,45.9z M70.6,48.1h11.2v-1.5h-9.5v-6.9h8.6v-1.5
		h-8.6V32h9.1v-1.5H70.6V48.1z M65.8,38.6h-5.9v1.5h4.2V46c-0.7,0.4-1.4,0.7-2.3,0.8C61.1,47,60.2,47,59.2,47
		c-1.1,0-2.2-0.2-3.1-0.6c-0.9-0.4-1.7-0.9-2.3-1.6c-0.6-0.7-1.1-1.5-1.5-2.5c-0.3-0.9-0.5-2-0.5-3.1s0.2-2.1,0.5-3.1
		c0.3-0.9,0.8-1.8,1.5-2.5c0.6-0.7,1.4-1.2,2.3-1.6c0.9-0.4,2-0.6,3.1-0.6c0.5,0,1,0.1,1.5,0.2c0.5,0.1,1,0.3,1.4,0.4
		c0.5,0.2,0.9,0.4,1.3,0.7c0.4,0.3,0.7,0.6,1,0.9l1.2-1.2C64,30.8,61.8,30,59.2,30c-1.3,0-2.6,0.2-3.7,0.7c-1.1,0.5-2.1,1.1-2.9,1.9
		c-0.8,0.8-1.4,1.8-1.9,2.9c-0.4,1.1-0.7,2.4-0.7,3.7c0,1.3,0.2,2.6,0.7,3.7c0.4,1.1,1.1,2.1,1.9,2.9c0.8,0.8,1.8,1.5,2.9,1.9
		c1.1,0.5,2.3,0.7,3.7,0.7c1.1,0,2.3-0.1,3.4-0.4c1.1-0.2,2.2-0.7,3.2-1.2V38.6z M46.4,38.6h-5.9v1.5h4.2V46
		c-0.7,0.4-1.4,0.7-2.3,0.8C41.7,47,40.8,47,39.9,47c-1.1,0-2.2-0.2-3.1-0.6c-0.9-0.4-1.7-0.9-2.3-1.6c-0.6-0.7-1.1-1.5-1.5-2.5
		c-0.3-0.9-0.5-2-0.5-3.1s0.2-2.1,0.5-3.1s0.8-1.8,1.5-2.5c0.6-0.7,1.4-1.2,2.3-1.6c0.9-0.4,2-0.6,3.1-0.6c0.5,0,1,0.1,1.5,0.2
		c0.5,0.1,1,0.3,1.4,0.4c0.5,0.2,0.9,0.4,1.3,0.7c0.4,0.3,0.7,0.6,1,0.9l1.2-1.2c-1.6-1.6-3.7-2.4-6.3-2.4c-1.3,0-2.6,0.2-3.7,0.7
		c-1.1,0.5-2.1,1.1-2.9,1.9c-0.8,0.8-1.4,1.8-1.9,2.9c-0.4,1.1-0.7,2.4-0.7,3.7c0,1.3,0.2,2.6,0.7,3.7c0.4,1.1,1.1,2.1,1.9,2.9
		c0.8,0.8,1.8,1.5,2.9,1.9c1.1,0.5,2.3,0.7,3.7,0.7c1.1,0,2.3-0.1,3.4-0.4c1.1-0.2,2.2-0.7,3.2-1.2V38.6z M27.4,30.5h-1.6v10.4
		c0,0.6-0.1,1.3-0.2,2c-0.1,0.7-0.3,1.4-0.7,2c-0.3,0.6-0.8,1.1-1.4,1.5C22.9,46.8,22,47,21,47c-1,0-1.9-0.2-2.5-0.6
		c-0.6-0.4-1.1-0.9-1.4-1.5c-0.3-0.6-0.6-1.3-0.7-2c-0.1-0.7-0.2-1.4-0.2-2V30.5h-1.6v10.9c0,0.9,0.1,1.8,0.3,2.7
		c0.2,0.9,0.6,1.6,1.1,2.3c0.5,0.7,1.2,1.2,2,1.6c0.8,0.4,1.8,0.6,3,0.6c1.2,0,2.2-0.2,3-0.6c0.8-0.4,1.5-0.9,2-1.6
		c0.5-0.7,0.9-1.4,1.1-2.3s0.3-1.8,0.3-2.7V30.5z M0,45.9c0.7,1,1.5,1.6,2.5,2.1s2,0.6,3.2,0.6c0.7,0,1.4-0.1,2.1-0.3
		c0.7-0.2,1.2-0.5,1.8-1c0.5-0.4,0.9-0.9,1.2-1.6c0.3-0.6,0.4-1.3,0.4-2.1c0-1.1-0.2-2-0.7-2.6c-0.4-0.6-1-1.1-1.7-1.5
		c-0.7-0.3-1.4-0.6-2.2-0.8S5.1,38.3,4.5,38c-0.7-0.3-1.2-0.6-1.7-1.1c-0.4-0.5-0.7-1.1-0.7-2c0-0.6,0.1-1.1,0.3-1.5
		c0.2-0.4,0.5-0.8,0.9-1c0.4-0.3,0.8-0.5,1.3-0.6s1-0.2,1.5-0.2c0.8,0,1.4,0.1,2,0.4c0.6,0.3,1,0.7,1.5,1.3l1.4-1
		c-0.6-0.8-1.3-1.4-2.1-1.7C8,30.2,7.1,30,6.1,30c-0.7,0-1.5,0.1-2.1,0.3c-0.7,0.2-1.3,0.5-1.8,0.9c-0.5,0.4-0.9,0.9-1.2,1.5
		c-0.3,0.6-0.5,1.3-0.5,2.1c0,0.8,0.1,1.5,0.4,2.1c0.3,0.6,0.6,1,1,1.4c0.4,0.4,0.9,0.7,1.5,0.9c0.5,0.2,1.1,0.4,1.7,0.6
		s1.1,0.4,1.7,0.5c0.5,0.2,1,0.4,1.5,0.7c0.4,0.3,0.8,0.6,1,1c0.3,0.4,0.4,0.9,0.4,1.5c0,0.5-0.1,1-0.3,1.4
		c-0.2,0.4-0.5,0.8-0.8,1.1c-0.4,0.3-0.8,0.5-1.3,0.7C6.7,47,6.1,47,5.6,47c-0.9,0-1.7-0.2-2.3-0.5c-0.7-0.4-1.2-0.9-1.7-1.7L0,45.9
		z"/>
	<path class="st0" d="M173.6,20.2c0.1,0.3,0.3,0.5,0.5,0.7c0.2,0.2,0.5,0.3,0.7,0.5c0.3,0.1,0.6,0.2,0.9,0.2c0.6,0,1.2-0.2,1.6-0.7
		c0.4-0.4,0.7-1,0.7-1.6c0-0.6-0.2-1.1-0.7-1.5c-0.5-0.4-1-0.6-1.6-0.6c-0.6,0-1.2,0.2-1.6,0.7c-0.4,0.4-0.7,1-0.7,1.6
		C173.4,19.6,173.4,19.9,173.6,20.2 M177.4,15.4v-1.1c0-0.4,0-0.7,0.1-0.9c0.1-0.3,0.1-0.5,0.3-0.7c0.1-0.2,0.3-0.4,0.5-0.6
		c0.2-0.2,0.4-0.4,0.7-0.7c0.4-0.4,0.8-0.8,1.2-1.1c0.4-0.4,0.7-0.7,1-1.1c0.3-0.4,0.5-0.8,0.7-1.3c0.2-0.5,0.3-1,0.3-1.7
		c0-0.9-0.2-1.7-0.5-2.4c-0.3-0.7-0.7-1.3-1.3-1.7c-0.5-0.5-1.2-0.8-1.9-1.1c-0.7-0.2-1.5-0.4-2.4-0.4c-0.9,0-1.8,0.1-2.5,0.4
		c-0.8,0.3-1.4,0.6-2,1.1c-0.6,0.5-1.1,1.1-1.4,1.8c-0.4,0.7-0.6,1.5-0.7,2.4l3.7,0.3c0.1-0.8,0.4-1.4,0.9-2c0.5-0.5,1.2-0.8,2-0.8
		c0.7,0,1.4,0.2,1.8,0.7c0.5,0.5,0.7,1.1,0.7,1.8c0,0.8-0.2,1.4-0.7,1.9l-2.2,2.2c-0.3,0.3-0.5,0.6-0.7,0.8s-0.4,0.4-0.5,0.7
		c-0.1,0.2-0.2,0.5-0.3,0.8c0,0.3-0.1,0.7-0.1,1.1v1.6H177.4z M166.4,2.7c-0.8-0.7-1.7-1.3-2.7-1.6c-1-0.3-2-0.5-3.1-0.5
		c-0.9,0-1.8,0.1-2.7,0.4c-0.9,0.2-1.7,0.6-2.4,1.1c-0.7,0.5-1.3,1.1-1.7,1.9c-0.4,0.8-0.6,1.7-0.6,2.7c0,1.2,0.2,2.2,0.7,2.9
		c0.5,0.7,1.1,1.3,1.8,1.7c0.7,0.4,1.5,0.8,2.3,1c0.8,0.2,1.6,0.5,2.3,0.8c0.7,0.3,1.3,0.6,1.8,1c0.5,0.4,0.7,1,0.7,1.7
		c0,0.5-0.1,0.9-0.3,1.2s-0.5,0.6-0.8,0.9c-0.3,0.2-0.7,0.4-1.1,0.5c-0.4,0.1-0.8,0.2-1.3,0.2c-0.8,0-1.6-0.2-2.3-0.6
		c-0.7-0.4-1.3-0.9-1.7-1.6l-2.7,2.6c0.8,1,1.8,1.7,3,2.1c1.2,0.4,2.4,0.6,3.6,0.6c1,0,1.9-0.1,2.8-0.4c0.9-0.3,1.7-0.7,2.4-1.2
		c0.7-0.5,1.2-1.2,1.6-2c0.4-0.8,0.6-1.8,0.6-2.8c0-1.2-0.2-2.2-0.7-2.9c-0.5-0.7-1.1-1.3-1.8-1.7c-0.7-0.4-1.5-0.8-2.3-1
		c-0.8-0.2-1.6-0.5-2.3-0.8c-0.7-0.3-1.3-0.6-1.8-0.9c-0.5-0.4-0.7-0.9-0.7-1.6c0-0.5,0.1-0.9,0.3-1.2c0.2-0.3,0.4-0.6,0.8-0.8
		c0.3-0.2,0.7-0.4,1.1-0.5s0.8-0.1,1.2-0.1c0.7,0,1.4,0.1,2,0.4c0.6,0.3,1.1,0.7,1.5,1.2L166.4,2.7z M141.6,21.3h3.6v-17h6.2V1.1
		h-16v3.3h6.2V21.3z M114.7,21.3h3.6V5.8h0.1l10,15.5h4.6V1.1h-3.6v15h-0.1l-9.8-15h-4.8V21.3z M97.3,21.3h13.9v-3.3h-10.3v-5.5h9.3
		V9.3h-9.3v-5h9.8V1.1H97.3V21.3z M70.9,21.3h3.4V4.6h0.1l6.1,16.8h2.5l6.1-16.8h0.1v16.8h3.4V1.1h-5.4l-5.5,14.2L76.4,1.1h-5.5
		V21.3z M44.5,21.3h3.4V4.6H48l6.1,16.8h2.5l6.1-16.8h0.1v16.8h3.4V1.1h-5.4l-5.5,14.2L50,1.1h-5.5V21.3z M23.8,8.3
		c0.3-0.9,0.8-1.6,1.4-2.3c0.6-0.7,1.3-1.2,2.2-1.5c0.8-0.4,1.8-0.6,2.8-0.6c1,0,2,0.2,2.9,0.6C34,4.8,34.7,5.3,35.3,6
		c0.6,0.7,1.1,1.4,1.4,2.3c0.3,0.9,0.5,1.8,0.5,2.8c0,1.1-0.2,2.1-0.5,3c-0.3,0.9-0.8,1.7-1.4,2.4c-0.6,0.7-1.3,1.2-2.2,1.6
		c-0.9,0.4-1.8,0.6-2.9,0.6c-1,0-2-0.2-2.8-0.6c-0.8-0.4-1.6-0.9-2.2-1.6c-0.6-0.7-1.1-1.5-1.4-2.4c-0.3-0.9-0.5-1.9-0.5-3
		C23.3,10.1,23.5,9.1,23.8,8.3 M20.4,15.6c0.5,1.3,1.3,2.4,2.2,3.3c0.9,0.9,2.1,1.6,3.4,2.1c1.3,0.5,2.7,0.8,4.3,0.8
		c1.6,0,3-0.3,4.3-0.8c1.3-0.5,2.4-1.3,3.4-2.2c1-0.9,1.7-2,2.2-3.3c0.5-1.3,0.8-2.7,0.8-4.3c0-1.6-0.3-3.1-0.8-4.4
		c-0.5-1.3-1.3-2.4-2.2-3.4c-1-0.9-2.1-1.6-3.4-2.1c-1.3-0.5-2.8-0.7-4.3-0.7c-1.6,0-3,0.3-4.3,0.8c-1.3,0.5-2.4,1.2-3.4,2.2
		c-0.9,0.9-1.7,2.1-2.2,3.4c-0.5,1.3-0.8,2.8-0.8,4.4C19.6,12.9,19.8,14.3,20.4,15.6 M17.8,3.8c-1-1.2-2.1-2-3.3-2.5
		c-1.2-0.5-2.4-0.7-3.8-0.7c-1.6,0-3,0.3-4.3,0.8C5.1,1.9,4,2.6,3,3.5C2.1,4.5,1.3,5.6,0.8,6.9C0.3,8.2,0,9.7,0,11.3
		c0,1.6,0.3,3,0.8,4.3C1.3,16.9,2.1,18,3,19c0.9,0.9,2.1,1.6,3.4,2.1c1.3,0.5,2.7,0.8,4.3,0.8c1.5,0,2.9-0.3,4.2-0.9
		s2.4-1.5,3.3-2.7l-3-2.1c-0.7,0.9-1.4,1.5-2.2,1.9c-0.8,0.4-1.6,0.6-2.4,0.6c-1,0-2-0.2-2.8-0.6c-0.8-0.4-1.6-0.9-2.2-1.6
		c-0.6-0.7-1.1-1.5-1.4-2.4c-0.3-0.9-0.5-1.9-0.5-3c0-1,0.2-2,0.5-2.8C4.6,7.4,5.1,6.6,5.7,6C6.3,5.3,7,4.8,7.9,4.4
		c0.8-0.4,1.8-0.6,2.8-0.6c0.7,0,1.4,0.1,2.1,0.4c0.7,0.3,1.4,0.8,2.2,1.6L17.8,3.8z"/>
	<path class="st0" d="M169.1,131.5c0.5,0.5,1.2,0.8,2,0.8c0.8,0,1.4-0.3,2-0.8c0.5-0.5,0.8-1.2,0.8-2c0-0.8-0.3-1.4-0.8-2
		c-0.5-0.5-1.2-0.8-2-0.8c-0.8,0-1.4,0.3-2,0.8c-0.5,0.5-0.8,1.2-0.8,2C168.3,130.3,168.5,131,169.1,131.5 M169.2,121.3h3.4v-3.7
		c0-1.3,0.2-2.5,0.7-3.4c0.5-0.9,1-1.8,1.7-2.5c0.7-0.7,1.4-1.5,2.2-2.2c0.8-0.7,1.6-1.5,2.2-2.3c0.7-0.8,1.3-1.8,1.7-2.9
		c0.5-1.1,0.7-2.5,0.7-4.1c0-1.6-0.3-3-0.8-4.2c-0.5-1.2-1.3-2.3-2.2-3.1c-0.9-0.8-2.1-1.5-3.4-1.9c-1.3-0.4-2.7-0.7-4.2-0.7
		c-2.9,0-5.3,0.8-7.4,2.4c-2,1.6-3.3,3.9-3.9,6.9l3.7,0.5c0.4-2,1.3-3.6,2.6-4.8c1.3-1.2,2.9-1.8,5-1.8c2.1,0,3.8,0.6,4.9,1.9
		c1.2,1.3,1.8,3,1.8,5c0,1.3-0.2,2.4-0.7,3.3c-0.4,0.9-1,1.8-1.7,2.6c-0.7,0.8-1.4,1.5-2.2,2.2c-0.8,0.7-1.5,1.4-2.2,2.2
		c-0.7,0.8-1.2,1.6-1.7,2.6c-0.4,1-0.7,2.1-0.7,3.3V121.3z M128.6,126.9c1.6,2.2,3.5,3.8,5.8,4.7c2.3,0.9,4.7,1.4,7.4,1.4
		c1.6,0,3.2-0.2,4.8-0.7c1.5-0.5,2.9-1.2,4.1-2.2c1.2-1,2.1-2.2,2.8-3.6c0.7-1.4,1-3,1-4.9c0-2.5-0.5-4.5-1.6-5.9
		c-1-1.4-2.3-2.6-3.9-3.4c-1.6-0.8-3.2-1.4-5.1-1.9c-1.8-0.5-3.5-1-5.1-1.7c-1.6-0.6-2.8-1.5-3.9-2.6c-1-1.1-1.6-2.7-1.6-4.7
		c0-1.3,0.2-2.4,0.7-3.4c0.5-1,1.2-1.8,2-2.4c0.8-0.6,1.8-1.1,2.9-1.4c1.1-0.3,2.3-0.5,3.5-0.5c1.8,0,3.3,0.3,4.6,1
		c1.3,0.7,2.4,1.7,3.4,3l3.3-2.4c-1.4-1.8-3-3.2-4.9-3.9c-1.9-0.8-4-1.2-6.2-1.2c-1.7,0-3.4,0.2-4.9,0.7c-1.6,0.5-3,1.2-4.2,2.1
		c-1.2,0.9-2.2,2.1-2.9,3.5c-0.7,1.4-1.1,3-1.1,4.8c0,1.9,0.3,3.5,0.9,4.8c0.6,1.3,1.4,2.4,2.4,3.2c1,0.9,2.1,1.6,3.4,2.1
		c1.2,0.5,2.5,1,3.9,1.4c1.3,0.4,2.6,0.8,3.9,1.3c1.2,0.4,2.4,0.9,3.4,1.5c1,0.6,1.8,1.4,2.4,2.3c0.6,0.9,0.9,2.1,0.9,3.5
		c0,1.2-0.2,2.3-0.7,3.3c-0.5,1-1.1,1.8-2,2.5c-0.8,0.7-1.8,1.2-2.9,1.6c-1.1,0.4-2.3,0.6-3.6,0.6c-2,0-3.8-0.4-5.4-1.3
		c-1.6-0.8-2.9-2.1-3.9-3.9L128.6,126.9z M115.2,117.7H96.5l9.5-22.3L115.2,117.7z M86.5,132h4l4.6-10.8h21.6L121,132h4.3
		l-17.1-40.7h-3.9L86.5,132z M57.7,132h25.8v-3.4h-22v-15.9h19.8v-3.4H61.5V94.7h21.1v-3.4H57.7V132z M18.4,94.7h7.8
		c2.7,0,5.2,0.3,7.5,1c2.3,0.7,4.4,1.7,6.1,3.1c1.7,1.4,3.1,3.1,4.1,5.3c1,2.1,1.5,4.6,1.5,7.6c0,2.9-0.5,5.4-1.5,7.6
		c-1,2.1-2.4,3.9-4.1,5.3c-1.7,1.4-3.8,2.4-6.1,3.1c-2.3,0.7-4.8,1-7.5,1h-7.8V94.7z M14.6,132h12.6c3.5,0,6.5-0.4,9-1.3
		s4.5-2,6.1-3.3c1.6-1.3,2.9-2.8,3.9-4.5c0.9-1.6,1.6-3.2,2.1-4.7c0.4-1.5,0.7-2.8,0.8-4.1c0.1-1.2,0.2-2.1,0.2-2.6
		s-0.1-1.4-0.2-2.6c-0.1-1.2-0.4-2.6-0.8-4.1c-0.4-1.5-1.1-3.1-2.1-4.7c-0.9-1.6-2.2-3.1-3.9-4.5c-1.6-1.3-3.7-2.4-6.1-3.3
		s-5.4-1.3-9-1.3H14.6V132z M0.2,132H4V91.3H0.2V132z"/>
</g>
</svg>
