<?xml version="1.0" encoding="utf-8"?>
<!-- Generator: Adobe Illustrator 22.1.0, SVG Export Plug-In . SVG Version: 6.00 Build 0)  -->
<svg version="1.1" id="Layer_1" xmlns="http://www.w3.org/2000/svg" xmlns:xlink="http://www.w3.org/1999/xlink" x="0px" y="0px"
	 viewBox="0 0 491 286" style="enable-background:new 0 0 491 286;" xml:space="preserve">
<style type="text/css">
	.st0{clip-path:url(#SVGID_2_);fill:none;stroke:#1D1D1B;}
	.st1{fill:none;stroke:#1D1D1B;}
	.st2{clip-path:url(#SVGID_4_);fill:none;stroke:#1D1D1B;}
	.st3{clip-path:url(#SVGID_6_);fill:none;stroke:#1D1D1B;}
	.st4{clip-path:url(#SVGID_8_);fill:none;stroke:#1D1D1B;}
	.st5{clip-path:url(#SVGID_10_);fill:none;stroke:#1D1D1B;}
	.st6{clip-path:url(#SVGID_12_);fill:none;stroke:#1D1D1B;}
</style>
<g>
	<defs>
		<rect id="SVGID_1_" width="491" height="286"/>
	</defs>
	<clipPath id="SVGID_2_">
		<use xlink:href="#SVGID_1_"  style="overflow:visible;"/>
	</clipPath>
	<path class="st0" d="M146,285l-10.2-4.1l-3-9.6l2.5-13.2l-2-9.1l5.1-19.8l2-19.8l-9.1-7.1l-9.1-17.8l2.5-9.6l5.1-8.6V158l-6.6-0.5
		l-8.6-11.7l-7.1-4.6l-5.6-1l-11.7-7.6l-1-8.6l-13.7-12.2c0,0-15.2-19.3-14.7-20.3c0.5-1,4.1-18.8,4.1-18.8L48.9,54.4l-17.3-5.6
		l-16.3,5.6L0.6,48.9l6.1-15.7L20,28.5l12.2,1.5l11.2,2l21.8-10.2l12.7,3.6l18.8-2l21.8-14.7l16.3,18.8l21.3,9.1l-7.1,9.1l-7.1-6.1
		l-5.6-1.5l-2.5-10.7l-5.6,11.2l-15.8,1l-0.5,11.2l10.2,8.6l18.8-14.2l7.1,5.1l10.7,13.2L148,80.3l-15.8,14.7l0.5,5.6l-7.1,6.1
		l0.5,10.7l-2.5,2.5l-1.5-5.6l-8.1-3l-11.7,3l-1.5,13.2l5.1,7.1h5.1v-5.6h4.6l-1.5,11.2l8.1,1l-1.5,6.1l3,6.6l7.6,0.5l5.1-5.6
		l6.6,2.5l7.6-0.5l6.1,8.6l9.7,3.6l10.2,13.2l14.2,5.6l-0.5,9.1l-7.1,7.6l-1.5,20.8l-11.7,3.6l2,9.1l-10.7,11.2L149,254l-5.6,11.7
		l3,3l-5.6,7.1L146,285z"/>
	<path class="st0" d="M161.4,38.8c0-1.5-2.5-18.6-2.5-18.6l-13.2-2.5c0,0-10.1-5.5-8.6-5.5c1.5,0,9.6-4.5,9.6-4.5s7.6-2.5,8.6-2.5
		c1,0,26.8-4.5,26.8-4.5l17.2,2l17.7,4.5l-11.6,23.2l-12.6,1.5l-9.1,6.5l-5.6,12.1l-7.6-2.5L161.4,38.8z"/>
</g>
<polygon class="st1" points="203.7,37.7 210,43.8 221,40 217.1,37.2 "/>
<g>
	<defs>
		<rect id="SVGID_3_" width="491" height="286"/>
	</defs>
	<clipPath id="SVGID_4_">
		<use xlink:href="#SVGID_3_"  style="overflow:visible;"/>
	</clipPath>
	<path class="st2" d="M120.8,127.7l7.2,2.4c0,0,8.6,5.3,9.1,5.3h6.2l-15.8-10.7L120.8,127.7z"/>
</g>
<polygon class="st1" points="295.5,222.5 291.6,225.9 296.5,236.2 301.9,232.8 304.8,212.2 303.4,202.4 300.9,208.8 293.6,212.7 "/>
<polygon class="st1" points="462.6,278.1 477.8,261.8 475.8,251 483.7,257.4 479.7,267.3 477.8,263.3 477.8,266.8 470.4,278.6 "/>
<g>
	<defs>
		<rect id="SVGID_5_" width="491" height="286"/>
	</defs>
	<clipPath id="SVGID_6_">
		<use xlink:href="#SVGID_5_"  style="overflow:visible;"/>
	</clipPath>
	<path class="st3" d="M386.3,172.1c0-1-5.6-16.6-5.6-16.6l-5.1,7l0.5,8.6l6.1,11.6l7.1,1l11.1,11.1l12.7,1l10.6-4.5l6.6,4l8.6,2
		l6.1-3l6.6,8.1l-1.5-7l-4.1-7.5l-8.6-1l-7.6-5l-14.2-17.1l-3.5-13.6l-2-11.6l-4.6,6.5v6.5l-1,13.1l-6.1,12.1l-3.5-6.5L386.3,172.1z
		"/>
</g>
<polygon class="st1" points="399.1,226.5 402.2,244.6 401.1,252.2 413.8,250.7 427.9,246.6 438.5,258.8 448.1,259.8 457.7,242.1 
	457.2,231 447.1,217.9 446.1,210.3 441.6,206.8 436,209.8 433.5,204.3 423.9,202.7 421.3,210.3 414.3,210.8 410.2,220.9 "/>
<polygon class="st1" points="424.1,113.7 423.6,105.3 434.9,95 440.9,83.2 448.8,79.2 438.9,101.4 430.5,105.8 "/>
<g>
	<defs>
		<rect id="SVGID_7_" width="491" height="286"/>
	</defs>
	<clipPath id="SVGID_8_">
		<use xlink:href="#SVGID_7_"  style="overflow:visible;"/>
	</clipPath>
	<polygon class="st4" points="462.7,69.7 461.2,56.9 469.3,50.9 469.8,46.3 459.2,50.9 441.9,52.4 439.8,67.6 430.2,85.9 421.5,91 
		422.1,101.2 416.5,104.2 418,98.1 407.3,92.5 408.3,102.2 412.4,112.8 408.8,121.5 396.1,132.2 386.5,136.2 390,142.3 391.5,152.5 
		386,159.1 379.9,149.9 369.7,143.8 370.2,137.2 364.1,131.6 349.3,143.8 348.8,156.5 344.3,159.1 337.7,135.2 328,124 314.3,121 
		306.6,116.9 302.1,115.9 306.6,125.5 312.7,124.5 318.3,130.1 309.2,143.3 295.5,150.4 292.9,140.8 286.8,133.7 284.3,122 
		280.2,118.9 287.8,145.4 296,155.5 305.6,153 300.5,172.8 288.3,188.6 291.4,209.4 281.7,219 283.3,227.7 278.2,232.3 278.7,238.9 
		269,249.5 256.8,253.1 253.8,236.8 252.8,227.2 247.7,216 250.2,203.8 250.7,195.7 243.6,180.9 245.1,170.8 236.5,164.2 
		218.7,168.2 203.4,152 206.5,142.3 203.4,129.6 212.6,117.9 216.7,110.3 221.7,101.7 245.1,97.6 245.6,105.7 256.3,111.3 
		262.4,107.8 270.5,110.3 281.2,110.8 281.7,102.7 272.1,102.2 262.4,95.6 250.7,94.6 243.6,83.9 231.4,91 224.3,99.1 217.2,98.6 
		215.6,91.5 217.7,85.4 225.3,85.4 228.3,78.8 224.3,74.7 224.8,68.1 220.7,67.1 216.7,65.6 220.7,56.4 223.8,52.4 227.3,60 
		232.9,67.6 241.6,62 245.6,52.9 239,53.4 238.5,45.3 247.7,39.7 257.8,27.5 274.6,27.5 289.4,33.1 314.8,25.4 330.5,29 346.8,19.9 
		367.1,15.3 391.5,12.7 397.1,19.9 417,20.4 422.1,26 442.4,21.9 454.6,27 469.8,29.5 477.5,38.1 490.2,45.3 486.1,49.3 474.4,50.3 
		471.9,57.5 	"/>
</g>
<line class="st1" x1="136.1" y1="281.2" x2="140.8" y2="276.5"/>
<line class="st1" x1="141.4" y1="276.1" x2="132.9" y2="271.5"/>
<line class="st1" x1="132.9" y1="271" x2="143.4" y2="266.4"/>
<line class="st1" x1="143.3" y1="266.2" x2="141.2" y2="276.3"/>
<line class="st1" x1="135.5" y1="258.7" x2="143.4" y2="266"/>
<line class="st1" x1="149.1" y1="254.7" x2="135.4" y2="258.3"/>
<line class="st1" x1="144.9" y1="249.5" x2="135.5" y2="258.3"/>
<line class="st1" x1="148.9" y1="254.3" x2="145.3" y2="249.5"/>
<line class="st1" x1="133.3" y1="249.2" x2="145.1" y2="249.2"/>
<line class="st1" x1="161.8" y1="244" x2="145.1" y2="249.1"/>
<line class="st1" x1="138.7" y1="229" x2="144.8" y2="249.3"/>
<line class="st1" x1="138.5" y1="229.2" x2="149.1" y2="226.7"/>
<line class="st1" x1="148.9" y1="226.4" x2="145.3" y2="249.3"/>
<line class="st1" x1="149.3" y1="226.5" x2="161.2" y2="243.6"/>
<line class="st1" x1="140.7" y1="209.7" x2="148.9" y2="226.3"/>
<line class="st1" x1="172" y1="232.3" x2="149.2" y2="226.7"/>
<line class="st1" x1="170" y1="223.6" x2="149.2" y2="226.2"/>
<line class="st1" x1="164.7" y1="207.2" x2="149.3" y2="226.3"/>
<line class="st1" x1="169.8" y1="223.3" x2="165.2" y2="207.1"/>
<line class="st1" x1="181.6" y1="219.6" x2="165.1" y2="207.3"/>
<line class="st1" x1="183.2" y1="199.1" x2="165" y2="206.8"/>
<line class="st1" x1="140.5" y1="209.4" x2="164.9" y2="207.3"/>
<line class="st1" x1="141.6" y1="188.4" x2="164.8" y2="206.9"/>
<line class="st1" x1="165.1" y1="182.8" x2="183.1" y2="198.7"/>
<line class="st1" x1="165" y1="207.1" x2="165" y2="182.6"/>
<line class="st1" x1="165" y1="182.4" x2="176.6" y2="176.7"/>
<line class="st1" x1="176.9" y1="176.6" x2="183" y2="198.8"/>
<line class="st1" x1="176.8" y1="176.7" x2="190.2" y2="191.1"/>
<line class="st1" x1="141.5" y1="188" x2="164.9" y2="182.8"/>
<line class="st1" x1="166.2" y1="163.3" x2="165.2" y2="182.6"/>
<line class="st1" x1="157" y1="159.8" x2="164.7" y2="183"/>
<line class="st1" x1="144.2" y1="167.5" x2="164.8" y2="182.4"/>
<line class="st1" x1="143.8" y1="167.3" x2="141.7" y2="188.2"/>
<line class="st1" x1="140.7" y1="209.6" x2="141.2" y2="188.2"/>
<line class="st1" x1="131.5" y1="202.3" x2="141.3" y2="188.3"/>
<line class="st1" x1="122.7" y1="185.4" x2="141.5" y2="188"/>
<line class="st1" x1="124.8" y1="174.6" x2="141.3" y2="188"/>
<line class="st1" x1="125.3" y1="174.7" x2="144" y2="167.6"/>
<line class="st1" x1="129.8" y1="166.6" x2="144" y2="167.1"/>
<line class="st1" x1="144.1" y1="167.1" x2="157.2" y2="160.4"/>
<line class="st1" x1="150.4" y1="151.1" x2="144.3" y2="167.2"/>
<line class="st1" x1="143.3" y1="151.5" x2="143.8" y2="167.3"/>
<line class="st1" x1="131.5" y1="154.8" x2="143.9" y2="167.2"/>
<line class="st1" x1="131.1" y1="154.6" x2="130" y2="158.1"/>
<line class="st1" x1="129.9" y1="158.4" x2="143.9" y2="167.1"/>
<line class="st1" x1="131.3" y1="154.4" x2="143.5" y2="151.8"/>
<line class="st1" x1="123.8" y1="154.1" x2="123.8" y2="157.6"/>
<line class="st1" x1="129.7" y1="157.9" x2="123.8" y2="154.3"/>
<line class="st1" x1="114.6" y1="146.1" x2="124" y2="154.4"/>
<line class="st1" x1="114.6" y1="145.7" x2="122" y2="141.6"/>
<line class="st1" x1="114.5" y1="146.2" x2="121.1" y2="147.7"/>
<line class="st1" x1="107.1" y1="141.2" x2="110.7" y2="134.8"/>
<line class="st1" x1="111.1" y1="134.8" x2="113.7" y2="140.2"/>
<line class="st1" x1="106.8" y1="141.1" x2="114.5" y2="140.6"/>
<line class="st1" x1="114.2" y1="140.3" x2="114.3" y2="145.9"/>
<line class="st1" x1="111.1" y1="134.6" x2="115.3" y2="129.3"/>
<line class="st1" x1="106.1" y1="134.8" x2="107.1" y2="140.8"/>
<line class="st1" x1="102" y1="140.2" x2="105.6" y2="134.9"/>
<line class="st1" x1="101" y1="127.6" x2="101.5" y2="140.3"/>
<line class="st1" x1="90.1" y1="132.5" x2="100.6" y2="127.8"/>
<line class="st1" x1="89.1" y1="124.3" x2="100.7" y2="127.4"/>
<line class="st1" x1="89.2" y1="124" x2="91.8" y2="117"/>
<line class="st1" x1="92.3" y1="117.1" x2="100.5" y2="127.4"/>
<line class="st1" x1="75.3" y1="112" x2="92" y2="116.7"/>
<line class="st1" x1="92.1" y1="116.7" x2="102.2" y2="114.6"/>
<line class="st1" x1="92.3" y1="116.8" x2="110.2" y2="91.1"/>
<line class="st1" x1="102.5" y1="114.3" x2="110.2" y2="91"/>
<line class="st1" x1="110.7" y1="91" x2="113.7" y2="111.3"/>
<line class="st1" x1="114" y1="111.1" x2="125.6" y2="106.9"/>
<line class="st1" x1="125.5" y1="106.8" x2="122.4" y2="114.3"/>
<line class="st1" x1="122.3" y1="114.6" x2="126.1" y2="117.2"/>
<line class="st1" x1="125.4" y1="106.6" x2="132.1" y2="95.1"/>
<line class="st1" x1="132.3" y1="94.8" x2="110.4" y2="91.2"/>
<line class="st1" x1="110.6" y1="91.1" x2="125.5" y2="106.5"/>
<line class="st1" x1="76" y1="112.3" x2="84.2" y2="79.8"/>
<line class="st1" x1="84.7" y1="79.8" x2="91.8" y2="116.9"/>
<line class="st1" x1="84.3" y1="79.9" x2="60.6" y2="91.7"/>
<line class="st1" x1="64.6" y1="72.8" x2="84.3" y2="79.5"/>
<line class="st1" x1="110.3" y1="91.2" x2="84.5" y2="79.9"/>
<line class="st1" x1="64.8" y1="72.5" x2="73" y2="51.8"/>
<line class="st1" x1="73.4" y1="51.8" x2="84.7" y2="80.1"/>
<line class="st1" x1="84.1" y1="80.1" x2="99" y2="61"/>
<line class="st1" x1="99.4" y1="60.9" x2="110.2" y2="91.4"/>
<line class="st1" x1="111.2" y1="91.4" x2="121.9" y2="59.4"/>
<line class="st1" x1="132.1" y1="94.9" x2="122.4" y2="59.4"/>
<line class="st1" x1="147.5" y1="80.5" x2="122.3" y2="59.5"/>
<line class="st1" x1="148" y1="50.4" x2="122.2" y2="59.1"/>
<line class="st1" x1="141.2" y1="45.1" x2="141.3" y2="52.7"/>
<line class="st1" x1="141.7" y1="52.8" x2="147.4" y2="80.7"/>
<line class="st1" x1="158.7" y1="63.2" x2="141.6" y2="52.9"/>
<line class="st1" x1="99.2" y1="61.1" x2="122.1" y2="59.6"/>
<line class="st1" x1="111.8" y1="50.9" x2="99.4" y2="61.2"/>
<line class="st1" x1="112.2" y1="39.6" x2="99.4" y2="60.7"/>
<line class="st1" x1="73.3" y1="51.9" x2="99.1" y2="61.1"/>
<line class="st1" x1="48.8" y1="54" x2="73.2" y2="51.9"/>
<g>
	<defs>
		<rect id="SVGID_9_" width="491" height="286"/>
	</defs>
	<clipPath id="SVGID_10_">
		<use xlink:href="#SVGID_9_"  style="overflow:visible;"/>
	</clipPath>
	<line class="st5" x1="16.5" y1="40.7" x2="0.4" y2="48.4"/>
</g>
<line class="st1" x1="6.6" y1="33.1" x2="16.5" y2="40.3"/>
<line class="st1" x1="16.9" y1="40.4" x2="20" y2="28.3"/>
<line class="st1" x1="16.8" y1="40.3" x2="32.3" y2="30"/>
<line class="st1" x1="16.7" y1="40.7" x2="31.3" y2="48.4"/>
<line class="st1" x1="16.4" y1="40.5" x2="15.4" y2="54.2"/>
<line class="st1" x1="31.8" y1="29.8" x2="31.7" y2="48.6"/>
<line class="st1" x1="31.6" y1="48.5" x2="42.9" y2="32"/>
<line class="st1" x1="43.3" y1="32" x2="48.5" y2="39.9"/>
<line class="st1" x1="48.6" y1="40.2" x2="32" y2="48.4"/>
<line class="st1" x1="48.9" y1="40" x2="48.9" y2="54.2"/>
<line class="st1" x1="48.9" y1="39.8" x2="64.9" y2="21.8"/>
<line class="st1" x1="65.3" y1="21.7" x2="73" y2="52.2"/>
<line class="st1" x1="48.8" y1="40.2" x2="73.1" y2="51.5"/>
<line class="st1" x1="77.5" y1="25.2" x2="73.4" y2="51.7"/>
<line class="st1" x1="73.4" y1="51.5" x2="96.5" y2="23.3"/>
<line class="st1" x1="96.9" y1="23.2" x2="98.4" y2="61.4"/>
<line class="st1" x1="96.8" y1="23.3" x2="112.3" y2="39.3"/>
<line class="st1" x1="112.7" y1="39.4" x2="125" y2="16.2"/>
<line class="st1" x1="125.1" y1="16.3" x2="96.7" y2="22.9"/>
<line class="st1" x1="112.6" y1="39.3" x2="134.2" y2="27"/>
<line class="st1" x1="134.1" y1="26.9" x2="141.8" y2="39.4"/>
<line class="st1" x1="156.2" y1="36.7" x2="142" y2="39.2"/>
<line class="st1" x1="127.4" y1="124.5" x2="127.6" y2="130.2"/>
<line class="st1" x1="127.4" y1="124.7" x2="137.2" y2="135.6"/>
<line class="st1" x1="145.8" y1="17.6" x2="146.9" y2="7.4"/>
<line class="st1" x1="147.2" y1="7.6" x2="158.2" y2="13.8"/>
<line class="st1" x1="158.3" y1="14.2" x2="145.6" y2="17.3"/>
<line class="st1" x1="158.4" y1="14" x2="158.4" y2="20.1"/>
<line class="st1" x1="156.5" y1="4.9" x2="158.1" y2="14"/>
<line class="st1" x1="157.8" y1="13.8" x2="168.5" y2="11.7"/>
<line class="st1" x1="168.4" y1="11.2" x2="155.9" y2="5.1"/>
<g>
	<defs>
		<rect id="SVGID_11_" width="491" height="286"/>
	</defs>
	<clipPath id="SVGID_12_">
		<use xlink:href="#SVGID_11_"  style="overflow:visible;"/>
	</clipPath>
	<line class="st6" x1="168.6" y1="11.3" x2="183.1" y2="0.5"/>
	<line class="st6" x1="183" y1="0.3" x2="182" y2="17.6"/>
</g>
<line class="st1" x1="181.5" y1="17.7" x2="175.4" y2="32.8"/>
<line class="st1" x1="174.9" y1="32.9" x2="171.3" y2="48.1"/>
<line class="st1" x1="161.5" y1="38.7" x2="175" y2="33.1"/>
<line class="st1" x1="175.3" y1="33.1" x2="183.7" y2="38.8"/>
<line class="st1" x1="183.7" y1="39.2" x2="171.2" y2="47.9"/>
<line class="st1" x1="159" y1="20.3" x2="175" y2="32.7"/>
<line class="st1" x1="159" y1="19.9" x2="168.3" y2="11.6"/>
<line class="st1" x1="168.7" y1="11.5" x2="174.9" y2="32.8"/>
<line class="st1" x1="168.6" y1="11.7" x2="181.7" y2="17.3"/>
<line class="st1" x1="182" y1="17.6" x2="183.5" y2="39"/>
<line class="st1" x1="181.9" y1="17.7" x2="192.8" y2="31.7"/>
<line class="st1" x1="181.8" y1="16.8" x2="203.7" y2="14.8"/>
<line class="st1" x1="203.4" y1="14.5" x2="200.3" y2="2.3"/>
<line class="st1" x1="199.9" y1="2.5" x2="181.9" y2="17.4"/>
<line class="st1" x1="193.2" y1="31.7" x2="203.5" y2="14.6"/>
<line class="st1" x1="203.8" y1="14.3" x2="217.3" y2="7.1"/>
<line class="st1" x1="203.9" y1="14.5" x2="205.5" y2="30.3"/>
<line class="st1" x1="209.9" y1="43.9" x2="217.3" y2="37.1"/>
<line class="st1" x1="291.5" y1="226.1" x2="301.9" y2="232.8"/>
<line class="st1" x1="301.8" y1="232.9" x2="295.6" y2="222.5"/>
<line class="st1" x1="295.6" y1="222.2" x2="304.9" y2="211.3"/>
<line class="st1" x1="305.1" y1="211.4" x2="293.4" y2="211.9"/>
<line class="st1" x1="301.1" y1="208.3" x2="304.9" y2="210.9"/>
<line class="st1" x1="473" y1="266.7" x2="470.4" y2="278.8"/>
<line class="st1" x1="477.9" y1="266.9" x2="473.2" y2="266.8"/>
<line class="st1" x1="478" y1="261.4" x2="483.8" y2="257.2"/>
<line class="st1" x1="477.6" y1="263.6" x2="477.6" y2="261.6"/>
<line class="st1" x1="438.8" y1="258.9" x2="443" y2="245.3"/>
<line class="st1" x1="443.4" y1="244.8" x2="448" y2="260"/>
<line class="st1" x1="427.9" y1="246.5" x2="443.2" y2="245"/>
<line class="st1" x1="443.2" y1="244.5" x2="457.9" y2="242.4"/>
<line class="st1" x1="443.4" y1="244.6" x2="457.3" y2="231.2"/>
<line class="st1" x1="457.5" y1="231.2" x2="436.6" y2="231.8"/>
<line class="st1" x1="436.8" y1="232.1" x2="443" y2="244.6"/>
<line class="st1" x1="436.3" y1="232.1" x2="427.6" y2="247.2"/>
<line class="st1" x1="427.1" y1="247.3" x2="426.6" y2="223.4"/>
<line class="st1" x1="426.5" y1="223" x2="436.4" y2="231.8"/>
<line class="st1" x1="436.8" y1="231.9" x2="447.1" y2="217.9"/>
<line class="st1" x1="447.2" y1="218" x2="426.4" y2="223.1"/>
<line class="st1" x1="409.2" y1="235.9" x2="426.2" y2="223.6"/>
<line class="st1" x1="410.1" y1="221.1" x2="426.3" y2="223.1"/>
<line class="st1" x1="414.3" y1="210.8" x2="426.2" y2="223.2"/>
<line class="st1" x1="421.5" y1="210.2" x2="426.1" y2="222.8"/>
<line class="st1" x1="435.8" y1="209.7" x2="426.6" y2="223.2"/>
<line class="st1" x1="436.2" y1="209.8" x2="447.1" y2="217.6"/>
<line class="st1" x1="436" y1="209.8" x2="446.3" y2="209.9"/>
<line class="st1" x1="421.4" y1="209.9" x2="433.4" y2="204.2"/>
<line class="st1" x1="421.3" y1="209.9" x2="436.1" y2="209.8"/>
<line class="st1" x1="409.8" y1="220.8" x2="409.3" y2="236.1"/>
<line class="st1" x1="409.2" y1="236.3" x2="427.8" y2="246.6"/>
<line class="st1" x1="409.3" y1="236.1" x2="413.4" y2="250.8"/>
<line class="st1" x1="413.5" y1="250.6" x2="402" y2="246"/>
<line class="st1" x1="402.1" y1="245.6" x2="408.8" y2="236.2"/>
<line class="st1" x1="408.9" y1="235.9" x2="399" y2="226.6"/>
<line class="st1" x1="375.6" y1="162.4" x2="385.9" y2="171.7"/>
<line class="st1" x1="375.9" y1="171.1" x2="386.1" y2="171.7"/>
<line class="st1" x1="385.9" y1="172" x2="382.3" y2="182.5"/>
<line class="st1" x1="386.4" y1="172" x2="388.9" y2="183.6"/>
<line class="st1" x1="385.8" y1="172" x2="400.2" y2="194.7"/>
<line class="st1" x1="385.7" y1="172.1" x2="398.3" y2="177.3"/>
<line class="st1" x1="398.6" y1="177.5" x2="400.1" y2="194.8"/>
<line class="st1" x1="404.2" y1="165.3" x2="400.6" y2="194.8"/>
<line class="st1" x1="400.6" y1="194.7" x2="411.9" y2="177.1"/>
<line class="st1" x1="411.9" y1="176.9" x2="404.7" y2="165.4"/>
<line class="st1" x1="412.3" y1="177" x2="412.9" y2="195.9"/>
<line class="st1" x1="412.3" y1="177.2" x2="423.6" y2="191.1"/>
<line class="st1" x1="404.5" y1="165" x2="415.7" y2="164.5"/>
<line class="st1" x1="415.4" y1="164.3" x2="412.3" y2="177"/>
<line class="st1" x1="405.7" y1="152.2" x2="415.5" y2="164.1"/>
<line class="st1" x1="405.5" y1="152.3" x2="412.1" y2="150.8"/>
<line class="st1" x1="405.6" y1="145.6" x2="412" y2="150.3"/>
<line class="st1" x1="423.6" y1="191.2" x2="415.9" y2="164.3"/>
<line class="st1" x1="424" y1="191.1" x2="429.7" y2="181.7"/>
<line class="st1" x1="430.2" y1="181.6" x2="431.2" y2="195.3"/>
<line class="st1" x1="430.2" y1="182.2" x2="438.9" y2="197.3"/>
<line class="st1" x1="438.9" y1="197.4" x2="437.8" y2="186.7"/>
<line class="st1" x1="439.3" y1="197.2" x2="446" y2="187.8"/>
<line class="st1" x1="446" y1="188.2" x2="445.5" y2="194.3"/>
<line class="st1" x1="445.2" y1="194.6" x2="450.3" y2="195.1"/>
<line class="st1" x1="430.5" y1="106" x2="423.3" y2="105.9"/>
<line class="st1" x1="427.6" y1="102.3" x2="430.2" y2="106.1"/>
<line class="st1" x1="434.8" y1="95.1" x2="430.7" y2="106.1"/>
<line class="st1" x1="435.3" y1="94.6" x2="438.9" y2="101.5"/>
<line class="st1" x1="449.1" y1="78.9" x2="435.2" y2="94.8"/>
<line class="st1" x1="461.5" y1="57" x2="472.2" y2="57.1"/>
<line class="st1" x1="472" y1="57.2" x2="469.9" y2="50.7"/>
<line class="st1" x1="469.7" y1="50.5" x2="475.3" y2="50.4"/>
<line class="st1" x1="477.6" y1="38" x2="475" y2="50.1"/>
<line class="st1" x1="478" y1="38.1" x2="486.3" y2="49"/>
<line class="st1" x1="477.7" y1="38.1" x2="470.4" y2="45.9"/>
<line class="st1" x1="470.4" y1="46.3" x2="474.6" y2="50"/>
<line class="st1" x1="470" y1="46.1" x2="470" y2="29.3"/>
<line class="st1" x1="455.6" y1="26.8" x2="461.3" y2="38.4"/>
<line class="st1" x1="461.7" y1="38.3" x2="470" y2="30"/>
<line class="st1" x1="461.7" y1="38.6" x2="469.5" y2="45.9"/>
<line class="st1" x1="461.3" y1="38.5" x2="459.7" y2="50.7"/>
<line class="st1" x1="461.4" y1="38.7" x2="442.3" y2="52"/>
<line class="st1" x1="438.6" y1="36.7" x2="461.5" y2="38.2"/>
<line class="st1" x1="438.8" y1="36.5" x2="441.9" y2="52.2"/>
<line class="st1" x1="438.7" y1="36.7" x2="455.3" y2="27"/>
<line class="st1" x1="442.4" y1="21.7" x2="438.8" y2="36.9"/>
<line class="st1" x1="422.4" y1="25.9" x2="438.5" y2="36.2"/>
<line class="st1" x1="418.7" y1="37.7" x2="438.6" y2="37.2"/>
<line class="st1" x1="419.4" y1="38.2" x2="442" y2="52.5"/>
<line class="st1" x1="442" y1="52.9" x2="428.5" y2="61.7"/>
<line class="st1" x1="428.5" y1="62.1" x2="440" y2="67.3"/>
<line class="st1" x1="422" y1="90.9" x2="428.2" y2="61.9"/>
<line class="st1" x1="428.7" y1="61.9" x2="430.2" y2="85.8"/>
<line class="st1" x1="397.3" y1="64.7" x2="428.4" y2="62.6"/>
<line class="st1" x1="419.5" y1="38" x2="428.2" y2="62.3"/>
<line class="st1" x1="397.5" y1="64.8" x2="419" y2="38.1"/>
<line class="st1" x1="395.8" y1="39.2" x2="419.7" y2="38.2"/>
<line class="st1" x1="417.4" y1="20.1" x2="419" y2="37.9"/>
<line class="st1" x1="419.5" y1="37.9" x2="422.1" y2="25.8"/>
<line class="st1" x1="396" y1="39.3" x2="417" y2="20.8"/>
<line class="st1" x1="397.1" y1="19.6" x2="396" y2="39.5"/>
<line class="st1" x1="396" y1="39.5" x2="397.1" y2="64.9"/>
<line class="st1" x1="397.5" y1="65.1" x2="421.6" y2="90.8"/>
<line class="st1" x1="397.6" y1="65" x2="407.3" y2="92.4"/>
<line class="st1" x1="407.5" y1="92.2" x2="421.8" y2="91.2"/>
<line class="st1" x1="421.6" y1="91" x2="418.4" y2="98"/>
<line class="st1" x1="418.3" y1="98.3" x2="422.2" y2="100.9"/>
<line class="st1" x1="363.3" y1="37.1" x2="397.2" y2="64.8"/>
<line class="st1" x1="363.2" y1="36.7" x2="395.8" y2="39.2"/>
<line class="st1" x1="366.5" y1="15.1" x2="363.4" y2="36.9"/>
<line class="st1" x1="366.9" y1="15.2" x2="395.6" y2="39.3"/>
<line class="st1" x1="366.8" y1="15.3" x2="397.3" y2="19.4"/>
<line class="st1" x1="347" y1="19.8" x2="363" y2="36.8"/>
<line class="st1" x1="330.6" y1="29" x2="363.1" y2="36.2"/>
<line class="st1" x1="363" y1="36.5" x2="351.7" y2="58.2"/>
<line class="st1" x1="397.3" y1="64.7" x2="351.5" y2="58.6"/>
<line class="st1" x1="330.8" y1="28.9" x2="351.3" y2="58.2"/>
<line class="st1" x1="315.9" y1="45.3" x2="351.4" y2="58.1"/>
<line class="st1" x1="330.4" y1="28.9" x2="316" y2="44.9"/>
<line class="st1" x1="351.2" y1="58.5" x2="372.7" y2="90.8"/>
<line class="st1" x1="373.6" y1="90.8" x2="397.1" y2="65.1"/>
<line class="st1" x1="373.4" y1="91.2" x2="407.5" y2="92.7"/>
<line class="st1" x1="372.9" y1="91.2" x2="408.5" y2="101.9"/>
<line class="st1" x1="408.4" y1="102.8" x2="394.4" y2="112.1"/>
<line class="st1" x1="394.3" y1="112.5" x2="412.6" y2="112.6"/>
<line class="st1" x1="408.9" y1="121.3" x2="394.4" y2="112.5"/>
<line class="st1" x1="394.5" y1="112.3" x2="395.5" y2="132.2"/>
<line class="st1" x1="395.8" y1="132.4" x2="381" y2="134"/>
<line class="st1" x1="381.2" y1="134.1" x2="394.1" y2="112.4"/>
<line class="st1" x1="394.1" y1="112.5" x2="364.3" y2="131.5"/>
<line class="st1" x1="364.2" y1="131.9" x2="381.5" y2="134"/>
<line class="st1" x1="381.5" y1="134.5" x2="370.4" y2="137.5"/>
<line class="st1" x1="370.5" y1="137.9" x2="373.7" y2="141.7"/>
<line class="st1" x1="373.8" y1="142.1" x2="369.9" y2="143.7"/>
<line class="st1" x1="374.1" y1="142" x2="379.8" y2="149.9"/>
<line class="st1" x1="380.2" y1="149.8" x2="384.9" y2="145.6"/>
<line class="st1" x1="384.9" y1="145.4" x2="381.3" y2="134.3"/>
<line class="st1" x1="380.8" y1="134.4" x2="374.1" y2="141.7"/>
<line class="st1" x1="373.9" y1="142.1" x2="385" y2="145.2"/>
<line class="st1" x1="385.2" y1="145.2" x2="390.1" y2="142.6"/>
<line class="st1" x1="385.3" y1="145.6" x2="391.5" y2="152.4"/>
<line class="st1" x1="385.9" y1="159.2" x2="385.3" y2="145.4"/>
<line class="st1" x1="385.3" y1="145.4" x2="386.4" y2="136.3"/>
<line class="st1" x1="386.6" y1="136" x2="381.1" y2="134.5"/>
<line class="st1" x1="373" y1="91.1" x2="394.1" y2="112.1"/>
<line class="st1" x1="364.4" y1="131.6" x2="373.1" y2="91"/>
<line class="st1" x1="364" y1="131.5" x2="342.5" y2="96.7"/>
<line class="st1" x1="342.3" y1="96.3" x2="373.3" y2="91.2"/>
<line class="st1" x1="337.9" y1="135.1" x2="344.6" y2="127.2"/>
<line class="st1" x1="345.6" y1="127.1" x2="349.2" y2="143.9"/>
<line class="st1" x1="349.3" y1="143.7" x2="337.8" y2="135.4"/>
<line class="st1" x1="349.2" y1="144" x2="344.6" y2="159.1"/>
<line class="st1" x1="344.9" y1="127.3" x2="364.2" y2="131.4"/>
<line class="st1" x1="342.5" y1="96.5" x2="345.1" y2="127.1"/>
<line class="st1" x1="328" y1="124.3" x2="345.3" y2="126.8"/>
<line class="st1" x1="327.7" y1="123.9" x2="342.1" y2="96.6"/>
<line class="st1" x1="342.1" y1="96.7" x2="314.4" y2="120.8"/>
<line class="st1" x1="307.2" y1="86.6" x2="342.2" y2="96.3"/>
<line class="st1" x1="351.2" y1="57.9" x2="342.5" y2="96.5"/>
<line class="st1" x1="322.6" y1="74.3" x2="342.1" y2="96.4"/>
<line class="st1" x1="307.3" y1="86.1" x2="322.3" y2="74.3"/>
<line class="st1" x1="322.5" y1="73.9" x2="351.3" y2="58"/>
<line class="st1" x1="316" y1="45.1" x2="322.2" y2="74.1"/>
<line class="st1" x1="322.3" y1="73.9" x2="296.5" y2="63.6"/>
<line class="st1" x1="296.6" y1="63.2" x2="315.6" y2="45.3"/>
<line class="st1" x1="315.5" y1="45.1" x2="315" y2="25.2"/>
<line class="st1" x1="289.4" y1="33.1" x2="315.7" y2="44.9"/>
<line class="st1" x1="289.2" y1="32.9" x2="289.2" y2="48.1"/>
<line class="st1" x1="289.3" y1="47.9" x2="315.3" y2="45.3"/>
<line class="st1" x1="289.5" y1="48.2" x2="296.2" y2="63.3"/>
<line class="st1" x1="296.6" y1="64" x2="306.9" y2="86.2"/>
<line class="st1" x1="279.1" y1="84.5" x2="307.1" y2="86.1"/>
<line class="st1" x1="279.3" y1="84.1" x2="296.7" y2="63.6"/>
<line class="st1" x1="281.4" y1="110.8" x2="283.9" y2="121.9"/>
<line class="st1" x1="284.3" y1="121.8" x2="294.2" y2="113"/>
<line class="st1" x1="294.6" y1="112.9" x2="300.8" y2="131.6"/>
<line class="st1" x1="306.4" y1="125.7" x2="301.2" y2="131.5"/>
<line class="st1" x1="306.9" y1="125.6" x2="308.9" y2="143.4"/>
<line class="st1" x1="292.9" y1="141.1" x2="309.1" y2="143.1"/>
<line class="st1" x1="293" y1="140.7" x2="300.8" y2="131.8"/>
<line class="st1" x1="301.2" y1="131.8" x2="309" y2="143.3"/>
<line class="st1" x1="301" y1="131.9" x2="286.8" y2="133.5"/>
<line class="st1" x1="284.3" y1="122.2" x2="300.9" y2="131.5"/>
<line class="st1" x1="301.8" y1="115.9" x2="301.3" y2="131.7"/>
<line class="st1" x1="294.4" y1="113.1" x2="302" y2="115.6"/>
<line class="st1" x1="307.4" y1="86.4" x2="314" y2="120.9"/>
<line class="st1" x1="306.9" y1="86.3" x2="306.8" y2="116.9"/>
<line class="st1" x1="306.9" y1="86.4" x2="302.3" y2="115.8"/>
<line class="st1" x1="306.9" y1="86.4" x2="294.6" y2="112.7"/>
<line class="st1" x1="281.1" y1="111" x2="294.4" y2="112.6"/>
<line class="st1" x1="281.8" y1="102.8" x2="294.2" y2="112.6"/>
<line class="st1" x1="281.8" y1="102.4" x2="307" y2="86.5"/>
<line class="st1" x1="279.3" y1="84.3" x2="281.4" y2="102.6"/>
<line class="st1" x1="272.2" y1="102" x2="278.9" y2="84.4"/>
<line class="st1" x1="262.4" y1="95.3" x2="279" y2="84.5"/>
<line class="st1" x1="215.5" y1="91.2" x2="224.9" y2="85.5"/>
<line class="st1" x1="225.2" y1="85.5" x2="231" y2="90.7"/>
<line class="st1" x1="224.8" y1="85.3" x2="224.3" y2="99.1"/>
<line class="st1" x1="215.5" y1="91.6" x2="223.9" y2="98.9"/>
<line class="st1" x1="225.2" y1="85.6" x2="237.2" y2="81"/>
<line class="st1" x1="237.1" y1="80.9" x2="231.4" y2="90.8"/>
<line class="st1" x1="237.4" y1="81" x2="243.3" y2="83.6"/>
<line class="st1" x1="227.6" y1="80" x2="237.3" y2="80.5"/>
<line class="st1" x1="237.3" y1="80.5" x2="246.9" y2="78.4"/>
<line class="st1" x1="246.8" y1="78.3" x2="243.6" y2="83.7"/>
<line class="st1" x1="247.2" y1="78.2" x2="250.3" y2="94.4"/>
<line class="st1" x1="247.2" y1="78.4" x2="262.1" y2="95.3"/>
<line class="st1" x1="247.2" y1="78" x2="258.5" y2="66.6"/>
<line class="st1" x1="259" y1="66.5" x2="262" y2="95.5"/>
<line class="st1" x1="258.9" y1="66.7" x2="278.9" y2="84.1"/>
<line class="st1" x1="258.7" y1="66.7" x2="282.6" y2="69.8"/>
<line class="st1" x1="282.4" y1="70.1" x2="279.3" y2="84.3"/>
<line class="st1" x1="282.8" y1="69.8" x2="296.3" y2="63.6"/>
<line class="st1" x1="289" y1="48.2" x2="282.9" y2="70"/>
<line class="st1" x1="273.1" y1="37.6" x2="289.2" y2="47.9"/>
<line class="st1" x1="273" y1="37.2" x2="289.2" y2="33.1"/>
<line class="st1" x1="274.3" y1="27.3" x2="273.2" y2="37.4"/>
<line class="st1" x1="272.8" y1="37.2" x2="257.8" y2="27.5"/>
<line class="st1" x1="272.9" y1="37.7" x2="251.7" y2="47.4"/>
<line class="st1" x1="251.8" y1="47.6" x2="257.4" y2="27.3"/>
<line class="st1" x1="247.7" y1="39.6" x2="251.3" y2="47.5"/>
<line class="st1" x1="238.3" y1="45.8" x2="251.6" y2="47.4"/>
<line class="st1" x1="251.4" y1="47.8" x2="245.6" y2="52.5"/>
<line class="st1" x1="258.5" y1="66.4" x2="251.8" y2="47.7"/>
<line class="st1" x1="258.9" y1="66.4" x2="272.8" y2="37.5"/>
<line class="st1" x1="282.4" y1="70" x2="273.2" y2="37.5"/>
<line class="st1" x1="245.6" y1="52.9" x2="258.5" y2="66.3"/>
<line class="st1" x1="241.4" y1="62.1" x2="259.2" y2="66.2"/>
<line class="st1" x1="241.6" y1="62" x2="246.7" y2="78.1"/>
<line class="st1" x1="246.8" y1="78" x2="232.9" y2="67.7"/>
<line class="st1" x1="233" y1="67.5" x2="236.6" y2="80.7"/>
<line class="st1" x1="228.4" y1="79.1" x2="232.5" y2="67.6"/>
<line class="st1" x1="232.6" y1="67.7" x2="224.2" y2="74.4"/>
<line class="st1" x1="232.7" y1="67.7" x2="224.6" y2="69.3"/>
<line class="st1" x1="224.8" y1="69" x2="227.4" y2="60.4"/>
<line class="st1" x1="226.9" y1="60.5" x2="221.2" y2="66.8"/>
<line class="st1" x1="220.5" y1="56.3" x2="220.5" y2="67"/>
<line class="st1" x1="220.6" y1="56.5" x2="227" y2="60.1"/>
<line class="st1" x1="270.6" y1="110.5" x2="279.9" y2="119.3"/>
<line class="st1" x1="280.4" y1="119.4" x2="280.9" y2="110.8"/>
<line class="st1" x1="254.7" y1="137" x2="283.1" y2="130.4"/>
<line class="st1" x1="254.8" y1="137.1" x2="280" y2="119.1"/>
<line class="st1" x1="270.2" y1="110.4" x2="254.8" y2="137.2"/>
<line class="st1" x1="254.9" y1="137.3" x2="255.9" y2="111.3"/>
<line class="st1" x1="245.7" y1="105.8" x2="254.4" y2="137.2"/>
<line class="st1" x1="254.6" y1="137" x2="231.3" y2="129.4"/>
<line class="st1" x1="231.4" y1="129" x2="245.2" y2="106.3"/>
<line class="st1" x1="221.5" y1="101.9" x2="245.4" y2="106"/>
<line class="st1" x1="222.2" y1="101.7" x2="231" y2="129.1"/>
<line class="st1" x1="231" y1="129" x2="216.6" y2="110.4"/>
<line class="st1" x1="212.5" y1="118.1" x2="231.1" y2="128.9"/>
<line class="st1" x1="231.2" y1="129.3" x2="203.2" y2="129.4"/>
<line class="st1" x1="231.1" y1="129.3" x2="206.3" y2="142.1"/>
<line class="st1" x1="206.3" y1="142.6" x2="239.8" y2="150.8"/>
<line class="st1" x1="239.7" y1="151.2" x2="218.6" y2="168.2"/>
<line class="st1" x1="218.2" y1="168.2" x2="206.4" y2="142.5"/>
<line class="st1" x1="231.4" y1="128.7" x2="239.6" y2="150.9"/>
<line class="st1" x1="240" y1="150.8" x2="255" y2="136.9"/>
<line class="st1" x1="255.4" y1="136.8" x2="263.6" y2="170.8"/>
<line class="st1" x1="263.8" y1="170.8" x2="244.9" y2="170.8"/>
<line class="st1" x1="240.1" y1="151.1" x2="244.7" y2="170.8"/>
<line class="st1" x1="239.6" y1="151.1" x2="236.5" y2="164.2"/>
<line class="st1" x1="239.5" y1="151.2" x2="263.6" y2="170.7"/>
<line class="st1" x1="254.7" y1="137" x2="287.7" y2="145.2"/>
<line class="st1" x1="287.5" y1="145.5" x2="280.8" y2="161.6"/>
<line class="st1" x1="280.4" y1="161.5" x2="255.3" y2="136.9"/>
<line class="st1" x1="280.7" y1="161" x2="295.8" y2="155.8"/>
<line class="st1" x1="300.4" y1="172.2" x2="280.7" y2="161.9"/>
<line class="st1" x1="296.1" y1="155.7" x2="300.3" y2="172.9"/>
<line class="st1" x1="280.9" y1="161.3" x2="288" y2="188.7"/>
<line class="st1" x1="288.1" y1="188.5" x2="263.9" y2="171.1"/>
<line class="st1" x1="263.9" y1="170.7" x2="280.5" y2="161.4"/>
<line class="st1" x1="264" y1="171" x2="278.4" y2="196.2"/>
<line class="st1" x1="278.7" y1="196.2" x2="288.1" y2="188.9"/>
<line class="st1" x1="263.6" y1="170.5" x2="250.8" y2="195.7"/>
<line class="st1" x1="243.5" y1="180.9" x2="263.2" y2="171.1"/>
<line class="st1" x1="250.5" y1="196" x2="278.6" y2="196.1"/>
<line class="st1" x1="278.8" y1="196.4" x2="281.4" y2="219.3"/>
<line class="st1" x1="278.8" y1="196.5" x2="291.1" y2="209.4"/>
<line class="st1" x1="278.4" y1="196.5" x2="261.5" y2="219.6"/>
<line class="st1" x1="261.1" y1="219.7" x2="250.2" y2="204.1"/>
<line class="st1" x1="250.1" y1="203.8" x2="278.5" y2="196.6"/>
<line class="st1" x1="247.5" y1="216.5" x2="261.2" y2="219.5"/>
<line class="st1" x1="261.3" y1="219.6" x2="281.6" y2="219.4"/>
<line class="st1" x1="261.4" y1="220" x2="277.9" y2="232.8"/>
<line class="st1" x1="261.5" y1="219.8" x2="265.6" y2="241.1"/>
<line class="st1" x1="266" y1="241" x2="277.9" y2="233.2"/>
<line class="st1" x1="266.1" y1="241.2" x2="268.7" y2="249.8"/>
<line class="st1" x1="265.6" y1="241.3" x2="256.9" y2="253.3"/>
<line class="st1" x1="253.7" y1="236.8" x2="265.8" y2="240.9"/>
<line class="st1" x1="261" y1="219.9" x2="253.8" y2="236.5"/>
<line class="st1" x1="261.1" y1="220" x2="252.8" y2="227.2"/>
<line class="st1" x1="265.9" y1="240.9" x2="278.6" y2="239.4"/>
<line class="st1" x1="281.4" y1="219.3" x2="278.3" y2="232.5"/>
</svg>
