<?xml version="1.0" encoding="utf-8"?>
<!-- Generator: Adobe Illustrator 22.1.0, SVG Export Plug-In . SVG Version: 6.00 Build 0)  -->
<svg version="1.1" id="Layer_1" xmlns="http://www.w3.org/2000/svg" xmlns:xlink="http://www.w3.org/1999/xlink" x="0px" y="0px"
	 viewBox="0 0 375 433" style="enable-background:new 0 0 375 433;" xml:space="preserve">
<style type="text/css">
	.st0{clip-path:url(#SVGID_2_);fill:none;stroke:#1D1D1B;}
	.st1{fill:none;stroke:#1D1D1B;}
	.st2{clip-path:url(#SVGID_4_);fill:none;stroke:#1D1D1B;}
	.st3{clip-path:url(#SVGID_6_);fill:none;stroke:#1D1D1B;}
	.st4{fill:#FFFFFF;}
	.st5{clip-path:url(#SVGID_8_);fill:none;stroke:#1D1D1B;}
	.st6{clip-path:url(#SVGID_10_);fill:none;stroke:#1D1D1B;}
</style>
<g>
	<defs>
		<rect id="SVGID_1_" y="-0.4" width="374.2" height="433.4"/>
	</defs>
	<clipPath id="SVGID_2_">
		<use xlink:href="#SVGID_1_"  style="overflow:visible;"/>
	</clipPath>
	<polygon class="st0" points="0.9,421 30.5,339.7 314.1,3.7 320.3,0.2 357.9,27.9 360.6,35 357.9,43.1 306,102 74.3,377.2 	"/>
</g>
<line class="st1" x1="30.4" y1="339.8" x2="35.7" y2="346.9"/>
<line class="st1" x1="35.8" y1="347" x2="45.6" y2="347.8"/>
<line class="st1" x1="45.6" y1="347.8" x2="48.2" y2="355.9"/>
<line class="st1" x1="48.3" y1="355.9" x2="56.3" y2="363"/>
<line class="st1" x1="55.4" y1="363.1" x2="66.2" y2="363.9"/>
<line class="st1" x1="66.2" y1="363.9" x2="67.9" y2="372"/>
<line class="st1" x1="68" y1="372" x2="75.1" y2="377.3"/>
<line class="st1" x1="11.6" y1="389.9" x2="28.6" y2="405"/>
<line class="st1" x1="6.2" y1="406.8" x2="27.7" y2="405.1"/>
<line class="st1" x1="12.5" y1="390.7" x2="13.3" y2="414"/>
<g>
	<defs>
		<rect id="SVGID_3_" y="-0.4" width="374.2" height="433.4"/>
	</defs>
	<clipPath id="SVGID_4_">
		<use xlink:href="#SVGID_3_"  style="overflow:visible;"/>
	</clipPath>
	<line class="st2" x1="0.9" y1="421.1" x2="19.6" y2="397.9"/>
</g>
<line class="st1" x1="19.6" y1="397.9" x2="13.4" y2="414"/>
<line class="st1" x1="6.2" y1="406.8" x2="19.6" y2="397.9"/>
<line class="st1" x1="6.3" y1="406.9" x2="13.3" y2="413"/>
<line class="st1" x1="35.7" y1="347" x2="16.1" y2="393.4"/>
<line class="st1" x1="45.6" y1="347.9" x2="18.8" y2="387.1"/>
<line class="st1" x1="47.3" y1="356.8" x2="19.7" y2="397.9"/>
<line class="st1" x1="19.7" y1="397.8" x2="56.3" y2="363.1"/>
<line class="st1" x1="25.9" y1="402.3" x2="66.1" y2="364"/>
<line class="st1" x1="25.9" y1="402.3" x2="67.9" y2="372"/>
<line class="st1" x1="47.4" y1="356.7" x2="112.7" y2="307.6"/>
<line class="st1" x1="112.7" y1="307.6" x2="65.3" y2="364.8"/>
<line class="st1" x1="66.2" y1="363.9" x2="151.2" y2="286.2"/>
<line class="st1" x1="67.1" y1="372.8" x2="120.7" y2="321.9"/>
<line class="st1" x1="74.3" y1="377.3" x2="161.9" y2="249.5"/>
<line class="st1" x1="44.7" y1="347.8" x2="94.8" y2="329.1"/>
<line class="st1" x1="56.4" y1="363" x2="105.5" y2="274.6"/>
<line class="st1" x1="75.2" y1="352.3" x2="86.7" y2="297.8"/>
<line class="st1" x1="94.9" y1="329" x2="127.9" y2="249.5"/>
<line class="st1" x1="49.2" y1="317.4" x2="86.7" y2="297.8"/>
<line class="st1" x1="86.8" y1="297.7" x2="135.1" y2="281.7"/>
<line class="st1" x1="44.7" y1="347.8" x2="86.7" y2="297.8"/>
<line class="st1" x1="69.8" y1="293.3" x2="69.8" y2="319.2"/>
<line class="st1" x1="49.2" y1="317.5" x2="69.8" y2="318.3"/>
<line class="st1" x1="30.4" y1="340.6" x2="69.7" y2="318.4"/>
<line class="st1" x1="49.2" y1="317.4" x2="53.6" y2="337.1"/>
<line class="st1" x1="30.4" y1="339.7" x2="53.6" y2="337.2"/>
<line class="st1" x1="69.8" y1="293.4" x2="86.8" y2="297.7"/>
<line class="st1" x1="92.2" y1="266.5" x2="105.5" y2="274.5"/>
<line class="st1" x1="93" y1="266.5" x2="86.8" y2="297.8"/>
<line class="st1" x1="69.8" y1="293.3" x2="105.5" y2="274.6"/>
<line class="st1" x1="93.1" y1="265.5" x2="181.6" y2="225.4"/>
<line class="st1" x1="152.1" y1="220.9" x2="112.8" y2="307.6"/>
<line class="st1" x1="112.8" y1="307.6" x2="161.9" y2="249.5"/>
<line class="st1" x1="112.8" y1="307.6" x2="206.7" y2="220.9"/>
<line class="st1" x1="150.4" y1="287" x2="204" y2="199.5"/>
<line class="st1" x1="105.6" y1="274.5" x2="161.9" y2="250.4"/>
<line class="st1" x1="116.3" y1="238.8" x2="127.9" y2="249.5"/>
<line class="st1" x1="116.3" y1="238.8" x2="105.6" y2="274.5"/>
<line class="st1" x1="105.6" y1="274.5" x2="129.7" y2="248.6"/>
<line class="st1" x1="94.9" y1="295.1" x2="99.2" y2="317.4"/>
<line class="st1" x1="82.3" y1="316.6" x2="99.3" y2="317.4"/>
<line class="st1" x1="69.8" y1="318.3" x2="69.8" y2="338.9"/>
<line class="st1" x1="69.8" y1="318.3" x2="82.3" y2="316.6"/>
<line class="st1" x1="144.1" y1="205.7" x2="152.1" y2="221.8"/>
<line class="st1" x1="128" y1="249.5" x2="144" y2="205.7"/>
<line class="st1" x1="116.3" y1="237.8" x2="151.2" y2="220.9"/>
<line class="st1" x1="128.9" y1="249.5" x2="152.1" y2="220.9"/>
<line class="st1" x1="152.1" y1="220.9" x2="180.7" y2="226.2"/>
<line class="st1" x1="152.1" y1="220.9" x2="181.6" y2="202.2"/>
<line class="st1" x1="181.6" y1="201.2" x2="161.1" y2="250.4"/>
<line class="st1" x1="143.2" y1="206.5" x2="171.8" y2="196.8"/>
<line class="st1" x1="171.8" y1="196.8" x2="152.1" y2="220.9"/>
<line class="st1" x1="164.7" y1="180.7" x2="171.7" y2="196.7"/>
<line class="st1" x1="165.5" y1="179.7" x2="192.4" y2="173.6"/>
<line class="st1" x1="192.3" y1="173.6" x2="171.8" y2="196.7"/>
<line class="st1" x1="189.7" y1="151.2" x2="192.3" y2="173.5"/>
<line class="st1" x1="192.3" y1="173.5" x2="180.8" y2="203"/>
<line class="st1" x1="180.8" y1="203" x2="228.1" y2="170.9"/>
<line class="st1" x1="227.2" y1="171.8" x2="204.1" y2="199.4"/>
<line class="st1" x1="180.8" y1="226.2" x2="213.8" y2="149.4"/>
<line class="st1" x1="192.4" y1="173.5" x2="248.7" y2="146.8"/>
<line class="st1" x1="248.7" y1="146.7" x2="227.3" y2="171.7"/>
<line class="st1" x1="206.7" y1="200.3" x2="229.9" y2="127.1"/>
<line class="st1" x1="181.7" y1="225.3" x2="252.3" y2="153.9"/>
<line class="st1" x1="252.3" y1="153.9" x2="206.7" y2="220.9"/>
<line class="st1" x1="191.5" y1="220" x2="266.6" y2="148.5"/>
<line class="st1" x1="181.6" y1="225.4" x2="161.1" y2="251.3"/>
<line class="st1" x1="160.2" y1="252.1" x2="187" y2="227.2"/>
<line class="st1" x1="213.9" y1="149.3" x2="265.7" y2="126.2"/>
<line class="st1" x1="265.7" y1="126.2" x2="247.9" y2="147.6"/>
<line class="st1" x1="247.8" y1="147.6" x2="247" y2="107.4"/>
<line class="st1" x1="247" y1="107.3" x2="294.4" y2="92.2"/>
<line class="st1" x1="294.4" y1="91.3" x2="286.4" y2="125.2"/>
<line class="st1" x1="265.8" y1="126.1" x2="306" y2="102.1"/>
<line class="st1" x1="251.5" y1="154.7" x2="305.1" y2="102.9"/>
<line class="st1" x1="294.4" y1="91.3" x2="251.5" y2="154.7"/>
<line class="st1" x1="265.8" y1="126.1" x2="294.4" y2="91.3"/>
<line class="st1" x1="265.8" y1="126.1" x2="274.7" y2="75.2"/>
<line class="st1" x1="230" y1="127" x2="284.5" y2="83.3"/>
<line class="st1" x1="189.7" y1="151.1" x2="246.9" y2="107.4"/>
<line class="st1" x1="230" y1="127" x2="246.9" y2="107.4"/>
<line class="st1" x1="213.9" y1="149.4" x2="244.2" y2="87.7"/>
<line class="st1" x1="228.2" y1="105.6" x2="247" y2="107.3"/>
<line class="st1" x1="211.6" y1="124.8" x2="225.9" y2="123.1"/>
<line class="st1" x1="227.2" y1="106.5" x2="225.5" y2="124.4"/>
<line class="st1" x1="242.9" y1="87.7" x2="263.5" y2="87.7"/>
<line class="st1" x1="263.1" y1="88.6" x2="263.1" y2="64.5"/>
<line class="st1" x1="263" y1="64.5" x2="247" y2="107.4"/>
<line class="st1" x1="246.1" y1="108.2" x2="274.7" y2="75.2"/>
<line class="st1" x1="262.2" y1="64.5" x2="306" y2="101.1"/>
<line class="st1" x1="284.6" y1="83.2" x2="296.1" y2="38.6"/>
<line class="st1" x1="297.1" y1="38.5" x2="327.5" y2="5.5"/>
<line class="st1" x1="326.7" y1="4.6" x2="358.8" y2="42.1"/>
<line class="st1" x1="269.4" y1="56.5" x2="312.3" y2="94.8"/>
<line class="st1" x1="280.1" y1="58.2" x2="311.4" y2="85"/>
<line class="st1" x1="290" y1="45.7" x2="321.2" y2="70.7"/>
<line class="st1" x1="297.1" y1="38.6" x2="326.6" y2="63.5"/>
<line class="st1" x1="301.6" y1="33.2" x2="339.1" y2="64.4"/>
<line class="st1" x1="305.2" y1="14.4" x2="349" y2="52.8"/>
<line class="st1" x1="273.9" y1="76.1" x2="280" y2="58.2"/>
<line class="st1" x1="273.8" y1="75.1" x2="304.2" y2="57.4"/>
<line class="st1" x1="305.1" y1="57.3" x2="284.6" y2="83.2"/>
<line class="st1" x1="294.4" y1="91.2" x2="311.4" y2="84.2"/>
<line class="st1" x1="311.4" y1="84.1" x2="305.2" y2="58.2"/>
<line class="st1" x1="306.1" y1="102" x2="311.4" y2="84.1"/>
<line class="st1" x1="311.4" y1="84.1" x2="323.9" y2="82.4"/>
<line class="st1" x1="320.4" y1="69.8" x2="323" y2="83.2"/>
<line class="st1" x1="320.4" y1="69.9" x2="332.9" y2="71.6"/>
<line class="st1" x1="326.6" y1="63.6" x2="323.1" y2="83.2"/>
<line class="st1" x1="326.6" y1="63.6" x2="339.2" y2="64.4"/>
<line class="st1" x1="289.1" y1="34.1" x2="297.1" y2="39.4"/>
<line class="st1" x1="297.1" y1="38.6" x2="305.1" y2="58.2"/>
<line class="st1" x1="289.9" y1="45.7" x2="280.1" y2="58.2"/>
<line class="st1" x1="279" y1="45.1" x2="280" y2="58.2"/>
<line class="st1" x1="279.2" y1="45.7" x2="289.9" y2="45.7"/>
<line class="st1" x1="289.1" y1="33.2" x2="289.9" y2="46.6"/>
<line class="st1" x1="295.4" y1="26" x2="297" y2="39.4"/>
<line class="st1" x1="295.3" y1="26.1" x2="301.5" y2="34"/>
<line class="st1" x1="305.1" y1="14.4" x2="301.6" y2="34.1"/>
<g>
	<defs>
		<rect id="SVGID_5_" y="-0.4" width="374.2" height="433.4"/>
	</defs>
	<clipPath id="SVGID_6_">
		<use xlink:href="#SVGID_5_"  style="overflow:visible;"/>
	</clipPath>
	<line class="st3" x1="320.3" y1="0.1" x2="311.5" y2="22.4"/>
</g>
<line class="st1" x1="337.3" y1="12.7" x2="309.7" y2="39.4"/>
<line class="st1" x1="309.7" y1="39.4" x2="313.1" y2="51.9"/>
<line class="st1" x1="313.2" y1="52" x2="349" y2="52.8"/>
<line class="st1" x1="324.9" y1="52.8" x2="337.3" y2="12.6"/>
<line class="st1" x1="305.2" y1="14.5" x2="360.6" y2="35.8"/>
<line class="st1" x1="357.9" y1="27.9" x2="324.9" y2="51.9"/>
<line class="st1" x1="324.8" y1="51.9" x2="358.8" y2="41.3"/>
<line class="st1" x1="338.3" y1="64.5" x2="347.2" y2="19.8"/>
<line class="st1" x1="308.7" y1="39.4" x2="360.6" y2="35"/>
<line class="st1" x1="305.2" y1="14.4" x2="309.6" y2="39.4"/>
<line class="st1" x1="280.1" y1="59.1" x2="312.3" y2="51.1"/>
<polygon class="st4" points="373.3,431.9 343.8,350.5 60.2,14.6 53.9,11 16.3,38.7 13.7,45.9 16.3,53.9 68.2,112.9 299.9,388.1 "/>
<g>
	<defs>
		<rect id="SVGID_7_" y="-0.4" width="374.2" height="433.4"/>
	</defs>
	<clipPath id="SVGID_8_">
		<use xlink:href="#SVGID_7_"  style="overflow:visible;"/>
	</clipPath>
	<polygon class="st5" points="373.3,431.9 343.8,350.5 60.2,14.6 53.9,11 16.3,38.7 13.7,45.9 16.3,53.9 68.2,112.9 299.9,388.1 	
		"/>
</g>
<line class="st1" x1="343.8" y1="350.7" x2="338.5" y2="357.8"/>
<line class="st1" x1="338.5" y1="357.8" x2="328.6" y2="358.6"/>
<line class="st1" x1="328.6" y1="358.7" x2="326" y2="366.7"/>
<line class="st1" x1="325.9" y1="366.8" x2="317.9" y2="373.8"/>
<line class="st1" x1="318.8" y1="373.9" x2="308" y2="374.7"/>
<line class="st1" x1="308" y1="374.8" x2="306.3" y2="382.8"/>
<line class="st1" x1="306.2" y1="382.9" x2="299.1" y2="388.1"/>
<line class="st1" x1="362.6" y1="400.7" x2="345.7" y2="415.8"/>
<line class="st1" x1="368" y1="417.6" x2="346.5" y2="415.9"/>
<line class="st1" x1="361.7" y1="401.6" x2="360.9" y2="424.8"/>
<g>
	<defs>
		<rect id="SVGID_9_" y="-0.4" width="374.2" height="433.4"/>
	</defs>
	<clipPath id="SVGID_10_">
		<use xlink:href="#SVGID_9_"  style="overflow:visible;"/>
	</clipPath>
	<line class="st6" x1="373.3" y1="431.9" x2="354.6" y2="408.8"/>
</g>
<line class="st1" x1="354.6" y1="408.7" x2="360.8" y2="424.8"/>
<line class="st1" x1="368" y1="417.6" x2="354.6" y2="408.8"/>
<line class="st1" x1="368" y1="417.7" x2="360.9" y2="423.9"/>
<line class="st1" x1="338.5" y1="357.8" x2="358.1" y2="404.2"/>
<line class="st1" x1="328.7" y1="358.7" x2="355.4" y2="398"/>
<line class="st1" x1="326.9" y1="367.6" x2="354.5" y2="408.7"/>
<line class="st1" x1="354.6" y1="408.7" x2="317.9" y2="373.9"/>
<line class="st1" x1="348.3" y1="413.2" x2="308.1" y2="374.8"/>
<line class="st1" x1="348.3" y1="413.2" x2="306.3" y2="382.9"/>
<line class="st1" x1="326.8" y1="367.6" x2="261.5" y2="318.5"/>
<line class="st1" x1="261.5" y1="318.5" x2="308.9" y2="375.6"/>
<line class="st1" x1="308" y1="374.7" x2="223.1" y2="297"/>
<line class="st1" x1="307.1" y1="383.7" x2="253.5" y2="332.8"/>
<line class="st1" x1="300" y1="388.1" x2="212.3" y2="260.4"/>
<line class="st1" x1="329.5" y1="358.6" x2="279.4" y2="340"/>
<line class="st1" x1="317.8" y1="373.8" x2="268.7" y2="285.4"/>
<line class="st1" x1="299" y1="363.1" x2="287.5" y2="308.6"/>
<line class="st1" x1="279.4" y1="339.9" x2="246.3" y2="260.4"/>
<line class="st1" x1="325" y1="328.2" x2="287.5" y2="308.7"/>
<line class="st1" x1="287.4" y1="308.6" x2="239.2" y2="292.6"/>
<line class="st1" x1="329.5" y1="358.6" x2="287.5" y2="308.7"/>
<line class="st1" x1="304.4" y1="304.1" x2="304.4" y2="330.1"/>
<line class="st1" x1="325.1" y1="328.3" x2="304.5" y2="329.1"/>
<line class="st1" x1="343.8" y1="351.5" x2="304.5" y2="329.2"/>
<line class="st1" x1="325" y1="328.3" x2="320.6" y2="347.9"/>
<line class="st1" x1="343.8" y1="350.6" x2="320.6" y2="348"/>
<line class="st1" x1="304.5" y1="304.2" x2="287.5" y2="308.6"/>
<line class="st1" x1="282.1" y1="277.4" x2="268.7" y2="285.3"/>
<line class="st1" x1="281.3" y1="277.3" x2="287.4" y2="308.6"/>
<line class="st1" x1="304.4" y1="304.1" x2="268.7" y2="285.4"/>
<line class="st1" x1="281.2" y1="276.4" x2="192.6" y2="236.3"/>
<line class="st1" x1="222.2" y1="231.8" x2="261.5" y2="318.4"/>
<line class="st1" x1="261.5" y1="318.4" x2="212.3" y2="260.4"/>
<line class="st1" x1="261.5" y1="318.4" x2="167.6" y2="231.8"/>
<line class="st1" x1="223.9" y1="297.9" x2="170.3" y2="210.3"/>
<line class="st1" x1="268.6" y1="285.3" x2="212.3" y2="261.3"/>
<line class="st1" x1="257.9" y1="249.7" x2="246.3" y2="260.3"/>
<line class="st1" x1="258" y1="249.6" x2="268.6" y2="285.4"/>
<line class="st1" x1="268.6" y1="285.3" x2="244.5" y2="259.5"/>
<line class="st1" x1="279.4" y1="305.9" x2="275" y2="328.3"/>
<line class="st1" x1="291.9" y1="327.4" x2="274.9" y2="328.2"/>
<line class="st1" x1="304.4" y1="329.2" x2="304.4" y2="349.7"/>
<line class="st1" x1="304.5" y1="329.1" x2="291.9" y2="327.4"/>
<line class="st1" x1="230.1" y1="216.6" x2="222.2" y2="232.6"/>
<line class="st1" x1="246.2" y1="260.3" x2="230.2" y2="216.6"/>
<line class="st1" x1="257.9" y1="248.7" x2="223" y2="231.8"/>
<line class="st1" x1="245.4" y1="260.3" x2="222.2" y2="231.8"/>
<line class="st1" x1="222.1" y1="231.8" x2="193.5" y2="237.1"/>
<line class="st1" x1="222.1" y1="231.7" x2="192.6" y2="213"/>
<line class="st1" x1="192.6" y1="212.1" x2="213.1" y2="261.2"/>
<line class="st1" x1="231.1" y1="217.4" x2="202.5" y2="207.7"/>
<line class="st1" x1="202.5" y1="207.6" x2="222.1" y2="231.7"/>
<line class="st1" x1="209.6" y1="191.5" x2="202.5" y2="207.6"/>
<line class="st1" x1="208.7" y1="190.6" x2="181.9" y2="184.4"/>
<line class="st1" x1="181.9" y1="184.4" x2="202.4" y2="207.6"/>
<line class="st1" x1="184.5" y1="162" x2="181.9" y2="184.4"/>
<line class="st1" x1="181.9" y1="184.4" x2="193.4" y2="213.8"/>
<line class="st1" x1="193.5" y1="213.8" x2="146.1" y2="181.7"/>
<line class="st1" x1="147" y1="182.6" x2="170.2" y2="210.3"/>
<line class="st1" x1="193.4" y1="237.1" x2="160.4" y2="160.3"/>
<line class="st1" x1="181.8" y1="184.3" x2="125.5" y2="157.6"/>
<line class="st1" x1="125.5" y1="157.6" x2="146.9" y2="182.5"/>
<line class="st1" x1="167.5" y1="211.2" x2="144.3" y2="137.9"/>
<line class="st1" x1="192.6" y1="236.2" x2="121.9" y2="164.7"/>
<line class="st1" x1="121.9" y1="164.7" x2="167.5" y2="231.7"/>
<line class="st1" x1="182.7" y1="230.8" x2="107.6" y2="159.4"/>
<line class="st1" x1="192.6" y1="236.2" x2="213.1" y2="262.1"/>
<line class="st1" x1="214" y1="263" x2="187.3" y2="238"/>
<line class="st1" x1="160.4" y1="160.2" x2="108.5" y2="137"/>
<line class="st1" x1="108.5" y1="137" x2="126.3" y2="158.4"/>
<line class="st1" x1="126.4" y1="158.4" x2="127.2" y2="118.2"/>
<line class="st1" x1="127.2" y1="118.2" x2="79.8" y2="103.1"/>
<line class="st1" x1="79.9" y1="102.1" x2="87.8" y2="136.1"/>
<line class="st1" x1="108.4" y1="136.9" x2="68.2" y2="112.9"/>
<line class="st1" x1="122.7" y1="165.6" x2="69.1" y2="113.8"/>
<line class="st1" x1="79.9" y1="102.2" x2="122.7" y2="165.6"/>
<line class="st1" x1="108.4" y1="137" x2="79.9" y2="102.2"/>
<line class="st1" x1="108.4" y1="137" x2="99.6" y2="86"/>
<line class="st1" x1="144.2" y1="137.8" x2="89.7" y2="94.1"/>
<line class="st1" x1="184.5" y1="162" x2="127.3" y2="118.3"/>
<line class="st1" x1="144.2" y1="137.9" x2="127.3" y2="118.3"/>
<line class="st1" x1="160.3" y1="160.2" x2="130" y2="98.6"/>
<line class="st1" x1="146.1" y1="116.5" x2="127.3" y2="118.2"/>
<line class="st1" x1="162.6" y1="135.7" x2="148.3" y2="134"/>
<line class="st1" x1="147" y1="117.3" x2="148.7" y2="135.2"/>
<line class="st1" x1="131.4" y1="98.6" x2="110.8" y2="98.6"/>
<line class="st1" x1="111.2" y1="99.4" x2="111.2" y2="75.3"/>
<line class="st1" x1="111.2" y1="75.3" x2="127.2" y2="118.2"/>
<line class="st1" x1="128.1" y1="119.1" x2="99.6" y2="86.1"/>
<line class="st1" x1="112" y1="75.4" x2="68.2" y2="111.9"/>
<line class="st1" x1="89.6" y1="94.1" x2="78.1" y2="49.4"/>
<line class="st1" x1="77.1" y1="49.4" x2="46.8" y2="16.4"/>
<line class="st1" x1="47.6" y1="15.5" x2="15.4" y2="52.9"/>
<line class="st1" x1="104.9" y1="67.3" x2="62" y2="105.7"/>
<line class="st1" x1="94.1" y1="69.1" x2="62.9" y2="95.8"/>
<line class="st1" x1="84.3" y1="56.6" x2="53" y2="81.5"/>
<line class="st1" x1="77.1" y1="49.4" x2="47.6" y2="74.4"/>
<line class="st1" x1="72.6" y1="44.1" x2="35.1" y2="75.3"/>
<line class="st1" x1="69.1" y1="25.3" x2="25.3" y2="63.7"/>
<line class="st1" x1="100.4" y1="86.9" x2="94.2" y2="69.1"/>
<line class="st1" x1="100.4" y1="86" x2="70" y2="68.2"/>
<line class="st1" x1="69.1" y1="68.2" x2="89.6" y2="94.1"/>
<line class="st1" x1="79.8" y1="102.1" x2="62.8" y2="95"/>
<line class="st1" x1="62.9" y1="95" x2="69" y2="69.1"/>
<line class="st1" x1="68.1" y1="112.8" x2="62.9" y2="95"/>
<line class="st1" x1="62.8" y1="94.9" x2="50.3" y2="93.2"/>
<line class="st1" x1="53.8" y1="80.7" x2="51.2" y2="94.1"/>
<line class="st1" x1="53.9" y1="80.7" x2="41.3" y2="82.4"/>
<line class="st1" x1="47.7" y1="74.4" x2="51.1" y2="94.1"/>
<line class="st1" x1="47.6" y1="74.5" x2="35.1" y2="75.3"/>
<line class="st1" x1="85.2" y1="45" x2="77.2" y2="50.2"/>
<line class="st1" x1="77.1" y1="49.4" x2="69.1" y2="69"/>
<line class="st1" x1="84.3" y1="56.6" x2="94.1" y2="69"/>
<line class="st1" x1="95.3" y1="55.9" x2="94.2" y2="69.1"/>
<line class="st1" x1="95" y1="56.6" x2="84.3" y2="56.6"/>
<line class="st1" x1="85.1" y1="44" x2="84.4" y2="57.4"/>
<line class="st1" x1="78.9" y1="36.9" x2="77.2" y2="50.3"/>
<line class="st1" x1="78.9" y1="36.9" x2="72.7" y2="44.9"/>
<line class="st1" x1="69.1" y1="25.3" x2="72.6" y2="44.9"/>
<line class="st1" x1="53.9" y1="11" x2="62.8" y2="33.3"/>
<line class="st1" x1="36.9" y1="23.5" x2="64.6" y2="50.2"/>
<line class="st1" x1="64.6" y1="50.3" x2="61.1" y2="62.8"/>
<line class="st1" x1="61" y1="62.9" x2="25.2" y2="63.6"/>
<line class="st1" x1="49.3" y1="63.7" x2="36.9" y2="23.5"/>
<line class="st1" x1="69.1" y1="25.3" x2="13.6" y2="46.7"/>
<line class="st1" x1="16.3" y1="38.7" x2="49.4" y2="62.8"/>
<line class="st1" x1="49.4" y1="62.7" x2="15.4" y2="52.1"/>
<line class="st1" x1="35.9" y1="75.3" x2="27.1" y2="30.6"/>
<line class="st1" x1="65.5" y1="50.2" x2="13.6" y2="45.9"/>
<line class="st1" x1="69" y1="25.3" x2="64.7" y2="50.3"/>
<line class="st1" x1="94.1" y1="69.9" x2="61.9" y2="62"/>
</svg>
