<?xml version="1.0" encoding="utf-8"?>
<!-- Generator: Adobe Illustrator 22.1.0, SVG Export Plug-In . SVG Version: 6.00 Build 0)  -->
<svg version="1.1" id="Layer_1" xmlns="http://www.w3.org/2000/svg" xmlns:xlink="http://www.w3.org/1999/xlink" x="0px" y="0px"
	 viewBox="0 0 395 389" style="enable-background:new 0 0 395 389;" xml:space="preserve">
<style type="text/css">
	.st0{clip-path:url(#SVGID_2_);fill:none;stroke:#1D1D1B;stroke-width:0.75;stroke-miterlimit:10;}
</style>
<g>
	<defs>
		<rect id="SVGID_1_" width="395" height="389"/>
	</defs>
	<clipPath id="SVGID_2_">
		<use xlink:href="#SVGID_1_"  style="overflow:visible;"/>
	</clipPath>
	<path class="st0" d="M209.1,200.6l5.2-13.3 M214.3,187.4l-15.7,6.1 M209.1,200.6l-10.4-7.1 M198.7,193.5v17.1 M218,209.5l-8.9-8.9
		 M216.7,201.7l-7.6-1.1 M212.1,216.5l-3-15.9 M198.7,210.6l10.4-10 M218,209.5l-5.9,7 M223.6,223.8l-11.5-7.3 M217.9,231.7l7.1-1.5
		 M199.8,225.1l12.4-8.6 M218,232.8l-5.9-16.4 M212.1,216.5l-13.5-5.9 M199.8,225.1l-1.1-14.5 M183.9,217.7l4.3-14.2 M188.2,203.5
		l10.5,7.1 M183.9,217.7l14.8-7.1 M188.2,203.5l-11,3.7 M177.2,207.2l6.7,10.5 M182.1,232.1l1.8-14.4 M173.1,221.9l10.8-4.2
		 M199.8,225.1l-15.9-7.4 M173.1,221.9l9,10.1 M208.9,242.8l-9.1-17.7 M182.1,232.1l17.7-7 M199.8,225.1l18.3,7.7 M218,232.8
		l3.5,6.4 M221.5,239.3l-12.6,3.5 M217.9,231.7l-9,11.1 M182.1,232.1l26.8,10.7 M191.5,250.1l-15.3-3.7 M176.2,246.5l5.8-14.4
		 M172.9,237.3l9.2-5.2 M182.1,232.1l9.5,18.1 M138.3,268.3l5.1,0.9 M143.3,269.2l-8.4-9.8 M138.7,256.7l-5.6-2 M133.2,254.7
		l2.2-7.2 M135.3,247.5l-4.3,1.4 M131,248.9l1.6-9 M132.5,240l-6.9-5.3 M125.6,234.7l3.6-3.7 M129.2,231l-7.2-6 M116.1,209.4
		l7.4,6.1 M123.5,215.5L122,225 M116.1,209.4l0.8-11.8 M116.9,197.6l-6.5-3.4 M110.4,194.2l1.5-10.2 M111.9,184l-9.3-10.5
		 M105.6,166.8l-2.9,6.7 M98.6,162.2l7,4.5 M94.3,151.3l3.1-6.7 M98.6,162.8l-1.2-18.2 M97.4,144.6l-5.7-0.4 M91.6,144.2l1.6-10.8
		 M93.3,133.4l-5.6,0.2 M87.7,133.6l0.2-14.8 M87.9,118.8l-6.4-1.6 M81.5,117.2l2.5-9 M84,108.2l-6.5-1.8 M77.4,106.4l1.1-13.1
		 M71.3,81.6l7.2,11.8 M78.5,93.4l-5.2,1.7 M70.7,81.5l2.6,14.6 M66.7,92.2l6.6,3.9 M73.3,95.1l-13.4,15.2 M59.9,110.3l4.4,6.8
		 M64.3,118.1l-8.7,3.5 M55.7,121.5l3.7,9.5 M51.8,131.9l7.6,0.2 M51.8,131.9l0.6,17.1 M52.4,150l-7.2-0.6 M45.2,149.4l1.2,15.6
		 M46.4,165l-6.9-0.3 M39.4,164.7l1.9,13.3 M41.4,178l-8.3,3.6 M33.1,181.6l4.3,6.4 M37.4,187.9l-7.7,2.7 M29.7,190.6l4.4,7.2
		 M34.1,197.8l-8.2,2.7 M26,200.5l4.5,6.5 M30.4,207.1l-8.1,3.2 M22.3,210.2l3.8,7.6 M26.1,217.8l-7.6,2.5 M18.5,220.3l4.3,5.7
		 M22.8,226l-7.3,2.2 M15.5,228.2l3.3,7.7 M18.9,235.9l-7.6,3.7 M11.2,239.7l2.2,9.9 M13.4,249.5L8,248.3 M8,248.3l3.7,5.5
		 M11.7,253.9l-7.4,4.4 M4.3,258.2l3.6,5.3 M0.4,268.5l7.5-5 M215.4,257.3l-6.5-14.5 M208.9,242.8l-17.3,7.4 M192.2,266.3l-0.6-16.1
		 M178,253.8l13.5-3.7 M191.5,250.1l14.5,8.5 M206,258.7l-10.1,11 M216.2,257.1l-29.2,4.7 M206,258.7l6.1,9.6 M208.9,242.8
		l-4.7,26.2 M178,253.8l18,15.8 M196,269.6l0.3,9.6 M212.2,268.3l-15.9,11 M196.2,279.2l-13.1-8.5 M183.1,270.7l29.1-2.4
		 M208.7,285.7l-12.5-6.5 M196.2,279.2l-9.4,8.6 M186.8,287.8l21.9-2.1 M196.2,279.2l-5.4,13.7 M190.8,292.9l17.9-7.2 M208.7,285.7
		l-11.2,14.3 M186.8,287.8l10.7,12.3 M205.5,302.1l-16.8-4.2 M188.6,297.8l8.5,10.9 M191.8,313.3l13.7-11.2 M190.3,306.8l13.6,3.8
		 M193.8,322.5l10.1-11.8 M191.8,313.3l10.7,5 M194.6,328l7.9-9.7 M193.8,322.5l6.9,5.3 M195.4,342.3l4.9-6.1 M194.6,328l5.8,8.2
		 M204,356.1l-3.9-13.4 M199.7,343.1v6.7 M195.5,342.8l8.5,13.3 M200,342.7l12,9.9 M198.7,367.7l-6.4-12.1 M191.9,355.6l12.6,0.3
		 M204,356.1l-5.3,11.6 M195.8,342.4l-4.1,13.8 M183.4,348l8.3,8.1 M269.9,383.8l-11.4-9.9 M259.9,362.2l-2.9,26.5 M248.5,362.8
		l9.3,11.9 M241.4,362.1l6.8,7.2 M235.1,371.8l13.1-2.4 M248.2,362.3l-0.9,18.8 M228.3,380.7l7.4,7.9 M235.1,371.8l22,16.9
		 M268.9,367.1l-33.2,21.5 M215.1,388.6l13.2-7.9 M226.6,388.6l1.7-7.9 M241.4,362.1l-13.1,18.6 M233.7,357.4l-5.4,23.3
		 M216.6,371.8l11.7,9 M208,379.6l26.4-22.8 M209.7,361.7l6.9,10.1 M228.3,380.7l-20.3-1.1 M208,379.6l1.7-18 M209.7,361.7l-11.1,6
		 M203.6,388.6l1.9-12.3 M190.5,380.2l15-3.8 M182.7,368.7l7.5-8.9 M190.1,359.8l8.5,7.9 M182.7,368.7l16-1 M190.5,380.2l8.1-12.5
		 M198.7,367.7l16.4,21 M203.6,388.6l-13.1-8.5 M190.5,380.2l-9.4,8.5 M174,380.7l16.5-0.5 M190.5,380.2l-7.8-11.5 M173.3,360.3
		l9.3,8.4 M182.7,368.7l-8.9,12.3 M173.3,360.3l0.5,20.8 M169.4,388.1l4.6-7.4 M173.5,380.7l7.6,7.9 M160.5,380.4l5.9-12
		 M150.2,370.8l16.2-2.4 M174,380.7l-15.2-24.6 M150.2,370.8l-15.8-3.1 M152.1,362.8l-4.3,17.9 M147.8,380.7l26.2,0 M141.5,362.8
		l27.9,25.8 M134.3,367.7l6.2-4.9 M147.8,380.7l-10.7,7.9 M131,381.4l6.1,7.2 M131,381.4l17.2-0.7 M126,367.6l8.3,0.1 M130.5,364.1
		l26.2,24.5 M124.2,383.6l4.5,5 M131.2,380.7l-6.6-7.3 M124.6,373.3l10.1-5.9 M134.7,367.5l-5.6,21.1 M256.3,268.3l66.6-177.5
		l66.6,177.5H256.3z M138.3,268.3H5.9L73.3,95.1L138.3,268.3z M327.5,88.5l-4.4-7.1l-9.2-1.6l-8.3-2.8l-12,4.4l-12.2-9l-2.5-3H268
		l-14.8,7.1l-12.2-5.3l-9.2-1.8l-13.1,4.4l-13.8,6.2l-6.2,1.4l12.9-12l6.2-9.5l-1.4-7.1l-5.8-9.9l-8.3-10.4l-3.7-3.5l7.1-1.2l5.8-9
		l0.5-8.1l-7.4-8.3l-6.2-2.1l-9.7,2.5l-6.2,9.9l1.4,8.8l6.2,6.2l5.1,2.5l-11.8,12.9l-6,9.5v6.2l1.4,3.9l6.9,9.2l8.3,8.1l-6.2-0.2
		l-11.3-6.7l-7.6-3.5l-9.5-0.9l-11.3,4.6l-8.3,3l-10.1-5.5l-11.1-2.5l-13.1,9l-3.2,4.1l-8.8-4.1l-5.8-0.7L76,82l-5.3-0.5l-70.3,187
		l1.8,8.8c0.2,1.4,4.1,9.9,4.1,9.9l7.4,8.5l9.7,7.8l11.5,5.3l10.8,4.4l11.5,1.8l12.2,1.4h11.3l11.5-2.1l10.8-3.2l10.6-3.7l15.4-10.6
		l10.4-12.9l3.7-14.8l-65-176.4l5.1-3.5l3.2,2.1l12.2-0.7l3.9-2.5l10.6,4.8l13.1,0.9l10.6-4.1l3.7-1.6l6.7,1.6l15.4,1.6l12.2-0.2
		l11.8-3l8.5-1.2l-2.1,25.1l-2.8,22.8l-5.1,31.1l-8.3,41l-4.1,14.8l-3,8.3l5.8,14.5l4.2,17.3l5.5,18.4l4.4,24.4l3.9,17.5l1.6,19.8
		l-12,5.8l-1.4,3.7l9.7,4.4l-1.6,3.7l-10.8,1.8l-12-2.8l-8.5-2.8l-6.7,6.7h-11.5h-6.2l-4.8,1.6l-3.5,3.2l-1.4,5.3l-0.5,11.1
		l-1.6,4.6h14.5h135.1l-2.3-4.8l0.7-4.6l-0.9-11.5l-3.9-2.8l-5.8-3l-5.1,0.5h-8.1l-6-0.2l-6.5-5.3l-11.8,3.7l-12.9,1.2l-5.8-5.5
		l8.1-3.5l0.9-4.6l-12.9-5.3l0.7-15l4.6-25.1l7.1-36l6-19.4l6.5-17.1l-1.6-7.8l-5.3-12.9l-3.7-22.1l-7.4-39.4l-6.5-41.3L200,87.1
		l4.4-1.2l11.8,4.6l17.1,1.6L254,88l18.2,6.2l20.1-5.1l9.5,2.5l9.2-1.2l8.8-4.6l-68,181l1.8,12.7l7.4,12.4c0,0,10.4,10.4,12.9,11.1
		c2.5,0.7,18.7,9.2,18.7,9.2l19.4,3.7l20.3,0.9l21.4-4.6l18-7.4l13.4-12.7l8.1-15.9l1.6-8.3L327.5,88.5z"/>
	<path class="st0" d="M184.6,56.2l0.7,15.4 M198.7,29l-3.5,1.4 M195.2,30.4l1.7,14.9 M204.1,42.1L198.7,29 M198.7,29l-1.2,16.4
		 M207.7,40.3l-10.1,5.1 M183.5,43.3l14.1,2.1 M197.5,45.3l-12.9,10.8 M178,53l6.6,3.2 M178.8,62.9l5.8-6.7 M183.5,43.3l1.2,12.9
		 M199.7,81.1l-5.7-0.9 M194.1,80.2l1.4,6.9 M306,135.8l-2.9-6 M312.2,119.5l-3.7-2.2 M308.4,117.4l13.7-26.1 M316.8,95.3l-4.6,24.2
		 M308.1,117l-2,18.9 M323,90.8l-6.7,4.4 M300.3,138.6l5.8-2.7 M296.6,147.4l5.3-0.6 M299.9,138.6l2,8.1 M301.9,146.7l-9.4,11.5
		 M292.5,158.3l0.7,11.8 M293.2,170.1l-5.7,1.5 M287.5,171.6l2,9.4 M289.5,181l-6.7,3.1 M282.8,184.1l0.9,11 M278,196.9l5.8-1.7
		 M283.7,195.4l-9,10.3 M274.7,205.7l-2,19 M270,218.2l2.7,6.5 M272.7,224.7L266,229 M266,229l2.5,7.1 M268.4,236l-7.4,6.2
		 M261,242.2l3.5,4.2 M264.5,246.4l-8.2,8 M256.3,254.4v13.9 M256.3,268.3l-4.6-1.4 M339.2,268.3l14.5,22 M321.1,268.3l32.6,22
		 M339.3,269.5l-14.6,19.6 M321.1,268.3l3.6,20.8 M306.3,269l18.4,20 M321.1,268.3l-13.6,20.2 M307.5,288.5l-1.2-20.2 M280.5,287.6
		l15.4-10.9 M307.5,288.5l-19.8-20.2 M315.8,299.9l11.6-10.6 M327.5,289.3l11.1,10 M348.4,289.9l-4.2,24.5 M353.7,290.3l-9.5,24.1
		 M344.1,314.3l-11.1-9.6 M325.3,312.1l8.5-8.1 M332.1,315.8l-4.6-26.5 M327.5,289.3l-2.3,23.5 M307.5,288.5l17.7,24.3 M333,304.7
		l15.4-14.8 M310,303.8l22.2,13.1 M299.9,306.8l7.6-18.3 M311.9,316l-4.4-27.5 M307.5,288.5L289,299 M292.9,311.6L289,299 M289,299
		l23.8,17 M283.6,307.7l12.3-19.6 M288.7,268.3l-8.2,19.3 M368.8,290.5l-88.3-3 M353.8,268.3l-0.2,44 M270.3,289.3l18.4-21
		 M283.6,307.7l-6-39.4 M270.3,289.3l7.2-21 M262.3,277.3l15.2-9 M256.3,268.3l-2.8,11.3 M253.5,279.6l9.2-1.6 M262.8,278l-1.8,14.1
		 M260.9,292l12.6,2.2 M272.1,302.1l1.4-8 M256.3,268.3l25.7,38.6 M366.3,269.5l-12.3,9.9 M378.3,297.6l6.2-15.2 M384.4,282.5
		l-15.6,8.1 M366.3,268.3l2.6,22.3 M378.3,297.6l-39.1-29.4 M383.6,268.3l-28.9,43.6 M366.3,268.3l18.2,14.2 M392.4,277.6l-8.1-9.3
		 M383.6,268.3l1.4,24 M390.2,268.3l2.2,9.3 M365.1,189l-3.2,5.5 M364.7,201.9l3.2-4.9 M361.9,194.5l5.9,2.5 M364.7,201.9l6.3,2.8
		 M371,204.7l-3,6 M368,210.7l6.7,3.8 M374.4,213.8l0.6,15.5 M378.3,224.1l-3.3,5.2 M375,229.3l6.6,3.7 M381.6,233l-3.4,4.8
		 M378.1,237.8l6.4,3.2 M384.6,241l-3.3,5 M381.2,246l6.4,3.2 M387.6,249.2l-2.4,7.4 M385.2,256.6l5.2,0.1 M390.4,256.8l-0.9,10.6
		 M394.7,268l-4.5,0.2 M390.2,268.3l2.6-5.1 M365.1,189l-6.3-3.3 M358.8,185.7l1.6-6.2 M361.9,180.5l-6.3-3.8 M355.6,163.4l0.1,13.2
		 M360.4,176.2l-9.4-10.8 M351,165.4l4.6-2 M355.6,163.4l-6.2-2.3 M349.4,161.2l3.2-5.8 M352.6,155.3l-9-9.6 M343.6,145.7l4.4-2.6
		 M348,143.1l-8.8-9.1 M339.2,134.1l2.2-8.4 M341.4,125.6l-6.3-2.3 M335.2,123.3l1.6-10.1 M336.8,113.2l-5.3,0.3 M331.5,113.5
		l2.9-6.8 M334.4,106.7l-7-4.3 M327.3,102.4l2.3-8.4 M329.7,94.1l-6.7-3.3 M323,90.8v-8.6 M323,82.1l-3.2,3.8 M315.7,88l-0.3-8.1
		 M315.4,79.9l-10.9,1.2 M315.7,88l-11.2-6.9 M305.7,76.9l-3.9,14.8 M305.7,76.9l-13.4,12.2 M291.8,80.8l0.5,8.3 M284,91.2l7.8-10.4
		 M291.8,80.8l-15.6-0.2 M278.1,69.3l-1.9,11.3 M268.5,70L284,91.2 M284,91.2l-15.3-4.2 M268.5,70l0.2,17.1 M272.2,94.2L264.7,79
		 M266.4,70.9l-4.3,19.8 M254,88l2.8-7.7 M256.8,80.3l5.3,10.4 M268.1,69.3l-19.5,19.1 M248.5,88.4l4.8-11.9 M246,73.3l2.6,15.8
		 M248.6,89.1l-13-7.6 M246,73.3l-10.4,8.1 M231.9,69.3l-4.5,6.1 M227.4,75.4l8.2,6 M237.9,71l-4.6,21.1 M219.3,90.8l9-11.8
		 M225.6,72.1l7.6,20.1 M225.6,72.1l-7,18.7 M205.5,79.6l13.1,11.1 M225.6,72.1l-21.2,13.8 M204.4,85.9l1.1-6.3 M205.5,79.6
		l-5.5,7.4 M200.1,87.1l-0.3-6 M199.7,81.1l-4.3,6 M195.4,87.1h4.6 M200.1,87.1l-5,9.3 M195,96.4l5.5,8.4 M200.5,105.6L194,105
		 M194,105l8.4,13.5 M192.9,115.9l9.4,2.6 M202.4,118.5l-3.7,5.8 M205,133.8l-12.1-17.9 M196,141.5l2.5-17.9 M198.5,123.6l-7,4
		 M191.5,127.6l4.5,13.9 M200.7,148.7l3.9-15.6 M188.3,149l16.3-15.8 M190.6,135l10.1,13.7 M190.5,187.5l-5-21.3 M200.8,162
		l-15.1,3.5 M185.6,165.5l9.4,11.3 M211.7,173.4l-12.5,6.8 M214.4,187.4l-9.1-3.9 M211.7,173.4l-13.1,20.1 M198.7,193.5l2.1-31.5
		 M209.3,160.2l-8.5,1.8 M200.7,148.7l0,13.2 M206.5,149.4l-16,38 M188.3,149l23.4,24.4 M201.2,148.8l-15.6,16.7 M188.9,148.5
		l18.3,0.4 M198.7,193.5l-10.5,10 M188.2,203.5l-9.1-5.9 M179.2,197.6l11.4-10.2 M188.2,203.5l2.3-16 M182.4,181.5l16.2,12"/>
	<path class="st0" d="M195.3,86.5l-7.5-6.6 M174,78l14.1,2.3 M180.7,89.4l7.1-9.5 M166.4,81.2L174,78 M180.7,89.8l-10-4.9
		 M174.2,77.5l-3.5,7.4 M169.8,70.7l10.9,19.1 M139.8,76.7l10.8,1.6 M168.9,69.8l-4.9,22 M159.5,68.8l4.5,22.9 M168.9,69.8l-21,20.1
		 M147.9,89.9l11.6-21 M140.2,76.7l0.6,11.5 M159.5,69.2l-18.8,19 M136.3,90.1l3.6-13.7 M125.7,77.1l14.4-0.4 M136.3,90.1l-6.6-19.2
		 M129.7,70.9l-4,6.2 M125.7,77.1l0.4,16.8 M112.3,76.7l1,16.3 M118.6,68.4l0.6,16.7 M103,80.6l10.3,12.5 M113.3,93.1l12.4-15.9
		 M112.3,76.3L126.1,94 M136.3,90.1l-17.6-21.8 M118.6,68.4l-15.9,19.8 M98.8,90.8L97,84.8 M102.3,81.5l0.5,6.7 M93.5,77.4
		l-6.3,13.7 M102.3,81.5l-15.7,9.9 M86.6,91.4l1.2-14.8 M87.8,77.1l-4.4,12.3 M78.3,92.8L76,82 M76,82l7.4,7.4 M45,277.3l-10.4-8.6
		 M34.7,268.8l-8.3,7.7 M26.1,268.3l0.3,8.1 M34.7,268.8l7.1,19.4 M139.6,268.8l-5,20.7 M129.3,296.9l-8.7-3.8 M121.8,302l-1.6-8.9
		 M120.2,293.1l14.5-3 M134.7,290.1l-2.4-21.8 M132.3,268.3l-16.5,17.6 M120.2,293.1l-4.4-7.2 M113.7,306.7l2.1-20.8 M120.4,268.8
		l-4.6,17.1 M99.3,288.6l16.5-2.7 M131.9,268.8l-18.1,38.7 M98.7,268.8l17.1,17.1 M120.5,268.3l-21.2,20.3 M104,310.9l-4.7-22.3
		 M92.4,314.4l6.9-25.8 M113.8,307.5l-14.5-18.9 M99.3,288.6l-1.1-20.3 M98.2,268.3l-12.6,9.4 M74.3,268.8l24.9,19.8 M81.5,316.4
		l17.8-27.8 M99.3,288.6l-18.7,1.7 M74.6,268.3l6,22 M80.6,290.3l0.9,26.1 M81.5,316.4l-15.8-10.5 M68,279.5l-2.4,26.4 M56.9,315
		l23.8-24.8 M61.5,290.7l7.1,26 M80.6,290.3L68,279.5 M60.9,268.3l7.1,11.2 M74.6,268.3l-13.1,22.4 M45.8,313.3l15.7-22.5
		 M60.3,268.3l1.2,22.4 M61.5,290.7l-19.7-2.6 M60.3,268.3l-18.6,19.8 M45.8,313.3l-4.1-25.1 M41.7,288.1L35,308.9 M23.4,303.6
		l4.1-8.8 M35,308.9l-7.4-14.1 M41.7,288.1l-14.1,6.6 M14.4,295.9l13.2-1.2 M20.8,272.2l6.8,22.5 M9.7,280.5l17.9,14.2 M47.8,268.3
		l-6.1,19.8 M15.7,268.3l26.1,19.8 M9.7,280.5l16.4-12.2 M5.9,268.3l8.6,28 M15.7,268.3l-9.3,18.9 M6.4,287.2L6,268 M6,268l-3.8,9.3
		 M201,20.5l-1.2,8.3 M199.8,28.8l-5.7-7.4 M194.1,21.4l6.9-0.9 M204.9,27.9l-6.9-13.2 M212,10.7l-13.9,4 M205.3,3.2l-0.3,24.8
		 M204.9,3.8l-10.2,4.6 M200.3,1l-5.6,7.4 M194.7,8.4l3.3,6.3 M191.5,13.8l3.2-5.4 M183.7,20.3l14.4-5.5 M182.5,12.8l15.6,2
		 M190.1,27.8l8-13 M190,2.6l4.7,5.9 M202.6,54.9l8.9-10.6 M198.1,81.6l4.5-26.7 M217.8,59.9l-15.2-5 M196.4,55.8l19.9-3.1
		 M197.5,45.3l13.2,24.8 M208,39.5l-14,40.6 M194,80.1l-3.5-16.3 M184.6,56.2l5.9,7.7 M185.3,71.5l11.1-15.7 M196.4,55.8l-11.9,0.3"
		/>
</g>
</svg>
