<?xml version="1.0" encoding="utf-8"?>
<!-- Generator: Adobe Illustrator 22.1.0, SVG Export Plug-In . SVG Version: 6.00 Build 0)  -->
<svg version="1.1" id="Layer_1" xmlns="http://www.w3.org/2000/svg" xmlns:xlink="http://www.w3.org/1999/xlink" x="0px" y="0px"
	 viewBox="0 0 750 864" style="enable-background:new 0 0 750 864;" xml:space="preserve">
<style type="text/css">
	.st0{fill:none;stroke:#1D1D1B;stroke-miterlimit:10;}
	.st1{clip-path:url(#SVGID_2_);fill:none;stroke:#1D1D1B;stroke-miterlimit:10;}
</style>
<polyline class="st0" points="532.1,41.1 518.9,27.8 532.1,47.2 "/>
<polyline class="st0" points="476.6,66.1 487.8,45 490.9,26.6 484.4,44.8 474.1,59.8 472.3,78.6 "/>
<polyline class="st0" points="291.1,463.2 286.6,434.4 272.1,414.5 286.2,422.2 292.1,425.2 "/>
<polyline class="st0" points="308.8,425.4 313.7,428.1 336.7,413.3 310.8,436.6 "/>
<g>
	<defs>
		<rect id="SVGID_1_" y="-1.4" width="749.1" height="864.4"/>
	</defs>
	<clipPath id="SVGID_2_">
		<use xlink:href="#SVGID_1_"  style="overflow:visible;"/>
	</clipPath>
	<path class="st1" d="M406.3,862.5l1.3-30.6l-4-31.3l-4.7-27.6l-7.7-14.5l8.4-22.2l-13.1-39l5.4-45.1l57.2-25.9l45.4-13.1l10.1-18.5
		l25.6-13.5l10.8,2l-2.4-3.4l48.8-1.7l7.1-3.4l34.7-0.3l-17.8-4.4l18.9-9.1l-25.9,5.4l-11.1,1l-7.1,5.4l-52.2,1.3l39.7-44.7
		l17.2-26.6l-19.5,21.9l-40.7,45.1l-10.1,8.1l-9.8,2.4l-12.1,10.1l-10.8,12.1L431.2,621l-33.3,7.4l-14.8,8.4l4.7-21.5l-7.7-14.1
		l35-30.7l17.5-41.5l28-22.7l45.9,4l50,14.1l-48.2-19.9l-36.1-4l21.2-15.4l23.2,0.5l38.1,14.9l67.2-6.8l22.2-4l-38.6,1.3l-41.9,3.8
		l-31.8-11.1l-10.6-2.8l-15.4-1l31.8-17.2l20.4,0.3l28.8-8.6l12.4,0.5l35.1,12.6l36.4-14.6l-34.1,10.1l-36.1-12.1l32.3-15.1
		l14.6-8.6l19.7-0.8l-14.1-3.3l0.5-3.8l-50,25.7l-41.4,11.9l-24-0.5l24-23.5l4.1-0.6l0.2-0.4l8.3-11.1l14.1-10.1l11.9,4.8l12.6,2.5
		l21.7-4.3l-23.2-0.5l-16.7-6.1l35.8-31.8l27.8-31.3l-28.5,26.2L593.9,403l-24.7,17.2l-5.6,3l3-5.3l25-20.9l-34.1,23.7l-6.3,11.1
		l-6.6,10.3l-12.1,11.1l-12.1,6.3l-10.9,9.6l-10.4,6.6l-23,12.4L455,501.9l-16.9,10.6l-3,1.8l19.4-28.3l34.3-24.5L452,479.7
		l14.9-21.2l15.7-22.2l5.3-7.1l3.3-9.8l19.7-17.4l22.7-7.1l7.6-3.5l36.9-23.5l-11.1,2.5l-25,13.4l-19.4,8.6l-6.1,1.3l15.4-21.2
		l24-20.2l32.6-31.3l51.8-46.2l-36.4,25.2l-14.6,13.1l-18.7,19.2l-21.7,20.2l-13.1,9.6l-13.1,17.2l-13.6,16.1l-9.1,7.1l-10.6,12.1
		l-5.6,5.6l3-12.6l0.4-7.8l-1.6-10.7l-4.9-16.5l-6.1-18.9l-4.4-8.1l10.4,43.1l2.4,9.1l-3,13.5l-3,11.4L465.2,444l-13.5,21.5
		l-20.9,30.6L410,523.1l-9.8,23.5l-17.2,11.1l-4.7,10.8l-9.4,13.5l-3.4-46.1l-2.4-61.2l14.1-57.2l61-50l6.8-2l18.9-2.5l19.4-28.3
		l29.8-26.5l58.6,6.6l39.1,12.6l28.5,13.4h7.1l66.1,19.7L676.7,345l12.1-11.1l24-8.1l-25.5,3.5l-17.2,11.6l-17.9-2.5l-12.6-9.8
		l-0.3,2.8l-6.8-0.8l-11.1-6.1l-14.4-7.8l20.4-7.6l34.6-2.8h20.2l42.7,5l12.1-9.1l-16.9,4.5l-38.6-4.3l-15.7-0.8l29.5-24l35.3-1.8
		l-40.6-0.5l-30.5,25.2l-36.9,4.8l-17.4,6.3l-24.5-2.8l-35.3-3.8l-19.2-4.8l14.9-16.7l49.7-47.9l9.3-0.5l12.6-5l26-6.6l0.8,5.8
		l11.4-8.3l17.4-5l34.8-1.5l29.3-17.9l-32.8,14.9l-23.2-0.8l37.4-36.3l35.1-16.9l-36.6,13.9l-41.9,36.8l-29.8,11.4l-51,6.3
		l-20.4,16.4l-44.7,44.9l-7.3-27.5l26.5-42.1l27.8-29.3l6.3-14.4l4.5-39.4l-3.3-15.1l-4-39.6l-1,59.3l-6.3,42.4l-28.8,22.2l-22,38.6
		l-2.5-53.7l12.1-19.7l10.1-48.2L584,79.8h-3.3l3.8-50.7l-10.1,48.4l-37.4,31.5l1.8-26.7l-2.5-51l11.1-20.9l-12.6,15.1l-3.3-2.3
		l1.5,66.9l-2.8,26.5l-7.8,43.4l-14.6,24.7l-15.9-42.4l-1.3-16.4l-8.3-14.6L480,76.5l-17.2-56.8l9.6,57.8l5,35.3l3,16.1l-7.3-16.7
		L464.9,75l8.3,58l15.9,26l9.8,27.8l2.3,23.2l5,27.5l4.3,51.5l-23.5,24L476.5,323l-5.1,4l-3,7.3L455,346.7l1.3-28.3l5.3-29.3
		l7.6-21.9l14.4-30l21.2-18.2l23.2,0.8l31.3-9.3l33.6-14.4l31.8-36.8l-36.4,33l-23.2,6.8l-37.9,6.3l-29.5,4.8l-18.2,12.9l-9.1,12.9
		l-10.9,14.1l-0.8-24.2l5-46.4l0.5-10.1l-4-23.7l-28.3-47.4l-11.6-33.3l-14.6-49.4l14.6,66.6l33.8,75.7l-11.1,107l-11.1-15.6v-18.2
		L422,204.7l-0.5-24.2l-6.6-6.6l-8.1-35.3l-8.1-26.2l17.7-35.8l31.8-48.4L410.3,71l-17.2,31.3l-2,14.1l3,19.7l-17.7-27.2l-9.6-40.4
		l2.5,41.4l35.8,55.5l9.1,42.4l10.1,41.9l-2.5,0.5l-10.1-9.6l-37.9-6.1l-7.6-0.5l-26.8-20.2l-1.5-13.1l-8.1-28.3l-2.5-24.7
		l15.7-14.6l5.6-12.1l3.5-29.8L339,62.2L351.3,17l-18,47.9l14,29.8l-5.6,24.7L326,141.1L320,97.7l-5-16.1l-16.7-27.2l12.1,36.8
		l4,13.1l-20.9-21.4l-43.1,2.9l40.9,2l21.5,25.1l4.5,17.2l1.5,21.2l3,18.7l6.1,30.3l-16.2-14.6l-34.3-37.8L269,98.2l3.7-28.6
		l-8.2,24.7l1.5,31.6l4.5,20.2l-28.3-14.6l-28.3-24.7l4.5,11.1l15.1,14.1l-9.1,4l35.8,10.6l18.7,16.7l17.7,15.6l22.7,25.2l34.3,32.3
		l-33.3-12.1l-31.3-26.7l23.2,27.2l-25.2,3L262.4,239l32.8-7.1l32.8-0.5l43.9,20.7l32.8-2.5l15.7,16.7l17.2,30.3l1,8.1l-4.5,15.1
		l0.5,21.2l-7.1,15.1l-28.3,26.2L358.3,402l-30.8,114.4l-34-31.3l21.2-58.2l4.2-19.8l-27.1,51.8l1.7-36.7l14.1-37.7l-19.9,37.3
		l-2,60.2l-22.9-5L240,450.1l-12.5-37.7l13.5-30.3l11.1-4.4l24.9-6.1l-28.3,0.7l-9.8,5l6.1-7.7l57.2-7.7l-55.5-0.7l13.8-17.8
		l12.8-5.4l31.3-6.1l14.5-4.7l11.8-10.8l11.4-13.5l21.9-18.8l-33.7,20.2l-3.7,7.7l-9.1,7.1l-14.1,7.1l-13.8,2l-17.5,3.4l-16.5,6.1
		l-9.4,14.8l-7.4-14.5l7.1-19.5l-2.4-7.7l1.3-31.3l9.8-8.4l23.2-3l21.2-7.7l11.4-8.1l27.9,1.3l-26.9-4.4l1.7-3.7l-18.9,10.8
		l-18.5,5.4l-17.8,0.3L242,273.1l-4.7-16.5l0.3-19.5l17.8-11.8l9.8-34.3l-2.4-2l-1.3-19.5l3-31.6l-7.4,33.3l1,22.5l-7.4,21.9
		l-15.5,17.5l-2.7-28.9l-5-13.5l-0.3-10.8h-3.7L206,155.4l1,5l17.2,33.3l-0.7,8.7L163.6,149l59.9,60.2l4,11.4l0.7,12.1l2,18.2
		l5.7,25.2l2,7.4l-2.4,6.1l-5.7-3.4l-9.1-6.7l-16.5-12.8l-17.5-16.1l-37.7-48.1l34.7,52.1l52.2,48.1l-1,29.9l-30-21.2l-90.2-51.8
		l101.7,65.9l2,5.4l14.1,8.7l4,16.8l-10.1,28.9l-18.8-30.3l-8.8-38.3l2.7,37l6.1,24.2l13.5,27.6l-2,24.2l-6.7-2.7l-26.9-53.8
		l-8.8-28.3l-18.2-22.9l-18.9-27.6l-4.7-10.8l-1.3-37l-2.7,47.1l40.4,56.5l8.8,33.6l3.4,24.2l-47.8-37v-19.5l8.8-11.4l29.6-26.2
		l14.1-25.6l0.7-17.5l10.8-24.2l-20.2,32.3l0.7,14.1l-9.4,14.8l-21.5,20.2l-18.2,18.2l-0.7,18.8l-5.4-1.3l-23.6-20.2l-1.3-10.1
		l-10.8-20.9l-1.3-12.8l37-39l-31.6,25.6l-7.4,8.7l-4.7-16.1l8.1-21.5l-11.4,12.8l-0.7-26.2l-2.7-18.8l15.5-33l-18.2,26.2l2.7-19.5
		l-3.4-7.4L67.7,218l3.4,23.5l2.7,18.8l-10.1-13.5l0.7,6.1l-16.2-12.1l-15.5,2l16.2,4L67.7,261l10.8,23.5l5.4,19.5l-1.3,7.4l-18.9-4
		l21.5,9.4l10.8,25.6l-8.8-4l-26.3-26.9l27.6,33.6l24.2,15.5l-7.4,8.1l-23.9,6.1l-23.9-2L36.7,364L0.3,337.7l27.6,25.9l-20.2,7.1
		l27.3-0.3l9.4,6.7l29.6,3l27.6-1.7l13.1-11.8l17.8,16.8l7.1,8.1l9.4,5.4l-21.9,5.7L99,422.5l-10.4,17.8l-21.9,21.9L93.9,440
		l11.8-16.8l16.2-10.1l30-6.1l17.2,9.4l2,8.4l20.2,6.1l18.5,22.2l19.5,15.1l28.3,20.5l34.7,22.9l27.9,29.9l7.4,21.2l1.3,34.3
		l-3.7,24.2L307,605.8l-24.9-11.1l-19.9-12.1L242,560.4L231.9,548l-11.4-14.5L207,512.7l-22.9-26.9l19.5,32.6l14.1,22.2
		c0,0-23.9-9.1-25.6-9.8c-1.7-0.7-26.6-13.1-26.6-13.1l-16.5-4.4l19.9,12.4l16.5,7.4l33.3,13.8l7.7,8.4l26.6,27.2l11.8,8.7
		l-37.4-0.3l-10.4-9.1l-30.3-8.1l-15.8-8.4l-20.2-26.2l-42.1-6.4l37.7,10.4l19.5,26.6l-32.7-2.4l-19.9-0.7l-17.5-11.1l14.8,15.1
		l56.2,3.7l19.9,5l22.6,6.1l12.8,10.8l-26.6,8.1l-9.1-0.3l-11.1,5.4h-13.8l-19.5-17.2l-23.2-7.7l23.2,11.8l10.1,13.5l-36.7,7.4
		l-48.8,18.5l56.6-15.8l61.6-7.4l-31.3,16.7l40.8-13.3l16.5-8.4l24.2-7.1l36.7-3.4l33.7,17.2l20.2,30.6l7.1,30.9l-2,28.6l-8.4,33.3
		l9.1,37.3l3,29.3l-0.3,42.4l0.3,14.5l56.6,1.3H406.3z"/>
	<path class="st1" d="M163.1,555.1l2.9,15 M166,570.1l1,4.7 M175.8,570.9l-8.8,3.9 M169.4,564.6l-2.7,5.7 M166.7,570.3l9.1,0.7
		 M171,565.7l13.6,13.4 M186.9,574.1l-2.2,5 M184.7,579.2l11.3-2.5 M196,576.7l13.5,9.2 M217.2,582.2l-7.7,3.7 M209.4,585.9
		l18.2,5.4 M217.2,582.2l5,14.4 M210.8,607.7l11.4-11.1 M235,600.7l-12.8-4 M222.2,596.6l5.4-5.4 M227.6,591.3l7.4,9.4 M265,591.6
		l-30,9.1 M198,538l-32.4-19.7 M293.6,425.3l-6.9,10 M287.2,491.1l4.7-31.9 M314.8,427.3L301,441.4 M310.4,438.4l-9.4,3 M301,441.4
		l-2,28.9 M299,472l-6.4-7.1 M291.9,459.2l1.7,26.2 M293.6,485.4l-7.2,7.2 M356.6,409.5l9.8-0.3 M353.3,423.9l13.1-14.6
		 M377.1,419.8l-17.9-17.1 M366.5,409.2l-3.2,65.8 M363.4,476l-10.4-52.9 M353.1,423.1l-3,48.1 M328.8,514.8l21.2-45.2 M350,470.5
		l-1,29.2 M349,499.7l14.1-22.4 M350,470.5l13.1,6.8 M226.9,466.4l-11.8-20.2 M214.6,446.4l9.6,1.2 M226.9,466.4l-2.7-18.8
		 M240.7,450.6l-16.3-2.5 M224.4,448.1l31,38.6 M239.9,450l15.7,37.3 M262.9,477.4l-7.6,9.4 M255.4,486.8l30.5-4.4 M285.8,482.4
		l1.2,10.2 M255.5,487.3l31.6,5.9 M294.8,513.6l-8.3-20.9 M307.6,497.7l-21.2-5 M286.4,492.6l27,21.7 M307.9,498.4l5.6,15.9
		 M294.8,513.6h18.4 M320.2,541.9l-7-28.3 M327.6,516.7l-14.1-2.4 M313.4,514.3l16.9,13.4 M330.4,527.7l-2.8-11 M327.6,516.7
		l21.7-18 M330.1,528.4l19.2-29.7 M364.9,516.3l-15.7-17.6 M349.3,498.7l3,45.1 M352.3,543.8l-32.1-1.9 M320.2,541.9l10.2-14.2
		 M330.4,527.7l22,16.1 M327.6,563l24.7-19.2 M364.9,516.3l-12.9,28.5 M367.5,558.9l-15.4-14.1 M329.8,594.2l22.2-49.4 M352.1,544.8
		l1,34.5 M367.5,558.2l-14.4,21.2 M353.1,579.3l15.4-2.5 M165.6,518.4l-6.6,1 M194.5,531.8l4.8,7.4 M199.3,539.3l6.3-3 M205.6,536.2
		l5.6,7.4 M223.8,543.6l-13,0.1 M165.7,518l3,8 M225.4,540.5l-27.1-32.2 M207.1,513l-10.4-6.1 M229.4,546.5l-2.8,8.3 M223.4,543.2
		l3.2,12.5 M220.2,547.8l5.8-7.4 M229.5,546.1l-11.7-5.2 M238.7,567.4l-11.9-25.6 M244.1,563.8l-5.4,3.5 M250.7,571l-7.3,0.9
		 M244.1,564.2l-0.9,8.1 M243.3,572.3l8.5,2.4 M251.3,571l1.9,11.8 M253.2,582.9h9.1 M262.3,582.9l2.7,8.7 M272,588.9l-7.1,2.7
		 M272.8,597.2l-7.8-5.6 M271.3,588.4l1.5,8.8 M272.8,597.2l12.1-1 M284.9,596.2l19.7,17.9 M306.1,605.8l-1.5,8.3 M315,613.4
		l-10.4,0.8 M353.1,579.3l15.9,6.3 M369,582.2l-1,14.5 M380.1,601.3l-12.1-4.6 M340.2,625.2l27.8-28.5 M368,596.7l-14.9-17.4
		 M329.8,594.2l23.2-14.9 M353.1,579.3l-13.4,46.9 M329.3,593.5l10.4,32.8 M380.1,601.3l-40.4,24.9 M339.7,626.2l28.9-8.4
		 M345.6,636.6l23.1-18.8 M352.5,647.2l16.2-29.4 M380.1,601.3L368,618.8 M368.6,617.8l12.6,21.3 M380.1,601.3l1.2,37.8
		 M471.6,619.5l-17.5-6 M454.1,613.4l-3.7,12.4 M450.4,625.9l-22.6-2.4 M428.2,621.8l-12.1,19.5 M397.9,628.6l18.2,12.8
		 M416.1,641.3l-34.8-2.2 M340.2,626.4l-15.5-5 M314.4,612.4l11.6,32.6 M325.4,620.8l0.7,24.2 M340.2,626.4l-14.1,19.2 M326.1,645.5
		l19.5-8.9 M339.7,626.2l12.8,22 M352.5,648.2l28.8-9.6 M374.9,665.7l6.4-27 M390.2,665.5l-8.9-26.4 M391.9,652.4l-10.6-13.3
		 M383.1,637L355,665.7 M326.1,645.5l26.8,2.2 M352.5,647.2l2.5,18.5 M355.3,665.2l-29.8-19.5 M332.8,675.4l8.1-0.7 M340.9,674.8
		l-14.8-29.2 M390.2,665.5l-35.5-0.3 M375.2,665.2l11.4,31.6 M386.7,696.8l-32-31.6 M363.3,697.8l-14.1-15.5 M386.7,696.8
		l-37.5-14.4 M332,697.3l8.1-22.3 M339.9,675.6l15.1-9.9 M332,697.3l23.1-31.6 M355,665.7l-5.9,16.6 M331.4,698.5l17.7-16.1
		 M349.1,682.3l-0.8,35.1 M348.1,717.9l-17.3-14.4 M331.3,704.2l7.6,32.3 M338.9,736.4l9.3-18.5 M358.5,736.3l-10.4-18.3
		 M348.1,717.9l14.3-21.2 M362.4,696.8l24.7-0.2 M386.7,696.8L375,725.7 M375.5,725.3l-13.1-28.6 M358.5,736.3l3.9-39.5
		 M375.2,724.8l23.9,11.6 M399.1,735.7l-17.8,12.9 M357.9,737.3l17.7-12.9 M375.2,724.8l5.7,23.4 M380.9,748.2L358,736.4
		 M357.9,758.1l0.7-21.8 M322.7,736.9l35.8-0.7 M331.8,774.4l7.7-37.5 M339.5,736.9l17.8,21.7 M390.7,759.1l-33.3-0.5 M357.4,758.6
		l23.6-10.4 M379.8,748l10.9,11.1 M391.7,759.3l-20.9,16.3 M331.8,774.4l25.6-15.8 M357.4,758.6l13.5,17 M330.9,774.6l39.9,1
		 M371.3,775.6l27.6-2.5 M398.9,773l-14.5,12.8 M385.1,786l-13.6-9.9 M371.3,775.6l-6.7,16.8 M331.8,775.4l33.3,16.8 M364.6,792.4
		l-30.5,11.4 M334.1,803.8l16.2,7.9 M350.3,811.7l14.5-20 M368,812.9l-3.2-21.3 M364.6,792.4l20.5-6.4 M368,812.9l17.2-27
		 M403.8,801.1L385.1,786 M385.1,786l-0.9,25.1 M403.8,801.1l-19.6,10 M350.3,811.7L333.9,848 M383.7,861.1l-50.1-13.5 M334.1,847.6
		l32.4-17.5 M384.1,859.2l-18.3-28.6 M365.8,830.6l-15.5-18.9 M350.3,811.7l17.7,1.3 M366.2,830.5l1.8-18 M368,812.9l16.4-2.8
		 M365.8,830.6l18.4-20 M383.6,862.2l0.6-51.7 M384.3,811.1l8,23.8 M404.1,802.7l-11.9,32.1 M407.9,831.3l-15.7,3.5 M383,862.5
		l9.2-27.6 M406.3,862.4l-14.1-27.6"/>
</g>
<path class="st0" d="M68,219.2l3.8-0.7 M70.2,232.1l1.6-13.6 M71.8,218.5l3.2,6.9 M75,225.4l-5.1,6.9 M69.9,232.3l7.2,12.6 M77,244
	l-3.2,17 M73.3,260.7l4,9.4 M81,279.2l-5.2-0.7 M75.8,278.5l1.5-7.2 M78.2,271.9l-4.7-5.4 M73,273.1l0.8-12.1 M73.8,261l-7.7-4.2
	 M67.7,261.7l-3.4-8.7 M64.4,253.6l-14.5-5.5 M48.2,241.5l1.7,6.6 M81.2,279.8l-3.4-8.7 M93.8,286.9l7.6,0.2 M86.1,295.5l4.7,2.2
	 M94.8,286.7l-4,10.9 M81,279.2l3.2,23.9 M86.1,295.5l-1.9,8.2 M83.1,311.6l4.7-10.3 M88.3,300.2l-4.4,4.5 M89.3,312.9l-7.2-1.3
	 M82,311.6l3.2,5.9 M89.3,312.9l-4,4.5 M85.2,317.5l14.8,16.8 M100.1,334.3l-4,8.7 M96,343l3.5,9.2 M99.6,352.3l1.9-7.9
	 M102.1,344.7L96,343 M96,343l-7.4,2.7 M86.9,338.5l1.7,7.2 M112.9,361.2l-11.4-16.8 M183.2,299.5l17.3,16.5 M200.6,316l14.1,2.7
	 M214.7,318.7l1.9,7.6 M216.6,326.2l18.5,7.1 M235.1,333.3l-16.5-1.7 M189.1,271.1l-9.6,8.7 M182.9,298.3l-2.7-4.4 M180.2,294
	l8.1-4.7 M179.9,279.3l8.4,9.9 M160.7,290.1l10.9,3 M176,299.2l-4.4-6 M178.6,296.7l2,5.9 M145,340.5l-2.7-4.4 M176.3,300.2
	l-2.2,14.6 M161.5,325.7l2-10.4 M174.2,314.8l-10.6,0.5 M135.1,284.5l-4,10.1 M131,294.6l11.8,5.2 M138.6,305.2l4.7-5 M143.3,300.2
	l5.1,18.5 M157,330.1l0.3-8.9 M157,320.3l-9.4-2.2 M161.4,326.4l2,13.1 M163.4,339.5l13.5,6.2 M176.8,345.7l-2.5,13.1 M180.9,358
	l-6.6,0.8 M188,378.8l-14.8-22.2 M44.5,377.6L37.6,365 M37.6,365l-12.5-3.7 M27.2,363.7l9.1,7.9 M44.5,377.6l13.1-4.4 M57.6,373.3
	l18.4,6.9 M76,380.2l5.6-4.9 M81.5,375.3l20.2,3.7 M101.7,379l3.7-9.7 M105.5,369.2l9.4-2 M114.9,367.2l-2-6 M112.9,361.2l14,4.5
	 M148.6,382.8l-8.8,9.2 M129.9,381.2l7.9-7.4 M131,365.7l-7.6,8.6 M153.1,325.4l-8.1,15.1 M145,340.5l-14,6.6 M131.2,346.5l4.4,24.5
	 M135.8,371.9l-5.4-6 M114.9,367.2l16.2-1.5 M130.4,365.9l-0.5,15.3 M149.4,382.5l-19.5-1.3 M88.6,440.8l5.4-0.3 M94,440.5l5.9-17.6
	 M99.9,422.8l21.2-8.6 M121.1,414.3l6.2-11.1 M127.3,403.2l24.6,4.4 M151.9,407.5l-2.7-10.1 M148.9,381.8l0.3,15.6 M149.2,397.5
	l19.9,19.5 M148.9,381.8l20.2,35.1 M169.1,417l15.4-7.1 M184.5,409.8l-13.4,15.5 M188.5,378.6l-8.3,6.1 M180.2,384.7l32.8,45.8
	 M191.3,431.4l-7.7-22.5 M183.6,408.9l29.5,22.4 M214.1,430.7l-22.7,0.7 M192.6,431.7l22.1,14.8 M209,452.2l6.2-5.8 M212.5,427.7
	l2.7,18.7 M239.8,449.4l-22-13.1 M212.5,427.7l12,20.5 M221.6,405.5l6.4,8.6 M240.2,450.6l-20.9-20.2 M187.4,612l7,4.2 M194.4,616.3
	l1.9-11.4 M184.3,613l12-8.2 M212,607.5l-16.3-2.7 M125.3,620.3l6.6-6 M146.7,617.1l-14.9-2.9 M115.6,617.6l9,2.4 M146.7,617.1
	l5.5-6.9 M152.3,610.2l12.9,4.9 M165.2,615.1l-3.5-5.3 M161.7,609.9l-9.9,0.2 M152.3,610.2l-9.2-16.6 M141.9,593.1l0.8,4.3
	 M161.7,609.9l22.6,3.1 M175.5,609.9l8.8,3.1 M186.6,604.5l-2.4,8.5 M117.6,571.6l22.7-3.4 M151.4,573.7l-11.1-5.5 M113.5,567.2
	l4.5,4.2 M166.1,570.2l-14.6,3.5 M150.9,540.1l-4.4,3.5 M146.5,543.7l16.7,11.6"/>
<polygon class="st0" points="69,192.1 68.9,179.7 72.6,194.8 83.9,186.2 75.2,199.3 68.6,215.3 72,194.8 "/>
<path class="st0" d="M320.2,99.4l-2.7,31.6 M317.5,131l4.9,15.3 M326.2,141.5l-6.7,9.7 M327.8,148.2l6-16.8 M341.7,120.4l7.1,1.5
	 M348.8,121.9l-21,26.3 M327.8,148.2l-8.8,3.9 M319.1,152.5l11,20.2 M330.1,172.7l-5.3,10 M337.3,198l-12.5-15.4 M271.5,114
	l-5.6,12.9 M266,126.9l8.1,2 M274,129l-3.5,18.1 M270.5,147.1l7.1,1.5 M268.8,154.7l8.8-6 M277.6,148.6l4.5,18 M282.1,166.6l7.6-4.5
	 M289.7,162l5.6,16.6 M295.2,178.7l5.6-4.7 M300.8,174v9.9 M311.9,186.4l-11.1-2.5 M270.5,147.1l-1.7,7.6 M268.8,154.7l-4.9-10.9
	 M263.9,143.7l-21.2-1.7 M242.9,142.6l0.5-9.2 M231.5,123.1l2.2,9.9 M243.4,133.3l-9.8-0.3 M218.5,118.9l14.5,5.2 M233.6,133
	l9.3,9.6 M311.4,185.9l10.3,20.7 M331.1,206.1l-3-5 M324.5,198.3l-2.5,7.7 M334.1,211.8l-3-5.7 M337.3,198l-6.2,8.1 M322,206.1h9.1
	 M295.8,229.7l-0.5,3 M311.4,232.3l-23.6-3.7 M311.7,225.2l3.9,3.5 M311.4,232.3l9.1-7.1 M328.9,232.1l-8.4-6.9 M479.2,225.2l24.2-4
	 M501.2,210.8L484.1,238 M484.1,238l-5-13.3 M458.5,259.3l20.7-34.1 M479.5,223.9l-8.6,40.2 M447.7,225.2l10.9,6.2 M445.7,244
	l13-12.6 M460.3,213.3l-10.9-5.7 M449.4,207.6l9.8,24.4 M459.2,231.9l-9.4,16.3 M470.9,264.8l-12.3-6.4 M443.9,265.5l7.7-1.3
	 M445.7,244l5.9,20.2 M455.3,289l-3.7-24.8 M445.7,244l13.3,15.1 M444.5,269.4l14.5-10.2 M460,249.7l-4.7,39.2 M338.5,222.7l1.2-8.1
	 M321,206.4l18.7,8.2 M381.9,236.7l7.8,7.7 M411.9,241.3l-22.5,3 M376.8,239.1l-4,13.6 M372.7,252.7l17.4-8.3 M339.7,214.6
	l14.1,22.7 M328.1,232.3l25.7,5 M371.6,252.4l-17.8-15.1 M353.8,237.3l12.6-2.5 M372,252.9l-5.6-18.1 M366.4,234.8l38.4,15.6
	 M411.8,241.6l-6.9,8.5 M419.6,259.1l2.3-8.2 M424.2,250.5l-19.6,0.1 M404.8,250.4l26.3,15.6 M424.5,250.4l6.3,16.4 M432.1,249.9
	l-1.8,15.9 M430.3,265.8l12.9-0.3 M455.3,289.7l-12.1-24.2 M443.2,265.5l3.5,15.9 M420.5,267l9.8-1.3 M443.2,287.2l3.3-6.6
	 M455.3,289l-25-23.2 M438.6,297l-8.3-31.2 M442.2,287.9l-11.9-22.2 M469.9,266.5l-14.6,23.2 M456.1,290.2l-13.9-2.3 M438.1,298.5
	l4-10.6 M438.6,305.3l8.6,0.8 M437.6,297.3l9.6,8.8 M442.2,287.9l4.3,18.9 M446.5,306.8l8.8-17.1 M456.1,321.7l-0.8-32 M462.4,289.7
	h-7.1 M434.6,340.6l10.4-7.3 M443.7,351.4l1.3-18.1 M434.6,320.7l12.7-15 M456.1,321.7l-8.8-15.6 M447.2,306.1l-2.5,27.8
	 M456.1,321.7l-11.4,12.2 M434.1,320.5l21.3,27.3 M443.2,351.2l12.2-3.4 M455.3,347l1,11.6 M427.5,356.7l16.2-5.3 M434.6,340.6
	l9.1,10.8 M440.4,367.1l13.9-9.6 M464.1,363.5l-20.4-12.1 M399.3,382.9l44.4-31.5 M443.7,351.4l-4,16.4 M400.5,389.5l-2.5-5.3
	 M439.6,367.8L398,384.2 M380.1,415.4l20.4-26 M438.4,368.1l-37.9,21.4 M377,418.7l22.2-35.8 M399.3,382.9l-33.6,27 M331.3,316.4
	l-0.8-11.3 M342.4,303.8l-11.8,1.3 M326.9,312.9l4.5,3.5 M331.3,316.4l-13.5,3.5 M317.8,319.9l1.2,7.3 M319.1,328l-14.8-1.3
	 M304.3,326.8l0.3,6 M304.7,332.7l-32.3-0.3 M274.5,338.6l-2.2-6.2 M272.4,332.4l-11.8,11.8 M260.6,344.1l-4.7-5.7 M255.9,338.4
	l-8.8,22.3 M248.8,373l5.6,4.6 M260.9,362l8.6,4.8 M228.1,414.4l-8.9,16 M294.6,257.1l16.2-4 M312.1,249.8l-1.8,3.2 M299.3,261.2
	l-4.7-3.8 M294.6,257.4l-16.5,11.5 M278.3,269.1l-1.4-6.6 M276.9,262.6l-24.5,9.2 M242.1,273.9l13.1-2.1 M258.2,262.8L245,280.7
	 M242,273.7l3,7.1 M261.8,169.9l-4.6,2.2 M257.1,171.4l5.8,18.5 M262.9,189.9l-4.8-1.1 M258.2,194.6l7.1-2.7 M258.8,215.6l-8,0.8
	 M248.4,229l2.4-12.5 M265.3,191.9l-14.5,24.5 M250.8,216.5l4.7,9.7 M255.5,226.2l-20.2,7.7 M235.3,233.9l-7.9-13 M227.6,221.5
	l4.8-16.8 M232.4,204.7l-8.8,5.4 M217,171.7l-0.6,7.8 M216.4,179.5l7.2,1.4 M224.2,194.6l-0.7-13.8 M227.7,192.1l-4.2-11.2
	 M210.7,191.9l1,6.7 M211.7,198.1l12.2,4.9 M223.6,210.1v-7.3 M235.9,233.1l-5.9,9.7 M180.8,250.5l4.8-0.8 M237.7,238l-8.1,5.6
	 M229.6,243.6l7.7,13.9 M237.4,257.5l-3.4,10.1 M233.9,267.5l8.2,6.4 M242.1,273.9l-3.1,10 M244.5,291l-5.6-7.1 M238,284.3l7.1-4
	 M235.7,290.4l8.8,0.6 M184,254.8l10.6,3 M194.8,259.1l3,9.2 M197.8,268.4l8.8,1 M209.9,279.3l-3.4-9.9 M185.6,249.7l-1.7,5.7
	 M209.8,278.8l11.1,1.5 M220.9,280.3l2.4,10.8 M223.2,291.1l12.5-0.7 M235.7,289.5l0.3,13.9 M244.6,291.7l-8.6,11.8 M236,303.5
	l10.1,15.8 M246.4,318.8L235,333.4 M234,333.1l5,5.7 M237.2,356.9l0.8,16.5 M235,333.4l-2.4,7.1 M232.6,340.4l6.4-1.7 M238.9,338.3
	l-2.1,18 M236.4,356.6l10-4.3 M246.4,352.3v9.7 M236.8,356.9l9.7,5.5 M246.8,361.9l-1.1,7.8 M263.1,362l-17.4,7.7 M237.2,356.9
	l8.5,12.9 M245.6,369.7l-15.9,8.1 M229.7,377.8l8,1.4 M241.1,382.8l-3.4-3.6 M227,388.7l10.7-9.6 M248.8,373l-7.7,9.7 M241.3,382.4
	l-14.9,6.9 M201.7,353.3l6,2.6 M207.7,355.9l-0.3,21.2 M207.4,377.1l19.4,8.3 M227.6,413l-0.8-27.5 M221.2,406.3l5.6-20.8"/>
<path class="st0" d="M690.1,192.3l13.9-7.7 M704.7,180.1l-0.6,4.5 M687.7,201.1l2.4-8.8 M713.9,175.6l-9.8,4.5 M676.4,204.9
	l11.6-4.2 M712.4,172.5l1.5,3 M676.8,211.3l-0.3-7.1 M699.2,212.7l-29.5,3.7 M670.9,209.7l6.2,2 M677.1,211.7l-9.1,5.4 M703.3,215.6
	l-4-2.9 M668,217.1l2.4-7.7 M670.4,209.3l-18.7,12.3 M640.6,220.8l11.6,0.9 M651.2,221.9l-12.1,3 M639.1,224.9l1.5-3.8 M640.2,220.8
	l-16.5,7.6 M613.3,223.8l10.4,4.8 M590.9,227.1l20.5,4.7 M614,223.4l-2.7,8.3 M600.2,236.3L590,227 M590.8,236.3l-20.7,6.7
	 M570.1,243l6.2,6.9 M560.6,252.9l16.2-2.6 M561.2,264.5l-6.7-6.2 M569.7,256.9l-9.5-4.2 M560.2,252.8l1.8,11.3 M562.2,264.5
	l-26.1,12.3 M536.1,276.8l12.9,0.3 M589.6,227l1.3,9.8 M535.9,290l0.8-14.1 M530.1,310.6l13.1-3.9 M591.4,311.1l-24.3,3.1
	 M572,315.4l-45.3-13.7 M536.6,290.2l-12.9-2.5 M530.1,310.6l-3.8-9.3 M513.4,308.8l12.9-7.6 M524.5,288.2l1.8,13.1 M513.4,308.1
	l11.1-19.9 M524.5,287.4l-13.9,2.3 M517.4,259.2l-6.8,30.5 M589.1,192.7l3.8,4.3 M592.9,197l-33.1,4.3 M560.6,200.8v9.6 M579.2,120
	l-4.5,20.2 M574.7,140.2l2.5,33.8 M577.2,174.6l-6.9-7.9 M582.3,135.7l-8.2,5.1 M578.2,174.5l-10.5,8.1 M559.8,200.5l-2-10.2
	 M571.5,189.4l-3.9-7.6 M559.8,201.3l7.8-18.6 M547.9,111.7l0.5-10.7 M577.6,64.3l3.8,5.5 M581.4,69.9l-8,10 M581.8,80.8l-9.1-0.4
	 M574.5,78.5l-26.6,33.1 M537.1,110l11.4,1.9 M538.4,83.2L532.7,50 M536.7,39.6l-4.2,10.7 M536.4,32.4l-4,3 M536.9,40.2l-5.2-4.8
	 M535,25.2l1.4,7.3 M538.9,83.3l-5.7,7.4 M536.9,109.7l-3.7-18.9 M536.1,122l-5.8-3.2 M530.3,118.9l6.6-9.2 M536.9,109.7l-0.3,12.2
	 M536.6,121.9L523,160.9 M514.4,188.9l8.2-28.3 M522.6,160.6l3.9,9.4 M515,208.2l15.3,11.3 M559.8,201.3l-29,18.1 M517.4,258.2
	l14.1-38.3 M507.1,245.1l10.1,15.6 M517.2,260.7l-0.3-17.4 M516.9,243.3l-9.8,1.8 M507.1,245.1l3-13.9 M516.9,243.3L502,215.6
	 M515.4,220.2l-14.1-9.3 M501.3,210.8l6.1-13.4 M507.6,198.2l6.8-8.6 M514.4,189.7l-6.6-4 M507.8,185.6l-0.5,11.8 M515.2,207.8
	L499,187.7 M499,187.7l8.8-2 M507.8,185.6l-18.9-28.2 M488.9,157.4l3-14.1 M491.9,143.3l-10.6-11.8 M489.1,159.9l-7.8-28.5
	 M482.6,113.1L473,77.5 M480.1,77.5l-7.6,1 M482.3,112.3l-1,19.2 M481.3,131.5l9.3-4.5 M473,133l9.3,1.5 M481.3,131.5l-8.1-8.1
	 M473.2,113.3V134 M486.4,321.2l10.7,2.1 M488.7,312.1l9,3.8 M498.7,301.8l-1,14.1 M472.5,337.6l11.4-3 M483.8,334.5l2.5-13.4
	 M498.7,301.8l14.5,7 M510.9,288.9l2.5,19.9 M513.4,308.8l-40.9,18.6 M483.8,334.5l-11.4-7.1 M472.5,327.5l0.2,23.2 M464.7,362.3
	l3.8-27.2 M456.3,358.6l12.1-23.6 M552.4,553.9l3.7-11.6 M566.2,538l-10.1,4.3 M552.4,553.9l-7.1,0.1 M545.3,561.4V554 M566.8,537.8
	l2.3-9.9 M573.6,529.9l-4.6-2.1 M545.2,561.8l-13.9,7.9 M533.9,574.6l-2.6-4.8 M538.4,580l-5.9-2.3 M543.6,574.4l2.4,3.9
	 M572.7,574.4l4.7,4.4 M586.1,573.2l-9.1,5.5 M538.4,580l5.2-5.5 M584.6,573.4l-45.2,6 M533.9,574.6l5.7,5.6 M587.5,578.6l-2.9-5.2
	 M606.3,566.1l6.3,4.3 M587.5,578.6l5.7-10.8 M594.4,568.6l0.1,6.6 M606.1,566.9l-4,7.8 M593.2,567.9l8.8,6.8 M612.6,570.4
	l-10.6,4.3 M520.5,578.3l13.5-3.7 M533.9,574.6l-3.7,7.1 M538.6,580.3l-8.4,1.3 M530.2,581.6l-9.8-3.4 M520.5,578.3l-15.8,16.8
	 M498.6,590.7l6.1,4.4 M510.7,580.6l-6.1,14.4 M504.6,595.1l-17.3,8.6 M498.6,590.7l-4.1,22 M471,620.5l16.8-17.7 M494.5,613.6
	l-6.7-10.8 M421.5,527.9l13.6-13.2 M430.6,530.9l4.5-16.2 M435.1,514.7l-25.1,8.8 M430.6,530.9l-20.5-7.4 M393.5,569.2l5.4,15.5
	 M415.1,569.9l-5.4-17.1 M400.3,547l32.3-17.7 M432.6,529.3l-39.1,39.9 M400.3,547l-6.7,22.2 M383.1,558.1l10.4,11.1 M393.5,569.2
	l-13.5,32.3 M415.1,569.9l-36.7-1 M378.4,568.9l1.7,32.6 M369.3,580.6l10.8,20.8 M420.2,81.6l12.4,18.4 M449,127.4l-9.3-5
	 M432.1,99.2l13.4,40.1 M448.7,126.7l-3.3,12.6 M445.5,139.3l14.9,7.3 M460.4,146.6l-5.8,13.1 M464.4,170.3L452,182.4 M460.4,213.3
	l-3.3-23.6 M454.3,158.7l9.8,13.1 M464.4,170.3l-14.6,38 M431,47.2l-5.2,15.6 M420.5,83.1l1.4-13.6 M413.8,82.3l-6.3,0.3
	 M426.1,62.9l-6.6-0.9 M419.1,62.7l-0.6,11 M417.9,74l-6.4-2.5 M411,71.2l2.9,11.5 M393.7,103.2l9.2-4.9 M410.4,72l-11.7,40.8
	 M393.2,103.2l5.6,10.1 M391.2,117.4l7.6-4 M398.7,113.3L394,135 M369.5,110.8l24.7,26.2 M394,135l-0.5,12.6 M369.5,110.8l7.1-1
	 M393.2,135.2l13.6,4.3 M406.8,139.5l-0.8,27.7 M406.1,167.2L394,135 M414.4,208.6l8.8,20.2 M432.1,231.7l-8.8-3 M405.8,166.6
	l9.1,8.2 M414.9,174.8l-0.5,32.9 M421.5,181.4l-7.1,27.2 M414.4,208.6l7.6-3 M422,205.5l2.5,44.9 M424.5,250.4l7.6-18.6 M352.3,92.2
	l-5,3 M348.1,121.7l-0.8-26.5 M314.9,82.6l-7.2,1.1 M312.9,112.8l-3.4-12.4 M309.5,100.4l-9.9-1.9 M314.9,82.6l1,24.7 M313.1,113.3
	l7.1-13.9"/>
<path class="st0" d="M561.8,419.9l-0.9-1 M630.7,431.8l2.4,3.9 M602.8,446.2l30.3-10.5 M633.1,435.7l9-9.8 M647.2,426.9l0.6-3.9
	 M647.8,423l5.2,0.5 M647,427.3l-4.9-1.4 M603.1,445.3l-2.3,6.3 M592.5,448.8l8,2.4 M587.8,454.5l12.6-3.3 M600.9,451.1l-1,4
	 M599.9,455.1l36.6,8.2 M636.9,462.9l-2.7,4.9 M563.2,495.3l4.9,3.9 M546.2,489.2l8.1,11.1 M554.8,500l-1.5-8.3 M621.9,494.1
	l-16.4-2.8 M530.7,483.7l24,17.1 M563.5,495.1l-8.8,5.8 M520.7,481.2l34,19.7 M653,423.5l-5.9,3.8 M591.8,448.6l-5.1,6.2
	 M586.8,454.7l-24.8,2.5 M562.4,457.1l-4.4,6.2 M558,463.3l-20-6.6 M522,468.5l2.4,1.5 M521.1,481.2l-4.5,4.8 M516.6,486l-11.7-6.2
	 M494,484.9l11.7-5.2 M494.8,478.7l11.6,1.3 M506.2,479.6l3.3-10 M509.5,469.6l12.8-1.5 M520.7,459.5l1.3,9 M532.5,454.4L522,468.5
	 M506.5,480l30.9-23.3 M537.5,463.1l0.4-7.1 M532.1,454l5.9,2.8 M544.9,443.1l-6.7,13.2 M557.5,421.6l-9.1,24.6 M544.6,442.6
	l3.7,3.9 M557.5,421.3l4,12.6 M566.8,418.1l-5.1,1.9 M557.5,421.2l5.8,3.1 M561.8,419.9l0.9,4.4 M561.7,433.3l1-9 M563.2,424
	l3.2,8.2 M589.2,410.4l-15.3,7.6 M574.7,421.2l-0.8-3.3 M588.6,410.6l5.4-6.7 M595,408l16.5-20 M618,386.3l-6.4,1.6 M594.7,407.3
	l-0.3-4 M618.4,386.8l3.2-8.1 M631,375.8l-9.5,2.9 M588.9,410.7l6.1-2.8 M595,408l6.2,8.2 M601.2,416.2l10.7-2.1 M611.8,413.6
	l1.9,4.8 M631.1,375.4l-0.9-4.7 M688.8,334.5l-18.1,7.7 M670.8,342.1l-0.5,6.1 M676.7,345.6l-6.4,2.6 M671.1,341.7l-12.3,2.9
	 M651.5,339l7.2,5.5 M676.1,345.6l-6-4 M687.3,329.9l1.5,4.5 M720.1,307.5l-36.8-0.6 M681.5,303.2l1.9,3.7 M724.9,312l-4.8-4.5
	 M682.9,307.1l-17.7-4.4 M695.4,278.5l-4.8-1.4 M660,301.3l29.2-18 M690.2,276.7l-1,6.6 M659.5,301.4l6.3,1 M665.8,302.4l-3.7,4
	 M662.1,307l-2.5-5.5 M659.5,301.4l-32.1,8.3 M614.3,314.8l8.3-8.6 M627.8,309.5l-5.2-3.3 M652.2,339l-12.1,1.7 M639.3,331.9
	l0.3,8.9 M639.6,341.3l-7.1-10.1 M632.5,331.2l-21.5-3.3 M608.1,317.6l2.9,10.3 M614.1,314.4l-10.3-1.8 M599.7,312.8l-1.2,10.8
	 M608.3,317.1l-4.5,1.2 M599.7,312.8l11.4,15.1 M611.1,300.8l-6.7-0.2 M604.4,300l-5.2,11.6 M592.3,311.4l-2.9,9.2 M550.7,351.9
	l16.2-9.9 M566.7,342.2l7.8-13.2 M574.2,329.1l5.4,0.3 M579.6,329.4l0.5-6.6 M580.1,322.9l3.4,2.4 M584.3,319.8l-0.7,6.1
	 M553.9,354.3l-3.9-2.5 M550,351.8l-7.6,12.3 M542.4,364l-6.1-1.8 M536.4,362.2l-4,10.6 M517,386.9l15.3-14.1 M541.1,385.2l24.2-9.1
	 M567.3,370.9l-2,5.2 M541.1,385.2v6.7 M541.1,392l-17.3,0.7 M522,398.8l0.3-5.9 M533.5,395.5l-11.1-2.5 M517,386.1l-0.7,8.2
	 M521.5,399.2l-5.2-5 M508.7,396l7.6-1.8 M516,393.8l-4.5,7.9 M508.7,396l2.5,6.4 M511.3,402.4l-11.6,0.7 M499.6,403l-8.6,16.9
	 M491.1,419.9l-7.2,1.3 M475.9,370.8l5.7,6.6 M481.7,378l-1.5,11.1 M485.2,389.4l-4.9-0.4 M485.2,389.6l-2.6,8.6 M486.9,400.3
	l-4.3-2.1 M482.6,398.2l3.9,9.9 M486.5,408.1l-9.4,15 M475,442.5l1.9-20 M452.9,464.7l2.7-2.8 M477.2,423.1l6.4-1.8 M483.5,420.7
	l4.3,9.1 M476.6,423.1l11.2,6.7 M487.8,429.8l-33.3,33.3 M495.3,478.5l-2,7.1 M493.3,485.5l-18.2,4 M475.4,488.8l-2.8,11.3
	 M460.5,506.7l10.9-5.8 M470.6,500.9l23,8.1 M507.2,510.2l1-5.3 M508.2,504.9l-14.7,4 M472.6,500.1l-11.6,2.5 M459.2,507.2l2.8-9.6
	 M469.6,455.3l-17.4,10.1 M452.2,465.3l1.3,13.6 M453.4,479L436,489.5 M436,489.5l17.7-2.8 M453.4,479l0.3,7.8 M460.5,506.7
	l-25.5,8.1 M446.1,518.3l-11.1-3.5 M436,489.5l-1,25.2 M435,514.8l-8.8-11.9"/>
<polygon class="st0" points="335.5,60.3 325.1,42.8 304,42.3 323.5,47.4 333.1,66 "/>
<polyline class="st0" points="264.4,95.2 248.4,91 240.1,101.4 248.9,94.6 264.9,103.9 271.6,114.1 "/>
<polygon class="st0" points="47.4,194.2 71.7,193.9 71,198.6 "/>
<polyline class="st0" points="578,62 570.9,46.8 579.3,55.9 "/>
<polyline class="st0" points="535,25.2 531.6,35.3 525.3,7.5 531.6,23.2 535,25.6 536.3,2.9 530.9,21.2 "/>
<polyline class="st0" points="652.1,460.5 660.4,472 649.4,461.7 "/>
<polyline class="st0" points="618.4,494.6 629.2,512.7 622.1,493.7 613.8,494 563.2,495.6 "/>
<polygon class="st0" points="77.3,331.6 57.7,335.8 79.6,334.5 "/>
<line class="st0" x1="325.5" y1="42.9" x2="323.7" y2="47.5"/>
<line class="st0" x1="335.4" y1="60.2" x2="323.7" y2="47.4"/>
<path class="st0" d="M291.3,88.7l-6-4.3 M368.8,96.7l3.4-4.9 M307.3,69.5l-3.8,1.8 M314.5,82.4l-11-11.1 M309.5,100.3l-18.2-11.6
	 M293.5,83.8l-2.2,4.9 M568.7,308.7l-0.6,5.7 M568,314.3l19.7,1.1 M611.4,301.4l0.1-6 M682.3,287.3l-2.9-1.9 M665.9,302.5l0.9-5.4
	 M690.8,276.3l-8.5,11 M720.2,307.5l-3.4,3.4 M684,336.4l-4-1.3 M660.3,340.2l-1.5,4.4 M680.5,351.4l-3.8-5.8 M676.8,345.6l1.5-6.9
	 M684,336.4l3.4-6.4 M687.4,330l9,2.1 M725,312.1l1.9-6.4 M703.3,215.6l2-5.6 M219.3,429.9l-1.6,6.9 M184,410l19.9,21 M213.6,429.9
	l-0.7,0.6 M219.3,429.9h14 M232.6,205l-8.5-8.3 M323.4,122.6l-5.6,8.2 M317.8,130.7l7.8,10.8 M333.7,131.4l7.8-0.5 M342.3,120.4
	l-0.8,10.5 M393,146.9l-8.1-19.7 M377.5,118.9l-1.4-9.6 M376.1,109.3l-7.4-13 M352.3,92.1l-7.7-7.6 M333.2,65.9l7.5,4.2"/>
<line class="st0" x1="248.9" y1="91.1" x2="265.1" y2="104"/>
<path class="st0" d="M161.5,290.5l-0.8-3.7 M218.3,183.1l-12.3-8.4 M214.8,176.7l-8.9-2 M215.1,168.5l0.8-13.5 M264.6,95.3l4.3,3.5
	 M268.9,98.8l-3.8,5.1 M249.6,94.7l-0.5-3.5"/>
<polygon class="st0" points="155.6,262.7 152.2,282.1 156,284.1 "/>
<path class="st0" d="M489.6,43.9l-7.8,2 M112.1,275.1l-7.6,3 M100.4,286.8l3.9-8.7 M148.6,318.2l2.4-6.7 M134.9,284.7l-3.2-3.8
	 M139.7,295.4l-8.8-0.7"/>
</svg>
