<?xml version="1.0" encoding="utf-8"?>
<!-- Generator: Adobe Illustrator 22.1.0, SVG Export Plug-In . SVG Version: 6.00 Build 0)  -->
<svg version="1.1" id="Layer_1" xmlns="http://www.w3.org/2000/svg" xmlns:xlink="http://www.w3.org/1999/xlink" x="0px" y="0px"
	 viewBox="0 0 289 210" style="enable-background:new 0 0 289 210;" xml:space="preserve">
<style type="text/css">
	.st0{clip-path:url(#SVGID_2_);fill:#1D1D1B;}
</style>
<g>
	<defs>
		<rect id="SVGID_1_" y="0" width="289" height="210"/>
	</defs>
	<clipPath id="SVGID_2_">
		<use xlink:href="#SVGID_1_"  style="overflow:visible;"/>
	</clipPath>
	<path class="st0" d="M285.8,200.9c-0.7,1.1-1.5,2-2.4,2.7c-0.9,0.7-1.8,1.3-2.7,1.7c-1,0.4-1.9,0.7-2.9,0.9c-1,0.2-2,0.3-3,0.3
		c-2.5,0-4.7-0.4-6.6-1.3c-2-0.9-3.6-2.1-5-3.6c-1.4-1.5-2.4-3.2-3.1-5.2c-0.7-2-1.1-4-1.1-6.2c0-2.2,0.4-4.2,1.1-6.2
		c0.7-2,1.8-3.7,3.1-5.2c1.4-1.5,3-2.7,5-3.6c2-0.9,4.2-1.3,6.6-1.3c1,0,2,0.1,3,0.4c1,0.3,2,0.7,2.9,1.1c0.9,0.5,1.7,1,2.4,1.6
		s1.2,1.2,1.6,1.8l3.4-2.5c-1.7-2.1-3.8-3.6-6.1-4.6c-2.4-0.9-4.8-1.4-7.2-1.4c-2.9,0-5.5,0.5-8,1.5c-2.4,1-4.6,2.4-6.4,4.1
		c-1.8,1.7-3.2,3.8-4.2,6.2c-1,2.4-1.5,5-1.5,7.9c0,2.9,0.5,5.5,1.5,7.9c1,2.4,2.4,4.5,4.2,6.2c1.8,1.8,3.9,3.1,6.4,4.1
		c2.4,1,5.1,1.5,8,1.5c1.6,0,3.1-0.2,4.5-0.5c1.4-0.4,2.8-0.8,4-1.5c1.2-0.6,2.3-1.4,3.3-2.2c1-0.8,1.8-1.8,2.4-2.7L285.8,200.9z
		 M246.8,171.5h-3.9V209h3.9V171.5z M214.6,191.6h6.5l10.6,17.4h4.8l-11.1-17.8c3.2-0.3,5.6-1.3,7.3-3.1c1.7-1.8,2.5-4,2.5-6.6
		c0-3.4-1.1-5.9-3.4-7.5c-2.3-1.7-5.4-2.5-9.3-2.5h-11.9V209h3.9V191.6z M214.6,175h7c1.7,0,3.2,0.2,4.4,0.5
		c1.2,0.3,2.2,0.8,2.9,1.4c0.7,0.6,1.3,1.3,1.6,2.1c0.3,0.8,0.5,1.6,0.5,2.5c0,0.9-0.2,1.8-0.5,2.6c-0.3,0.8-0.9,1.5-1.6,2.1
		c-0.7,0.6-1.7,1.1-2.9,1.4c-1.2,0.4-2.7,0.5-4.4,0.5h-7V175z M191.8,175h12.9v-3.5H175v3.5h12.9v34h3.9V175z M142,171.5h-4.9V209
		h3.9v-32.1h0.1l23,32.1h4.9v-37.5h-3.9v31.8H165L142,171.5z M108.8,191.3h18.7v-3.5h-18.7V175h20v-3.5h-23.9V209h24.5v-3.5h-20.6
		V191.3z M95,200.9c-0.7,1.1-1.5,2-2.4,2.7c-0.9,0.7-1.8,1.3-2.7,1.7c-1,0.4-1.9,0.7-2.9,0.9c-1,0.2-2,0.3-3,0.3
		c-2.5,0-4.7-0.4-6.6-1.3c-2-0.9-3.6-2.1-5-3.6c-1.4-1.5-2.4-3.2-3.1-5.2c-0.7-2-1.1-4-1.1-6.2c0-2.2,0.4-4.2,1.1-6.2
		c0.7-2,1.8-3.7,3.1-5.2c1.4-1.5,3-2.7,5-3.6c2-0.9,4.2-1.3,6.6-1.3c1,0,2,0.1,3,0.4c1,0.3,2,0.7,2.9,1.1c0.9,0.5,1.7,1,2.4,1.6
		c0.7,0.6,1.2,1.2,1.6,1.8l3.4-2.5c-1.7-2.1-3.8-3.6-6.1-4.6c-2.4-0.9-4.8-1.4-7.2-1.4c-2.9,0-5.5,0.5-8,1.5c-2.4,1-4.6,2.4-6.4,4.1
		c-1.8,1.7-3.2,3.8-4.2,6.2c-1,2.4-1.5,5-1.5,7.9c0,2.9,0.5,5.5,1.5,7.9c1,2.4,2.4,4.5,4.2,6.2c1.8,1.8,3.9,3.1,6.4,4.1
		c2.4,1,5.1,1.5,8,1.5c1.6,0,3.1-0.2,4.5-0.5c1.4-0.4,2.8-0.8,4-1.5c1.2-0.6,2.3-1.4,3.3-2.2c1-0.8,1.8-1.8,2.4-2.7L95,200.9z
		 M33.7,171.5h-5.3l13,17.8L27.4,209h4.9l11.8-17l11.8,17H61l-14.1-19.7l13.1-17.8H55l-10.8,15L33.7,171.5z M3.9,191.3h18.7v-3.5
		H3.9V175h20v-3.5H0V209h24.5v-3.5H3.9V191.3z"/>
	<path class="st0" d="M288.2,122.7c-1.8-2.1-3.7-3.5-5.8-4.4c-2.1-0.9-4.3-1.3-6.8-1.3c-2.8,0-5.3,0.4-7.6,1.3
		c-2.3,0.9-4.3,2.2-6,3.8c-1.7,1.7-3,3.7-3.9,6c-0.9,2.4-1.4,5-1.4,7.8c0,2.8,0.5,5.4,1.4,7.7c0.9,2.3,2.3,4.3,3.9,5.9
		c1.7,1.6,3.7,2.9,6,3.8c2.3,0.9,4.9,1.3,7.6,1.3c2.6,0,5.1-0.5,7.5-1.5c2.3-1,4.3-2.6,5.9-4.9l-5.3-3.8c-1.2,1.5-2.5,2.6-3.8,3.3
		c-1.4,0.7-2.8,1-4.2,1c-1.9,0-3.5-0.3-5-1c-1.5-0.7-2.8-1.6-3.9-2.8c-1.1-1.2-1.9-2.6-2.5-4.2c-0.6-1.6-0.9-3.4-0.9-5.3
		c0-1.8,0.3-3.5,0.9-5c0.6-1.6,1.4-2.9,2.5-4.1c1.1-1.2,2.4-2.1,3.9-2.7c1.5-0.7,3.2-1,5-1c1.3,0,2.5,0.2,3.7,0.7
		c1.2,0.5,2.5,1.4,3.8,2.8L288.2,122.7z M244.3,153.8h6.4v-35.9h-6.4V153.8z M222.7,153.8h6.4v-30.1h11v-5.8h-28.4v5.8h11V153.8z
		 M175,153.8h6.4v-27.5h0.1l17.8,27.5h8.1v-35.9h-6.4v26.7h-0.1l-17.4-26.7H175V153.8z M144,153.8h24.7v-5.8h-18.3v-9.7h16.5v-5.8
		h-16.5v-8.8h17.4v-5.8H144V153.8z M106.4,153.8h6.4V138h16.8v15.8h6.4v-35.9h-6.4v14.3h-16.8v-14.3h-6.4V153.8z M84.6,153.8H91
		v-30.1h11v-5.8H73.6v5.8h11V153.8z M69.4,117.9H63v22.5c0,0.9-0.1,1.8-0.4,2.8c-0.3,1-0.7,1.9-1.3,2.7c-0.6,0.8-1.5,1.5-2.5,2
		c-1,0.5-2.3,0.8-3.8,0.8s-2.8-0.3-3.8-0.8c-1-0.5-1.9-1.2-2.5-2c-0.6-0.8-1.1-1.7-1.3-2.7c-0.3-1-0.4-1.9-0.4-2.8v-22.5h-6.4v22.7
		c0,2.2,0.4,4.1,1.1,5.9c0.7,1.7,1.7,3.2,3,4.4c1.3,1.2,2.8,2.2,4.6,2.8c1.8,0.7,3.7,1,5.7,1c2.1,0,4-0.3,5.7-1
		c1.8-0.7,3.3-1.6,4.6-2.8c1.3-1.2,2.3-2.7,3-4.4c0.7-1.7,1.1-3.7,1.1-5.9V117.9z M12.6,140.1l5.6-14.6l5.5,14.6H12.6z M0,153.8h7.2
		l3.2-8.2H26l3.3,8.2h7.3l-15.5-35.9h-5.5L0,153.8z"/>
	<path class="st0" d="M263,100.1h26v-5.6h-20.1V56.3H263V100.1z M227.8,84.1l8.3-20.1h0.1l8.2,20.1H227.8z M214.5,100.1h6.9
		l4.3-10.8h20.8l4.4,10.8h6.9l-18.7-43.8h-5.4L214.5,100.1z M171.4,100.1h5.9v-36h0.1l24.4,36h7.5V56.3h-5.9v36h-0.1l-24.1-36h-7.8
		V100.1z M154.8,100.1h5.9V56.3h-5.9V100.1z M129,75.6v5.6h9.7v12.2c-1.3,0.7-2.9,1.3-4.8,1.7c-1.9,0.4-3.9,0.6-6,0.6
		c-2.4,0-4.7-0.4-6.7-1.3c-2.1-0.9-3.9-2.1-5.4-3.7c-1.5-1.6-2.7-3.4-3.6-5.5s-1.3-4.4-1.3-6.9c0-2.4,0.4-4.6,1.2-6.8
		c0.8-2.1,1.9-4,3.3-5.5c1.4-1.6,3.2-2.8,5.2-3.7c2-0.9,4.3-1.4,6.8-1.4c2.2,0,4.4,0.3,6.4,1c2,0.7,3.9,1.9,5.8,3.6l4.2-4.5
		c-1.7-1.8-3.9-3.2-6.4-4.2c-2.6-1-5.9-1.5-9.9-1.5c-3.3,0-6.4,0.6-9.2,1.8c-2.8,1.2-5.2,2.8-7.2,4.9c-2,2.1-3.6,4.5-4.7,7.3
		c-1.1,2.8-1.7,5.8-1.7,9.1c0,3.1,0.5,6,1.6,8.8c1.1,2.8,2.6,5.2,4.6,7.3s4.5,3.8,7.4,5c2.9,1.2,6.2,1.9,9.9,1.9
		c1.3,0,2.7-0.1,4.2-0.2c1.5-0.2,3-0.4,4.5-0.8c1.5-0.3,2.9-0.8,4.2-1.3c1.4-0.5,2.6-1.1,3.7-1.7V75.6H129z M90.7,100.1h5.9V56.3
		h-5.9V100.1z M59.5,61.5h7.8c1.2,0,2.3,0.1,3.4,0.3c1.1,0.2,2.1,0.5,3,1c0.9,0.5,1.6,1.2,2.1,2.1c0.5,0.9,0.8,2.1,0.8,3.6
		c0,1.5-0.3,2.7-0.8,3.6c-0.5,0.9-1.2,1.6-2.1,2.1c-0.9,0.5-1.9,0.8-3,1c-1.1,0.2-2.3,0.3-3.4,0.3h-7.8V61.5z M53.6,100.1h5.9V80.8
		h6.6l11.1,19.3h7.4l-12.4-20c1.6-0.2,3.1-0.6,4.5-1.3c1.3-0.7,2.5-1.6,3.4-2.7c0.9-1.1,1.6-2.2,2.1-3.5c0.5-1.3,0.7-2.6,0.7-4.1
		c0-1.4-0.2-2.8-0.6-4.2c-0.4-1.5-1.1-2.8-2.2-4c-1.1-1.2-2.5-2.1-4.3-2.9c-1.8-0.8-4.1-1.1-6.9-1.1H53.6V100.1z M16,94.3
		c-2-0.9-3.8-2.2-5.2-3.7C9.4,89,8.3,87.1,7.5,85c-0.8-2.1-1.2-4.4-1.2-6.8s0.4-4.6,1.2-6.8c0.8-2.1,1.9-4,3.3-5.5
		c1.4-1.6,3.2-2.8,5.2-3.7c2-0.9,4.3-1.4,6.8-1.4c2.5,0,4.8,0.5,6.8,1.4c2,0.9,3.8,2.2,5.2,3.7c1.4,1.6,2.6,3.4,3.3,5.5
		c0.8,2.1,1.2,4.4,1.2,6.8s-0.4,4.6-1.2,6.8c-0.8,2.1-1.9,4-3.3,5.5c-1.4,1.6-3.2,2.8-5.2,3.7c-2,0.9-4.3,1.4-6.8,1.4
		C20.3,95.7,18,95.2,16,94.3 M32,99.5c2.8-1.2,5.2-2.8,7.2-4.9c2-2.1,3.6-4.5,4.7-7.3c1.1-2.8,1.7-5.8,1.7-9.1s-0.6-6.3-1.7-9.1
		c-1.1-2.8-2.7-5.2-4.7-7.3c-2-2.1-4.4-3.7-7.2-4.9c-2.8-1.2-5.9-1.8-9.2-1.8s-6.4,0.6-9.2,1.8c-2.8,1.2-5.2,2.8-7.2,4.9
		c-2,2.1-3.6,4.5-4.7,7.3C0.6,71.9,0,75,0,78.2s0.6,6.3,1.7,9.1c1.1,2.8,2.7,5.2,4.7,7.3c2,2.1,4.4,3.7,7.2,4.9
		c2.8,1.2,5.9,1.8,9.2,1.8S29.2,100.6,32,99.5"/>
	<path class="st0" d="M262.6,8.6h4.9c1.7,0,3.4,0.2,5,0.7c1.6,0.4,2.9,1.1,4.1,2c1.2,0.9,2.1,2,2.8,3.4c0.7,1.4,1,3,1,4.8
		c0,2.1-0.3,3.9-1,5.4c-0.7,1.5-1.6,2.7-2.8,3.6c-1.2,0.9-2.6,1.5-4.3,1.9c-1.6,0.4-3.4,0.6-5.3,0.6h-4.3V8.6z M254.4,38.5h13.5
		c2.8,0,5.5-0.4,8-1.2c2.5-0.8,4.8-2,6.7-3.6c1.9-1.6,3.5-3.5,4.6-5.8c1.1-2.3,1.7-5,1.7-8c0-3.4-0.6-6.3-1.8-8.7
		c-1.2-2.4-2.8-4.4-4.8-5.9c-2-1.5-4.4-2.6-7.1-3.3c-2.7-0.7-5.6-1-8.6-1h-12.4V38.5z M221.3,38.5h26.5v-7.6h-18.2v-7.6h16.3v-7.6
		h-16.3v-7h17.2V0.9h-25.5V38.5z M215.6,5.5c-0.8-1-1.7-1.9-2.8-2.6c-1-0.7-2.1-1.3-3.2-1.7c-1.1-0.4-2.2-0.7-3.4-0.9
		C205,0.1,203.9,0,202.9,0c-2.9,0-5.6,0.5-8.1,1.4c-2.5,0.9-4.6,2.2-6.4,4c-1.8,1.7-3.2,3.8-4.2,6.2c-1,2.4-1.5,5.2-1.5,8.2
		c0,3,0.5,5.7,1.5,8.2c1,2.4,2.4,4.5,4.2,6.2c1.8,1.7,3.9,3,6.4,4c2.5,0.9,5.2,1.4,8.1,1.4c2.6,0,5.1-0.5,7.5-1.6
		c2.4-1.1,4.5-2.7,6-4.9l-6.9-5.1c-0.8,1.3-1.9,2.3-3.2,3c-1.3,0.7-2.8,1.1-4.5,1.1c-1.5,0-2.9-0.3-4.2-0.9
		c-1.3-0.6-2.4-1.4-3.4-2.5c-1-1.1-1.7-2.4-2.3-3.8c-0.5-1.5-0.8-3.1-0.8-4.9c0-1.7,0.3-3.3,0.8-4.8c0.5-1.5,1.3-2.8,2.3-3.8
		c1-1.1,2.1-1.9,3.4-2.5c1.3-0.6,2.8-0.9,4.3-0.9c1.6,0,2.9,0.3,4.1,0.8c1.2,0.5,2.2,1.3,3,2.3L215.6,5.5z M141.4,38.5h8.3V11.7h0.1
		l16.4,26.7H177V0.9h-8.3V27h-0.1l-16-26.1h-11.2V38.5z M122.3,23.5h-9.2l4.6-11.7L122.3,23.5z M98.3,38.5h9.1l3.1-8h14.6l3.2,8h9.3
		L121.3,0.9h-6.8L98.3,38.5z M74,38.5h23.6v-7.6H82.2V0.9H74V38.5z M54.5,23.5h-9.2l4.6-11.7L54.5,23.5z M30.5,38.5h9.1l3.1-8h14.6
		l3.2,8h9.3L53.6,0.9h-6.8L30.5,38.5z M8.3,22.9h6.3c0.7,0,1.4,0.1,2.2,0.2c0.8,0.1,1.5,0.3,2.2,0.6c0.7,0.3,1.2,0.7,1.7,1.2
		c0.4,0.5,0.7,1.3,0.7,2.1c0,0.8-0.2,1.5-0.5,2.1c-0.3,0.6-0.8,1-1.3,1.4c-0.5,0.4-1.1,0.6-1.8,0.7c-0.7,0.1-1.3,0.2-1.9,0.2H8.3
		V22.9z M8.3,7.9h5.6c0.6,0,1.3,0.1,2,0.2c0.7,0.1,1.3,0.3,1.8,0.6c0.5,0.3,1,0.7,1.3,1.2c0.3,0.5,0.5,1.2,0.5,1.9
		c0,0.7-0.2,1.4-0.5,1.9c-0.3,0.5-0.7,1-1.2,1.3c-0.5,0.3-1.1,0.5-1.7,0.7c-0.6,0.1-1.2,0.2-1.9,0.2h-6V7.9z M0,38.5h15.4
		c1.7,0,3.3-0.2,5-0.5c1.7-0.4,3.2-0.9,4.5-1.8c1.3-0.8,2.4-1.9,3.3-3.2c0.8-1.3,1.3-3,1.3-5c0-1.2-0.2-2.3-0.6-3.4
		c-0.4-1.1-0.9-2-1.7-2.8c-0.7-0.8-1.6-1.4-2.6-2c-1-0.5-2.1-0.9-3.4-1v-0.1c1.9-0.6,3.5-1.6,4.7-3c1.2-1.4,1.8-3.2,1.8-5.3
		c0-2.1-0.4-3.7-1.2-4.9c-0.8-1.2-1.9-2.2-3.2-2.9C22,2,20.5,1.5,18.9,1.3C17.3,1,15.6,0.9,14,0.9H0V38.5z"/>
</g>
</svg>
