<?xml version="1.0" encoding="utf-8"?>
<!-- Generator: Adobe Illustrator 22.1.0, SVG Export Plug-In . SVG Version: 6.00 Build 0)  -->
<svg version="1.1" id="Layer_1" xmlns="http://www.w3.org/2000/svg" xmlns:xlink="http://www.w3.org/1999/xlink" x="0px" y="0px"
	 viewBox="0 0 182 177" style="enable-background:new 0 0 182 177;" xml:space="preserve">
<style type="text/css">
	.st0{clip-path:url(#SVGID_2_);fill:#1D1D1B;}
</style>
<g>
	<defs>
		<rect id="SVGID_1_" y="0.7" width="182" height="176.3"/>
	</defs>
	<clipPath id="SVGID_2_">
		<use xlink:href="#SVGID_1_"  style="overflow:visible;"/>
	</clipPath>
	<path class="st0" d="M151.7,14.9c0.5-1.4,1.3-2.6,2.3-3.7c1-1,2.2-1.8,3.6-2.4c1.4-0.6,3-0.9,4.7-0.9c1.7,0,3.3,0.3,4.7,0.9
		c1.4,0.6,2.6,1.4,3.6,2.4c1,1,1.8,2.3,2.3,3.7c0.5,1.4,0.8,3,0.8,4.6c0,1.7-0.3,3.2-0.8,4.6c-0.5,1.4-1.3,2.6-2.3,3.7
		c-1,1-2.2,1.8-3.6,2.4c-1.4,0.6-3,0.9-4.7,0.9c-1.7,0-3.3-0.3-4.7-0.9c-1.4-0.6-2.6-1.4-3.6-2.4c-1-1-1.8-2.3-2.3-3.7
		c-0.5-1.4-0.8-3-0.8-4.6C150.9,17.9,151.1,16.4,151.7,14.9 M144,27.4c1,2.3,2.4,4.3,4.1,6c1.8,1.6,3.8,2.9,6.3,3.8
		c2.4,0.9,5,1.3,7.9,1.3c2.9,0,5.5-0.4,7.9-1.3c2.4-0.9,4.5-2.1,6.3-3.8c1.8-1.6,3.1-3.6,4.1-6c1-2.3,1.5-4.9,1.5-7.8
		c0-2.9-0.5-5.5-1.5-7.8c-1-2.3-2.4-4.3-4.1-6c-1.8-1.6-3.8-2.9-6.3-3.8c-2.4-0.9-5-1.3-7.9-1.3c-2.9,0-5.5,0.4-7.9,1.3
		c-2.4,0.9-4.5,2.1-6.3,3.8s-3.1,3.6-4.1,6c-1,2.3-1.5,4.9-1.5,7.8C142.5,22.4,143,25,144,27.4 M121.9,37.5h8.1V8.6h10.4v-7h-28.9v7
		h10.4V37.5z M79,14.9c0.5-1.4,1.3-2.6,2.3-3.7c1-1,2.2-1.8,3.6-2.4c1.4-0.6,3-0.9,4.7-0.9c1.7,0,3.3,0.3,4.7,0.9
		c1.4,0.6,2.6,1.4,3.6,2.4c1,1,1.8,2.3,2.3,3.7c0.5,1.4,0.8,3,0.8,4.6c0,1.7-0.3,3.2-0.8,4.6c-0.5,1.4-1.3,2.6-2.3,3.7
		c-1,1-2.2,1.8-3.6,2.4c-1.4,0.6-3,0.9-4.7,0.9c-1.7,0-3.3-0.3-4.7-0.9c-1.4-0.6-2.6-1.4-3.6-2.4c-1-1-1.8-2.3-2.3-3.7
		c-0.5-1.4-0.8-3-0.8-4.6C78.2,17.9,78.5,16.4,79,14.9 M71.3,27.4c1,2.3,2.4,4.3,4.1,6c1.8,1.6,3.8,2.9,6.3,3.8
		c2.4,0.9,5,1.3,7.9,1.3c2.9,0,5.5-0.4,7.9-1.3s4.5-2.1,6.3-3.8c1.8-1.6,3.1-3.6,4.1-6c1-2.3,1.5-4.9,1.5-7.8c0-2.9-0.5-5.5-1.5-7.8
		c-1-2.3-2.4-4.3-4.1-6C102,4.1,99.9,2.9,97.5,2c-2.4-0.9-5-1.3-7.9-1.3c-2.9,0-5.5,0.4-7.9,1.3c-2.4,0.9-4.5,2.1-6.3,3.8
		c-1.8,1.6-3.1,3.6-4.1,6s-1.5,4.9-1.5,7.8C69.8,22.4,70.3,25,71.3,27.4 M32.6,37.5h8.1V22h15.7v15.5h8.1v-36h-8.1V15H40.6V1.6h-8.1
		V37.5z M8.1,8.3h4.1c0.8,0,1.6,0,2.4,0.1c0.8,0.1,1.6,0.3,2.2,0.6c0.7,0.3,1.2,0.7,1.7,1.3c0.4,0.6,0.6,1.3,0.6,2.2
		c0,0.8-0.2,1.5-0.5,2.1c-0.3,0.6-0.8,1-1.3,1.3c-0.5,0.3-1.1,0.6-1.8,0.7c-0.7,0.1-1.4,0.2-2.1,0.2H8.1V8.3z M0,37.5h8.1v-14H14
		c1.9,0,3.7-0.2,5.4-0.5c1.7-0.4,3.1-1,4.3-1.8c1.2-0.8,2.2-2,2.8-3.4c0.7-1.4,1-3.2,1-5.3c0-2.1-0.4-3.9-1.1-5.3
		c-0.7-1.4-1.7-2.5-3-3.4C22.1,3,20.7,2.4,19,2.1c-1.7-0.3-3.5-0.5-5.4-0.5H0V37.5z"/>
	<path class="st0" d="M168.8,75.8h2.8V48.3H182v-2.5h-23.6v2.5h10.4V75.8z M154.6,69.3c-0.5,0.8-1.2,1.5-1.9,2.1
		c-0.7,0.6-1.5,1.1-2.3,1.4c-0.8,0.4-1.6,0.7-2.4,0.8c-0.8,0.2-1.6,0.3-2.4,0.3c-2,0-3.8-0.3-5.3-1c-1.6-0.7-2.9-1.6-4.1-2.8
		c-1.1-1.2-2-2.6-2.6-4.2c-0.6-1.6-0.9-3.3-0.9-5.2s0.3-3.6,0.9-5.2s1.5-3,2.6-4.2c1.1-1.2,2.5-2.1,4.1-2.8c1.6-0.7,3.4-1,5.3-1
		c1.5,0,3.1,0.3,4.5,1c1.5,0.6,2.7,1.7,3.6,3.1l2.3-1.9c-1.3-1.7-2.9-2.9-4.7-3.6c-1.8-0.7-3.7-1.1-5.8-1.1c-2.3,0-4.4,0.4-6.4,1.2
		s-3.6,1.9-5,3.3c-1.4,1.4-2.4,3.1-3.2,5c-0.8,1.9-1.2,4-1.2,6.3c0,2.3,0.4,4.4,1.2,6.3c0.8,1.9,1.8,3.6,3.2,5c1.4,1.4,3,2.5,5,3.3
		c1.9,0.8,4.1,1.2,6.4,1.2c2.2,0,4.3-0.4,6.2-1.3c1.9-0.8,3.6-2.2,5.1-4.2L154.6,69.3z M106.5,75.8h19.3v-2.5h-16.4V61.6H124V59
		h-14.7V48.3H125v-2.5h-18.6V75.8z M98.1,45.8h-2.8v21.8c0,0.9-0.1,1.7-0.3,2.5c-0.2,0.8-0.5,1.4-0.9,2c-0.4,0.6-1,1-1.7,1.3
		c-0.7,0.3-1.6,0.5-2.6,0.5c-2.7,0-4.4-1.4-5.1-4.1l-2.8,0.5c0.4,1.9,1.3,3.4,2.6,4.5c1.3,1.1,3.1,1.7,5.3,1.7c2,0,3.5-0.3,4.6-1
		c1.1-0.7,1.9-1.5,2.5-2.5c0.6-1,0.9-2,1-3.1c0.1-1.1,0.2-2.1,0.2-3V45.8z M51.8,55.6c0.6-1.6,1.5-3,2.6-4.2
		c1.1-1.2,2.5-2.1,4.1-2.8c1.6-0.7,3.4-1,5.3-1c2,0,3.8,0.3,5.3,1c1.6,0.7,2.9,1.6,4.1,2.8c1.1,1.2,2,2.6,2.6,4.2
		c0.6,1.6,0.9,3.3,0.9,5.2s-0.3,3.6-0.9,5.2c-0.6,1.6-1.5,3-2.6,4.2c-1.1,1.2-2.5,2.1-4.1,2.8c-1.6,0.7-3.4,1-5.3,1
		c-2,0-3.8-0.3-5.3-1c-1.6-0.7-2.9-1.6-4.1-2.8c-1.1-1.2-2-2.6-2.6-4.2c-0.6-1.6-0.9-3.3-0.9-5.2S51.2,57.2,51.8,55.6 M49.2,67.1
		c0.8,1.9,1.8,3.6,3.2,5c1.4,1.4,3,2.5,5,3.3c1.9,0.8,4.1,1.2,6.4,1.2c2.3,0,4.4-0.4,6.4-1.2c1.9-0.8,3.6-1.9,5-3.3
		c1.4-1.4,2.4-3.1,3.2-5c0.8-1.9,1.2-4,1.2-6.3c0-2.3-0.4-4.4-1.2-6.3c-0.8-1.9-1.8-3.6-3.2-5c-1.4-1.4-3-2.5-5-3.3
		c-1.9-0.8-4.1-1.2-6.4-1.2c-2.3,0-4.4,0.4-6.4,1.2c-1.9,0.8-3.6,1.9-5,3.3c-1.4,1.4-2.4,3.1-3.2,5c-0.8,1.9-1.2,4-1.2,6.3
		C48.1,63.1,48.4,65.2,49.2,67.1 M24.6,75.8h2.8V61.6h5.3l8.5,14.2h3.2l-8.8-14.4c0.8-0.1,1.7-0.3,2.6-0.6c0.9-0.3,1.8-0.7,2.5-1.3
		c0.8-0.6,1.4-1.3,1.9-2.3s0.8-2.1,0.8-3.6c0-1.3-0.2-2.4-0.6-3.3c-0.4-0.9-1-1.7-1.6-2.2c-0.7-0.6-1.4-1-2.2-1.4
		c-0.8-0.3-1.6-0.5-2.4-0.7c-0.8-0.1-1.5-0.2-2.2-0.3c-0.7,0-1.2,0-1.6,0h-8V75.8z M27.4,48.3h6c1.5,0,2.7,0.2,3.6,0.6
		c0.9,0.4,1.7,0.8,2.2,1.4c0.5,0.5,0.9,1.1,1,1.7c0.2,0.6,0.3,1.2,0.3,1.7c0,0.5-0.1,1.1-0.3,1.7c-0.2,0.6-0.5,1.2-1,1.7
		c-0.5,0.5-1.2,1-2.2,1.4c-0.9,0.4-2.1,0.6-3.6,0.6h-6V48.3z M2.8,48.3h6.3c0.8,0,1.6,0.1,2.4,0.3c0.8,0.2,1.5,0.5,2.1,1
		c0.6,0.4,1.1,1,1.5,1.7s0.6,1.5,0.6,2.5c0,1-0.2,1.8-0.6,2.5c-0.4,0.7-0.9,1.2-1.5,1.6c-0.6,0.4-1.3,0.7-2.1,0.9
		c-0.8,0.2-1.6,0.3-2.4,0.3H2.8V48.3z M0,75.8h2.8V61.6h6.6c1.2,0,2.4-0.2,3.5-0.5c1.1-0.3,2.1-0.8,2.9-1.4c0.8-0.6,1.5-1.4,2-2.4
		s0.8-2.2,0.8-3.5c0-1.6-0.3-2.8-0.9-3.9c-0.6-1-1.4-1.8-2.4-2.4c-1-0.6-2-1-3.2-1.2c-1.2-0.2-2.3-0.4-3.3-0.4H0V75.8z"/>
	<path class="st0" d="M151.9,176.2h8.2v-18c0-1.1,0.1-2.2,0.4-3.2c0.3-1,0.7-1.9,1.3-2.7c0.6-0.8,1.4-1.4,2.3-1.9
		c0.9-0.5,2.1-0.7,3.5-0.7c1.4,0,2.5,0.3,3.4,1c0.8,0.7,1.4,1.5,1.8,2.5c0.4,1,0.6,2,0.7,3.2c0.1,1.1,0.1,2.1,0.1,3.1v16.7h8.2
		v-20.8c0-1.7-0.2-3.3-0.6-4.9c-0.4-1.6-1.1-2.9-2.1-4.1c-1-1.2-2.2-2.2-3.7-2.9c-1.5-0.7-3.4-1.1-5.6-1.1c-2.7,0-4.9,0.6-6.5,1.8
		c-1.6,1.2-2.8,2.6-3.6,4.3h-0.1v-5.3h-7.8V176.2z M117.2,156c0.4-1.2,1.1-2.2,1.9-3.2c0.8-0.9,1.9-1.6,3.1-2.2
		c1.2-0.6,2.5-0.8,4.1-0.8s2.9,0.3,4.1,0.8c1.2,0.5,2.2,1.3,3.1,2.2c0.8,0.9,1.5,2,1.9,3.2c0.4,1.2,0.7,2.4,0.7,3.7
		c0,1.3-0.2,2.5-0.7,3.7c-0.4,1.2-1.1,2.2-1.9,3.2c-0.8,0.9-1.9,1.6-3.1,2.2c-1.2,0.6-2.5,0.8-4.1,0.8s-2.9-0.3-4.1-0.8
		c-1.2-0.6-2.2-1.3-3.1-2.2c-0.8-0.9-1.5-2-1.9-3.2c-0.4-1.2-0.7-2.4-0.7-3.7C116.6,158.4,116.8,157.2,117.2,156 M109.7,166.8
		c0.9,2.1,2.2,4,3.8,5.5c1.6,1.5,3.5,2.7,5.7,3.5c2.2,0.8,4.5,1.2,7,1.2c2.5,0,4.8-0.4,7-1.2c2.2-0.8,4.1-2,5.7-3.5
		c1.6-1.5,2.9-3.3,3.8-5.5s1.4-4.5,1.4-7.1s-0.5-5-1.4-7.1c-0.9-2.1-2.2-4-3.8-5.5c-1.6-1.5-3.5-2.7-5.7-3.5c-2.2-0.8-4.5-1.2-7-1.2
		c-2.5,0-4.8,0.4-7,1.2c-2.2,0.8-4.1,2-5.7,3.5c-1.6,1.5-2.9,3.3-3.8,5.5c-0.9,2.1-1.4,4.5-1.4,7.1S108.8,164.7,109.7,166.8
		 M86.2,150.2v15.1c0,1.9,0.1,3.6,0.4,5.1c0.3,1.5,0.8,2.7,1.6,3.7c0.8,1,1.9,1.7,3.3,2.2s3.2,0.7,5.4,0.7c1,0,2.1-0.1,3.3-0.2
		c1.3-0.2,2.3-0.4,3.2-0.9V169c-0.5,0.4-1.2,0.6-2.1,0.8c-0.9,0.2-1.7,0.2-2.4,0.2c-1.8,0-3.1-0.5-3.7-1.4c-0.6-1-0.9-2.3-0.9-3.9
		v-14.4h9.1v-7h-9.1v-9.6h-8.2v9.6h-6.8v7H86.2z M50.4,156.4c0.3-2.4,1.2-4.3,2.6-5.7c1.4-1.4,3.4-2.1,5.9-2.1
		c2.6,0,4.7,0.7,6.1,2.1c1.5,1.4,2.2,3.3,2.3,5.7H50.4z M75.5,162.6v-2.3c0-2.9-0.4-5.4-1.1-7.7c-0.8-2.2-1.8-4.1-3.2-5.6
		c-1.4-1.5-3-2.7-4.9-3.5s-4-1.2-6.3-1.2c-2.5,0-4.8,0.4-7,1.2c-2.2,0.8-4.1,2-5.7,3.5c-1.6,1.5-2.9,3.3-3.8,5.5
		c-0.9,2.1-1.4,4.5-1.4,7.1s0.5,5,1.4,7.1s2.2,4,3.8,5.5c1.6,1.5,3.5,2.7,5.7,3.5c2.2,0.8,4.5,1.2,7,1.2c2.6,0,5.1-0.5,7.5-1.5
		c2.4-1,4.5-2.7,6.5-5.1l-5.9-4.5c-1.1,1.3-2.3,2.3-3.7,3.2c-1.4,0.8-3.1,1.3-5.2,1.3c-2.3,0-4.3-0.7-6-2.1
		c-1.6-1.4-2.6-3.3-2.9-5.8H75.5z M8.7,154.7H17c3.5,0,6.1,0.5,7.8,1.5c1.7,1,2.5,2.8,2.5,5.4c0,1.6-0.3,2.9-1,3.8
		c-0.7,0.9-1.6,1.7-2.6,2.2c-1.1,0.5-2.2,0.8-3.5,1c-1.3,0.1-2.4,0.2-3.5,0.2h-8V154.7z M8.7,134.9h7.1c3.3,0,5.7,0.5,7.2,1.5
		c1.5,1,2.2,2.6,2.2,4.7c0,1.8-0.7,3.3-2.2,4.4c-1.4,1.1-3.6,1.7-6.5,1.7H8.7V134.9z M0,176.2h17.5c2.3,0,4.5-0.2,6.8-0.7
		c2.2-0.5,4.2-1.2,5.9-2.3c1.7-1.1,3.1-2.5,4.2-4.3c1.1-1.8,1.6-4,1.6-6.6c0-1.6-0.3-3-0.8-4.4c-0.5-1.4-1.2-2.5-2.2-3.6
		c-0.9-1-2-1.9-3.3-2.5c-1.3-0.7-2.7-1.1-4.2-1.3v-0.1c2.5-0.8,4.6-2.1,6.1-3.8c1.6-1.8,2.3-4.1,2.3-6.8c0-2.2-0.4-4.1-1.3-5.6
		c-0.9-1.6-2-2.8-3.4-3.8c-1.4-1-3-1.7-4.8-2.1c-1.8-0.4-3.6-0.7-5.4-0.7H0V176.2z"/>
	<path class="st0" d="M147.5,120.3h4.3v-12.1c0-1.3,0.2-2.5,0.5-3.4c0.3-1,0.8-1.8,1.3-2.4c0.5-0.6,1.2-1.1,1.9-1.4
		c0.7-0.3,1.5-0.5,2.2-0.5c1.1,0,1.9,0.2,2.5,0.6c0.6,0.4,1.1,0.9,1.4,1.6c0.3,0.7,0.6,1.5,0.7,2.4c0.1,0.9,0.2,1.9,0.2,3v12.2h4.3
		v-12.7c0-2.1,0.4-3.8,1.3-5.1c0.9-1.3,2.4-2,4.5-2c1.1,0,1.9,0.2,2.6,0.6c0.6,0.4,1.1,0.9,1.5,1.5c0.4,0.6,0.6,1.3,0.7,2.2
		c0.1,0.8,0.2,1.7,0.2,2.6v13h4.3v-13.6c0-1.3-0.1-2.6-0.4-3.8c-0.2-1.2-0.7-2.3-1.3-3.3c-0.6-1-1.5-1.7-2.7-2.3
		c-1.1-0.6-2.6-0.9-4.3-0.9c-1.4,0-2.7,0.4-4.1,1.1c-1.3,0.7-2.4,1.8-3.1,3.2c-0.7-1.4-1.7-2.5-2.8-3.2c-1.2-0.7-2.6-1.1-4.3-1.1
		c-1,0-2,0.2-2.8,0.5c-0.9,0.3-1.6,0.7-2.2,1.1c-0.6,0.4-1.1,0.9-1.5,1.4c-0.4,0.5-0.7,0.9-0.7,1.2h-0.1V97h-4.1V120.3z
		 M123.9,106.7c0-0.8,0.2-1.6,0.5-2.4c0.3-0.8,0.8-1.5,1.4-2.2c0.6-0.7,1.4-1.2,2.2-1.6c0.9-0.4,1.9-0.6,2.9-0.6
		c1.1,0,2,0.2,2.9,0.5c0.8,0.3,1.5,0.8,2,1.4c0.5,0.6,1,1.3,1.2,2.1s0.4,1.7,0.5,2.7H123.9z M142.3,110.3v-1.6c0-1.5-0.2-3-0.6-4.5
		c-0.4-1.5-1.1-2.8-2-3.9c-0.9-1.2-2-2.1-3.4-2.8c-1.4-0.7-3.1-1.1-5.1-1.1c-1.7,0-3.3,0.3-4.7,0.9c-1.4,0.6-2.7,1.5-3.7,2.6
		c-1,1.1-1.9,2.4-2.5,3.9c-0.6,1.5-0.9,3.1-0.9,4.8c0,1.7,0.3,3.4,0.8,4.8c0.5,1.5,1.3,2.8,2.3,3.9s2.2,2,3.7,2.6
		c1.5,0.6,3.1,0.9,4.9,0.9c4.3,0,7.7-1.6,10.1-4.8l-3.3-2.6c-0.8,1.1-1.8,1.9-2.7,2.5c-1,0.6-2.2,1-3.5,1c-1,0-2-0.2-2.9-0.5
		c-0.9-0.3-1.8-0.8-2.5-1.4c-0.7-0.6-1.3-1.3-1.7-2.1c-0.4-0.8-0.7-1.8-0.7-2.8H142.3z M99.1,116.2c-0.9-0.4-1.7-1-2.4-1.7
		c-0.6-0.7-1.1-1.6-1.5-2.6c-0.4-1-0.5-2.1-0.5-3.3c0-1.2,0.2-2.3,0.5-3.3c0.4-1,0.9-1.9,1.5-2.6c0.6-0.7,1.4-1.3,2.4-1.7
		c0.9-0.4,2-0.6,3.1-0.6c1.2,0,2.2,0.2,3.1,0.6c0.9,0.4,1.7,1,2.4,1.7c0.6,0.7,1.1,1.6,1.5,2.6c0.4,1,0.5,2.1,0.5,3.3
		c0,1.2-0.2,2.3-0.5,3.3c-0.4,1-0.9,1.9-1.5,2.6c-0.6,0.7-1.4,1.3-2.4,1.7c-0.9,0.4-2,0.6-3.1,0.6C101.1,116.8,100,116.6,99.1,116.2
		 M114.1,83.1h-4.3v17.2h-0.1c-0.8-1.2-1.9-2.2-3.3-2.9c-1.4-0.7-3-1.1-4.6-1.1c-1.8,0-3.4,0.3-4.8,0.9c-1.4,0.6-2.7,1.5-3.7,2.6
		c-1,1.1-1.8,2.4-2.3,3.9c-0.5,1.5-0.8,3.1-0.8,4.8c0,1.7,0.3,3.3,0.8,4.8c0.5,1.5,1.3,2.8,2.3,3.9c1,1.1,2.2,2,3.7,2.6
		c1.4,0.6,3,0.9,4.8,0.9c1.5,0,3-0.3,4.5-1c1.5-0.7,2.6-1.7,3.4-2.9h0.1v3.3h4.3V83.1z M59.9,120.3h4.3v-11.7c0-2.6,0.6-4.4,1.7-5.7
		c1.1-1.2,2.7-1.8,4.9-1.8c0.4,0,0.7,0,1.1,0.1c0.4,0.1,0.7,0.1,1.1,0.2l0.2-4.8c-0.6-0.2-1.2-0.3-1.9-0.3s-1.4,0.1-2.1,0.3
		c-0.7,0.2-1.4,0.5-2,0.9s-1.1,0.8-1.6,1.3c-0.5,0.5-0.9,1.1-1.2,1.7h-0.1V97h-4.3V120.3z M31.1,113.5c0.6,1.5,1.5,2.8,2.6,3.9
		c1.1,1.1,2.4,2,3.9,2.6c1.5,0.6,3.1,1,4.8,1c1.7,0,3.3-0.3,4.8-1s2.8-1.5,3.9-2.6c1.1-1.1,2-2.4,2.6-3.9c0.6-1.5,0.9-3.1,0.9-4.8
		c0-1.7-0.3-3.3-0.9-4.8c-0.6-1.5-1.5-2.8-2.6-3.9c-1.1-1.1-2.4-2-3.9-2.6c-1.5-0.6-3.1-1-4.8-1c-1.7,0-3.3,0.3-4.8,1
		c-1.5,0.6-2.8,1.5-3.9,2.6c-1.1,1.1-2,2.4-2.6,3.9c-0.6,1.5-0.9,3.1-0.9,4.8C30.2,110.4,30.5,112,31.1,113.5 M35.3,105.4
		c0.4-1,0.9-1.9,1.5-2.6c0.6-0.7,1.4-1.3,2.4-1.7c0.9-0.4,2-0.6,3.1-0.6c1.2,0,2.2,0.2,3.1,0.6c0.9,0.4,1.7,1,2.4,1.7
		c0.6,0.7,1.1,1.6,1.5,2.6c0.4,1,0.5,2.1,0.5,3.3c0,1.2-0.2,2.3-0.5,3.3c-0.4,1-0.9,1.9-1.5,2.6c-0.6,0.7-1.4,1.3-2.4,1.7
		c-0.9,0.4-2,0.6-3.1,0.6c-1.2,0-2.2-0.2-3.1-0.6c-0.9-0.4-1.7-1-2.4-1.7c-0.6-0.7-1.1-1.6-1.5-2.6c-0.4-1-0.5-2.1-0.5-3.3
		C34.8,107.5,35,106.4,35.3,105.4 M13.2,120.3h4.3L31,85.5h-5.1l-10.4,28.3h-0.1l-10-28.3H0L13.2,120.3z"/>
</g>
</svg>
