<?xml version="1.0" encoding="utf-8"?>
<!-- Generator: Adobe Illustrator 22.1.0, SVG Export Plug-In . SVG Version: 6.00 Build 0)  -->
<svg version="1.1" id="Layer_1" xmlns="http://www.w3.org/2000/svg" xmlns:xlink="http://www.w3.org/1999/xlink" x="0px" y="0px"
	 viewBox="0 0 182 123" style="enable-background:new 0 0 182 123;" xml:space="preserve">
<style type="text/css">
	.st0{clip-path:url(#SVGID_2_);fill:#1D1D1B;}
</style>
<g>
	<defs>
		<rect id="SVGID_1_" y="0.5" width="182" height="122.5"/>
	</defs>
	<clipPath id="SVGID_2_">
		<use xlink:href="#SVGID_1_"  style="overflow:visible;"/>
	</clipPath>
	<path class="st0" d="M157.7,122.1H182v-2.9h-20.4l19.9-28.3v-2.6h-23.5v2.9h19.5l-19.8,28.4V122.1z M141.3,122.1h3.1V91.2H156v-2.9
		h-26.2v2.9h11.5V122.1z M123.8,110.3h-15.5l7.9-18.5L123.8,110.3z M100,122.1h3.3l3.8-9H125l3.7,9h3.5L118,88.4h-3.2L100,122.1z
		 M75.7,117.9c1.3,1.8,2.9,3.2,4.8,3.9c1.9,0.8,3.9,1.2,6.2,1.2c1.4,0,2.7-0.2,4-0.6c1.3-0.4,2.4-1,3.4-1.8c1-0.8,1.7-1.8,2.3-3
		c0.6-1.2,0.9-2.5,0.9-4.1c0-2.1-0.4-3.7-1.3-4.9s-1.9-2.1-3.2-2.8c-1.3-0.7-2.7-1.2-4.2-1.6c-1.5-0.4-2.9-0.9-4.2-1.4
		c-1.3-0.5-2.4-1.2-3.2-2.1c-0.9-0.9-1.3-2.2-1.3-3.9c0-1.1,0.2-2,0.6-2.8c0.4-0.8,1-1.5,1.6-2c0.7-0.5,1.5-0.9,2.4-1.2
		c0.9-0.3,1.9-0.4,2.9-0.4c1.5,0,2.7,0.3,3.8,0.8c1.1,0.6,2,1.4,2.8,2.5l2.7-2c-1.1-1.5-2.5-2.6-4.1-3.3c-1.6-0.7-3.3-1-5.1-1
		c-1.4,0-2.8,0.2-4.1,0.6c-1.3,0.4-2.5,1-3.5,1.8c-1,0.8-1.8,1.8-2.4,2.9c-0.6,1.2-0.9,2.5-0.9,4c0,1.6,0.2,2.9,0.7,4
		c0.5,1.1,1.2,2,2,2.7c0.8,0.7,1.8,1.3,2.8,1.7c1,0.4,2.1,0.8,3.2,1.2c1.1,0.4,2.2,0.7,3.2,1c1,0.4,2,0.8,2.8,1.3
		c0.8,0.5,1.5,1.1,2,1.9c0.5,0.8,0.7,1.7,0.7,2.9c0,1-0.2,1.9-0.6,2.7c-0.4,0.8-0.9,1.5-1.6,2.1c-0.7,0.6-1.5,1-2.4,1.3
		c-0.9,0.3-1.9,0.5-3,0.5c-1.7,0-3.2-0.3-4.5-1.1c-1.3-0.7-2.4-1.8-3.2-3.2L75.7,117.9z M40.7,122.1h3.1V92.6h0.1l20.6,29.6h4.1
		V88.4h-3.2v29.6h-0.1L44.8,88.4h-4.1V122.1z M28.3,122.1h3.1V88.4h-3.1V122.1z M0,122.1h21.4v-2.9H3.1v-13.2h16.4v-2.9H3.1v-12
		h17.5v-2.9H0V122.1z"/>
	<path class="st0" d="M159.7,73.6H182v-4.2h-17.8V58.7H180v-4.2h-15.8v-9.9h16.9v-4.2h-21.4V73.6z M135.4,73.6h19.7v-4.2h-15.2v-29
		h-4.5V73.6z M122.4,73.6h4.5V40.4h-4.5V73.6z M95.5,73.6h4.5V59.2h15.2V55H100V44.6h16.4v-4.2H95.5V73.6z M66.5,69.2
		c-1.5-0.7-2.8-1.6-3.9-2.8c-1.1-1.2-1.9-2.6-2.5-4.2c-0.6-1.6-0.9-3.3-0.9-5.1c0-1.8,0.3-3.5,0.9-5.1c0.6-1.6,1.4-3,2.5-4.2
		c1.1-1.2,2.4-2.1,3.9-2.8c1.5-0.7,3.2-1.1,5.2-1.1c1.9,0,3.6,0.4,5.2,1.1c1.5,0.7,2.8,1.6,3.9,2.8c1.1,1.2,1.9,2.6,2.5,4.2
		c0.6,1.6,0.9,3.3,0.9,5.1c0,1.8-0.3,3.5-0.9,5.1c-0.6,1.6-1.4,3-2.5,4.2c-1.1,1.2-2.4,2.1-3.9,2.8c-1.5,0.7-3.3,1.1-5.2,1.1
		C69.8,70.2,68.1,69.9,66.5,69.2 M78.7,73.1c2.1-0.9,3.9-2.1,5.5-3.7c1.5-1.6,2.7-3.4,3.6-5.5c0.9-2.1,1.3-4.4,1.3-6.9
		c0-2.5-0.4-4.8-1.3-6.9c-0.9-2.1-2-4-3.6-5.5c-1.5-1.6-3.3-2.8-5.5-3.7c-2.1-0.9-4.5-1.3-7-1.3c-2.5,0-4.9,0.4-7,1.3
		c-2.1,0.9-3.9,2.1-5.5,3.7c-1.5,1.6-2.7,3.4-3.6,5.5c-0.9,2.1-1.3,4.4-1.3,6.9c0,2.5,0.4,4.8,1.3,6.9c0.9,2.1,2,4,3.6,5.5
		c1.5,1.6,3.3,2.8,5.5,3.7c2.1,0.9,4.5,1.3,7,1.3C74.2,74.4,76.5,74,78.7,73.1 M32.3,44.3h5.9c0.9,0,1.7,0.1,2.6,0.2
		c0.9,0.1,1.6,0.4,2.3,0.8c0.7,0.4,1.2,0.9,1.6,1.6c0.4,0.7,0.6,1.6,0.6,2.7c0,1.1-0.2,2-0.6,2.7c-0.4,0.7-0.9,1.2-1.6,1.6
		c-0.7,0.4-1.4,0.6-2.3,0.8C40,55,39.1,55,38.2,55h-5.9V44.3z M27.8,73.6h4.5V59h5l8.4,14.6h5.6L42,58.5c1.2-0.1,2.4-0.5,3.4-1
		c1-0.5,1.9-1.2,2.6-2c0.7-0.8,1.2-1.7,1.6-2.7c0.4-1,0.6-2,0.6-3.1c0-1-0.2-2.1-0.5-3.2c-0.3-1.1-0.9-2.1-1.7-3s-1.9-1.6-3.3-2.2
		c-1.4-0.6-3.1-0.9-5.3-0.9H27.8V73.6z M4.5,44.3h5.9c0.9,0,1.7,0.1,2.6,0.2c0.9,0.1,1.6,0.4,2.3,0.8c0.7,0.4,1.2,0.9,1.6,1.6
		c0.4,0.7,0.6,1.6,0.6,2.7c0,1.1-0.2,2-0.6,2.7c-0.4,0.7-0.9,1.2-1.6,1.6c-0.7,0.4-1.4,0.6-2.3,0.8C12.1,55,11.3,55,10.4,55H4.5
		V44.3z M0,73.6h4.5V59h7.2c2.1,0,3.9-0.3,5.3-0.9c1.4-0.6,2.5-1.3,3.3-2.2c0.8-0.9,1.4-1.9,1.7-3c0.3-1.1,0.5-2.2,0.5-3.2
		c0-1-0.2-2.1-0.5-3.2c-0.3-1.1-0.9-2.1-1.7-3c-0.8-0.9-1.9-1.6-3.3-2.2c-1.4-0.6-3.1-0.9-5.3-0.9H0V73.6z"/>
	<path class="st0" d="M167.3,25.9h5.5V15.3L182,1.1h-6.5l-5.6,9.3l-5.2-9.3H158l9.3,14.2V25.9z M132.7,25.9h5.5V8.3h0.1L149,25.9
		h7.1V1.1h-5.5v17.2h-0.1L140.1,1.1h-7.4V25.9z M120.1,16h-6l3-7.7L120.1,16z M104.2,25.9h6l2.1-5.2h9.6l2.1,5.2h6.2L119.4,1.1h-4.5
		L104.2,25.9z M92.8,5.7h2.8c0.5,0,1,0,1.6,0.1c0.6,0.1,1.1,0.2,1.5,0.4c0.5,0.2,0.8,0.5,1.1,0.9c0.3,0.4,0.4,0.9,0.4,1.5
		c0,0.6-0.1,1.1-0.3,1.4c-0.2,0.4-0.5,0.7-0.9,0.9c-0.4,0.2-0.8,0.4-1.2,0.5c-0.5,0.1-0.9,0.1-1.4,0.1h-3.6V5.7z M87.4,25.9h5.5
		v-9.6h4c1.3,0,2.5-0.1,3.6-0.4c1.1-0.2,2.1-0.7,2.9-1.2c0.8-0.6,1.5-1.4,1.9-2.3c0.5-1,0.7-2.2,0.7-3.6c0-1.5-0.2-2.7-0.8-3.7
		c-0.5-1-1.2-1.7-2-2.3c-0.9-0.6-1.8-1-3-1.2c-1.1-0.2-2.4-0.3-3.6-0.3h-9.2V25.9z M54.4,25.9h5.5v-19h0.1l6.3,19h4.2l6.5-19h0.1v19
		h5.5V1.1h-8.2l-5.7,16.1h-0.1L62.6,1.1h-8.2V25.9z M30.2,10.3c0.4-1,0.9-1.8,1.6-2.5c0.7-0.7,1.5-1.3,2.4-1.7
		c0.9-0.4,2-0.6,3.2-0.6c1.2,0,2.2,0.2,3.2,0.6c0.9,0.4,1.8,0.9,2.4,1.7c0.7,0.7,1.2,1.6,1.6,2.5c0.4,1,0.5,2,0.5,3.2
		c0,1.2-0.2,2.2-0.5,3.2c-0.4,1-0.9,1.8-1.6,2.5c-0.7,0.7-1.5,1.3-2.4,1.7c-0.9,0.4-2,0.6-3.2,0.6c-1.2,0-2.2-0.2-3.2-0.6
		c-0.9-0.4-1.8-0.9-2.4-1.7c-0.7-0.7-1.2-1.5-1.6-2.5c-0.4-1-0.5-2-0.5-3.2C29.6,12.4,29.8,11.3,30.2,10.3 M25,18.9
		c0.7,1.6,1.6,3,2.8,4.1c1.2,1.1,2.6,2,4.2,2.6c1.6,0.6,3.4,0.9,5.3,0.9c1.9,0,3.7-0.3,5.3-0.9c1.6-0.6,3-1.5,4.2-2.6
		c1.2-1.1,2.1-2.5,2.8-4.1c0.7-1.6,1-3.4,1-5.4c0-2-0.3-3.8-1-5.4c-0.7-1.6-1.6-3-2.8-4.1c-1.2-1.1-2.6-2-4.2-2.6
		c-1.6-0.6-3.4-0.9-5.3-0.9c-1.9,0-3.7,0.3-5.3,0.9c-1.6,0.6-3,1.5-4.2,2.6c-1.2,1.1-2.1,2.5-2.8,4.1c-0.7,1.6-1,3.4-1,5.4
		C24,15.5,24.3,17.3,25,18.9 M21.7,4.1c-0.5-0.7-1.1-1.2-1.8-1.7c-0.7-0.5-1.4-0.8-2.1-1.1c-0.7-0.3-1.5-0.5-2.2-0.6
		c-0.8-0.1-1.5-0.2-2.2-0.2c-1.9,0-3.7,0.3-5.3,0.9C6.4,2,5,2.9,3.8,4C2.6,5.1,1.7,6.5,1,8.1c-0.7,1.6-1,3.4-1,5.4
		c0,2,0.3,3.8,1,5.4c0.7,1.6,1.6,3,2.8,4.1C5,24.1,6.4,25,8,25.6c1.6,0.6,3.4,0.9,5.3,0.9c1.7,0,3.4-0.3,5-1c1.6-0.7,2.9-1.8,4-3.2
		l-4.5-3.4c-0.6,0.8-1.3,1.5-2.1,2c-0.9,0.5-1.9,0.7-3,0.7c-1,0-1.9-0.2-2.7-0.6c-0.9-0.4-1.6-0.9-2.2-1.7c-0.6-0.7-1.1-1.5-1.5-2.5
		c-0.4-1-0.5-2-0.5-3.2c0-1.1,0.2-2.2,0.5-3.2c0.4-1,0.9-1.8,1.5-2.5C8.4,7.1,9.1,6.5,10,6.1c0.9-0.4,1.8-0.6,2.8-0.6
		c1,0,1.9,0.2,2.7,0.5c0.8,0.3,1.4,0.9,2,1.5L21.7,4.1z"/>
</g>
</svg>
